<?xml version="1.0" standalone="no"?>
<!DOCTYPE svg PUBLIC "-//W3C//DTD SVG 1.1//EN" "http://www.w3.org/Graphics/SVG/1.1/DTD/svg11.dtd" >
<svg>
<metadata>
Created by FontForge 20120731 at Tue Oct 18 14:21:29 2016
 By ,,,
Copyright (c) 1981, 1990 Linotype AG
</metadata>
<defs>
<font id="SnellRoundhand-Black" horiz-adv-x="537" >
  <font-face 
    font-family="Snell Roundhand"
    font-weight="900"
    font-style="italic"
    font-stretch="normal"
    units-per-em="1000"
    panose-1="2 0 10 4 9 0 0 9 0 4"
    ascent="800"
    descent="-200"
    x-height="368"
    cap-height="722"
    bbox="-624 -328 1634 941"
    underline-thickness="50"
    underline-position="-75"
    slope="-40"
    unicode-range="U+000D-2215"
  />
<missing-glyph horiz-adv-x="500" 
d="M442 8v496h-384v-496h384zM50 512h400v-512h-400v512z" />
    <glyph glyph-name=".notdef" horiz-adv-x="500" 
d="M442 8v496h-384v-496h384zM50 512h400v-512h-400v512z" />
    <glyph glyph-name=".null" horiz-adv-x="0" 
 />
    <glyph glyph-name="nonmarkingreturn" unicode="&#xd;" horiz-adv-x="500" 
 />
    <glyph glyph-name="space" unicode=" " horiz-adv-x="287" 
 />
    <glyph glyph-name="exclam" unicode="!" horiz-adv-x="407" 
d="M206 140q17 30 33.5 69t31.5 81t28.5 84t24.5 77q20 64 42 87.5t52 23.5t50 -18t20 -49q0 -25 -10.5 -46t-29 -41.5t-44 -44t-54.5 -53.5q-39 -41 -73.5 -84t-63.5 -91zM164 128q29 0 49.5 -20.5t20.5 -49.5t-20.5 -49.5t-49.5 -20.5t-49.5 20.5t-20.5 49.5t20.5 49.5
t49.5 20.5z" />
    <glyph glyph-name="quotedbl" unicode="&#x22;" horiz-adv-x="333" 
d="M327 612q-23 -27 -39 -39.5t-30.5 -26t-31 -34t-40.5 -62.5l-15 9q24 42 34.5 65.5t15.5 42t9 38t15 54.5q4 11 11 20.5t16.5 15t21 6t23.5 -6.5q26 -14 26 -39t-16 -43zM487 612q-23 -27 -39 -39.5t-30.5 -26t-31 -34t-40.5 -62.5l-15 9q24 42 34.5 65.5t15.5 42t9 38
t15 54.5q4 11 11 20.5t16.5 15t21 6t23.5 -6.5q26 -14 26 -39t-16 -43z" />
    <glyph glyph-name="numbersign" unicode="#" horiz-adv-x="574" 
d="M252 13l-106 -13l128 192h-88l-119 -179l-116 -13l128 192h-105l9 14h104l92 140h-105l9 14h104l108 164l113 8l-114 -172h88l108 164l103 8l-114 -172h117l-9 -14h-116l-92 -140h117l-9 -14h-116zM374 346h-88l-92 -140h88z" />
    <glyph glyph-name="dollar" unicode="$" horiz-adv-x="574" 
d="M170 10q19 -10 42 -10q30 0 54.5 11t41.5 29t26.5 41t9.5 48q0 26 -15 51t-38 48zM447 530q-15 6 -31 6q-23 0 -41.5 -10t-32 -26t-21 -36.5t-7.5 -42.5q0 -23 8 -41t21 -32zM283 236q-15 15 -30 31t-27 33.5t-19 37t-7 42.5q0 45 19.5 77.5t51 53.5t70.5 31t79 10
q8 0 17 -1t18 -3l39 72l11 -4l-38 -70q13 -4 34.5 -11t42 -20.5t35.5 -33.5t15 -50q0 -38 -27.5 -62.5t-69.5 -24.5q-16 0 -26 3.5t-17 8.5q14 14 26 40t12 55q0 23 -8 43t-28 31l-105 -186q19 -21 38 -40t34.5 -40t25 -45t9.5 -54q0 -37 -20 -69.5t-54.5 -56t-80 -37
t-96.5 -13.5q-14 0 -25 1.5t-22 3.5l-31 -59l-11 4l30 58q-23 5 -47.5 17t-44 30t-32 41.5t-12.5 51.5q0 23 8 43.5t22.5 35.5t34.5 24t44 9q27 0 45 -10t31 -22q-38 -11 -57.5 -39t-19.5 -68q0 -23 10.5 -49t30.5 -40z" />
    <glyph glyph-name="percent" unicode="%" horiz-adv-x="907" 
d="M725 302q53 0 86 -28t33 -83q0 -42 -22.5 -79t-57.5 -64.5t-77 -43.5t-81 -16q-24 0 -46 7t-38.5 20.5t-26.5 33.5t-10 46q0 45 22 83t56.5 65.5t77 43t84.5 15.5zM768 250q0 18 -7 29t-27 11q-14 0 -32 -12.5t-37.5 -33t-38 -47t-33 -55t-23.5 -56t-9 -50.5q0 -14 7 -25
t23 -11q21 0 42 14t40.5 36t37 49.5t30 55.5t20 53t7.5 42zM348 482q0 18 -6.5 29t-26.5 11q-14 0 -32 -13.5t-37.5 -35t-38 -49t-33 -56t-23.5 -55t-9 -47.5q0 -14 7 -24t23 -10q20 0 41.5 14t41 36t36.5 49.5t29.5 55.5t20 53t7.5 42zM204 -60l-7 5l371 497l-2 2
q-17 -12 -37.5 -19t-42.5 -7q-39 0 -60 29h-2v-11q0 -47 -22.5 -87t-57 -68.5t-76.5 -44.5t-81 -16q-24 0 -46 7t-38.5 20.5t-26.5 33.5t-10 46q0 45 22 83t56.5 65.5t77 43t84.5 15.5q32 0 52 -7.5t34 -19.5t23.5 -25t19 -25t22.5 -19.5t33 -7.5q27 0 47.5 9.5t36 24
t27.5 31.5t21.5 31.5t19 24t19.5 9.5q11 0 19.5 -7t8.5 -18q0 -12 -9.5 -24t-19.5 -24z" />
    <glyph glyph-name="ampersand" unicode="&#x26;" horiz-adv-x="704" 
d="M852 167q-10 -31 -34 -64t-62.5 -59t-93 -43t-126.5 -17q-53 0 -105.5 12.5t-96.5 42.5q-38 -25 -80 -40t-87 -15q-30 0 -57.5 9t-48.5 26.5t-33 43t-12 57.5q0 43 18.5 75.5t48 57t65.5 42t71 29.5q8 39 28 81.5t51.5 78t72 58t88.5 22.5q29 0 52 -18t23 -53
q0 -33 -25 -57.5t-59.5 -42.5t-72 -30.5t-61.5 -21.5q0 -64 24.5 -124t66.5 -104q34 38 63 77t58 70t60 50.5t70 19.5q37 0 58.5 -18.5t21.5 -52.5q0 -22 -15.5 -40t-40.5 -18q-23 0 -37.5 12t-14.5 38q0 14 6 24t16 18q-2 2 -9.5 4.5t-18.5 2.5q-21 0 -43 -14.5t-47 -41
t-54 -62.5t-64 -78q43 -44 93.5 -67t102.5 -23q45 0 83 13t68 35t50.5 50t31.5 59zM124 160q0 -59 31.5 -97.5t95.5 -38.5q18 0 38 5t35 16q-53 42 -81.5 98.5t-28.5 124.5q0 11 0.5 22.5t2.5 22.5q-47 -23 -70 -62.5t-23 -90.5zM438 489q0 24 -7.5 39.5t-24.5 15.5
q-15 0 -30.5 -14.5t-29 -39t-22 -56t-8.5 -65.5v-17q51 13 86.5 47t35.5 90z" />
    <glyph glyph-name="quotesingle" unicode="'" horiz-adv-x="222" 
d="M322 612q-23 -27 -39 -39.5t-30.5 -26t-31 -34t-40.5 -62.5l-15 9q24 42 34.5 65.5t15.5 42t9 38t15 54.5q4 11 11 20.5t16.5 15t21 6t23.5 -6.5q26 -14 26 -39t-16 -43z" />
    <glyph glyph-name="parenleft" unicode="(" horiz-adv-x="389" 
d="M80 -324q-12 48 -19 103t-7 104q0 164 50 295t136 233.5t200.5 179.5t243.5 131l4 -8q-85 -43 -163 -110.5t-144.5 -149.5t-120.5 -174.5t-92.5 -186t-59 -183.5t-20.5 -167q0 -17 0.5 -33.5t0.5 -33.5h-9z" />
    <glyph glyph-name="parenright" unicode=")" horiz-adv-x="389" 
d="M304 722q12 -48 19 -103t7 -104q0 -163 -50 -294.5t-136 -234t-200.5 -179.5t-243.5 -131l-4 8q86 43 163.5 110.5t144 149.5t120.5 174.5t92.5 186t59 183.5t20.5 167q0 17 -0.5 33.5t-0.5 33.5h9z" />
    <glyph glyph-name="asterisk" unicode="*" horiz-adv-x="333" 
d="M314 600h2q5 11 12 28t17 33t22 27.5t27 11.5q21 0 28.5 -10.5t7.5 -23.5q0 -14 -11 -25t-27 -20.5t-33 -17t-29 -15.5l2 -2q41 0 66 -1t39.5 -4.5t19.5 -11.5t5 -23q0 -17 -12.5 -24.5t-26.5 -7.5q-12 0 -25 5.5t-25 13.5t-23.5 16.5t-20.5 14.5l-2 -2q6 -12 13.5 -25
t14.5 -26.5t12 -28t5 -29.5q0 -13 -11 -22t-23 -9q-14 0 -22 5t-12 13t-5 18.5t-1 21.5q0 20 1.5 39.5t3.5 38.5l-2 2q-7 -12 -16 -29.5t-20 -34.5t-24 -29t-30 -12q-14 0 -22.5 9.5t-8.5 23.5t13.5 26t31.5 22.5t35.5 19t26.5 14.5l-2 2q-17 -2 -35.5 -3t-37.5 -1
q-9 0 -20 1.5t-21 5.5t-16.5 11.5t-6.5 19.5q0 17 11 28t29 11q12 0 25.5 -6.5t26.5 -14.5t26 -16.5t23 -13.5l2 2q-6 8 -15 22t-17.5 29.5t-14.5 30.5t-6 25q0 14 11 23.5t24 9.5q17 0 25.5 -9t12 -22t3.5 -28v-27v-50z" />
    <glyph glyph-name="plus" unicode="+" horiz-adv-x="600" 
d="M339 336l107 8l-109 -165h141l-9 -14h-140l-101 -152l-110 -13l110 165h-143l9 14h142z" />
    <glyph glyph-name="comma" unicode="," horiz-adv-x="287" 
d="M-96 -142q38 5 73 13.5t63 25t48 44t27 69.5q-8 -5 -18.5 -8.5t-21.5 -3.5q-24 0 -38 16t-14 39q0 32 20.5 55.5t53.5 23.5q43 0 62.5 -25t19.5 -65q0 -50 -27.5 -86t-68.5 -59t-89.5 -34t-89.5 -11v6z" />
    <glyph glyph-name="hyphen" unicode="-" horiz-adv-x="407" 
d="M357 221l-59 -82h-274l59 82h274z" />
    <glyph glyph-name="period" unicode="." horiz-adv-x="287" 
d="M99 142q32 0 54 -22t22 -54t-22 -54t-54 -22t-54 22t-22 54t22 54t54 22z" />
    <glyph glyph-name="slash" unicode="/" horiz-adv-x="278" 
d="M-32 -16l324 738h63l-324 -738h-63z" />
    <glyph glyph-name="zero" unicode="0" horiz-adv-x="574" 
d="M446 370q0 26 -3.5 51t-12 44.5t-23 31t-37.5 11.5q-34 0 -64 -19t-56 -49.5t-46.5 -69.5t-35 -79.5t-22.5 -78t-8 -66.5q0 -68 21.5 -103t60.5 -35q35 0 65 19t55 50.5t44.5 70.5t33.5 79.5t21 78t7 64.5zM576 368q0 -50 -17.5 -98t-47 -90t-68 -77.5t-82 -61t-88 -39.5
t-85.5 -14q-95 0 -137.5 40t-42.5 109q0 70 36 139.5t92.5 125.5t125.5 91t136 35q32 0 64 -9t57.5 -28.5t41 -50t15.5 -72.5z" />
    <glyph glyph-name="one" unicode="1" horiz-adv-x="426" 
d="M34 346q118 29 228 77t206 123l8 -6q-40 -67 -84.5 -138.5t-86.5 -141.5t-78.5 -135t-61.5 -119l-155 -10q66 102 126 208.5t123 202.5l-2 2q-52 -25 -107.5 -45.5t-112.5 -35.5z" />
    <glyph glyph-name="two" unicode="2" horiz-adv-x="574" 
d="M516 202q-5 -9 -13.5 -28.5t-22.5 -43t-34 -49t-47 -46t-62 -34t-80 -13.5q-31 0 -60.5 10t-58.5 22t-58.5 22t-60.5 10q-19 0 -26 -10t-11.5 -22t-11.5 -22t-26 -10q-7 0 -11 4.5t-4 9.5q0 6 4 12.5t18 17t42.5 28.5t76.5 48q42 26 84 46.5t80.5 39t71 37t57 42.5t38 55
t13.5 73q0 25 -6.5 46.5t-18.5 37.5t-30 25.5t-42 9.5q-27 0 -48 -8.5t-36 -22.5t-23 -32.5t-8 -38.5q0 -29 18 -50.5t46 -21.5q22 0 34 7t17 26h5q-1 -22 -10 -42t-24 -35t-35.5 -23.5t-43.5 -8.5q-39 0 -64 26t-25 68q0 35 15.5 66.5t44 56t69 39t91.5 14.5
q99 0 154.5 -35.5t55.5 -102.5q0 -51 -24 -86t-63 -59.5t-88.5 -42t-100 -33.5t-98 -32.5t-83.5 -40.5v-2q19 4 34 6t32 2q25 0 51 -5.5t51.5 -12.5t50.5 -12.5t47 -5.5q53 0 87.5 35t61.5 94z" />
    <glyph glyph-name="three" unicode="3" horiz-adv-x="574" 
d="M193 285h69q46 0 85 9.5t67.5 29t44.5 48.5t16 69q0 41 -23 68t-61 27t-58.5 -23.5t-20.5 -53.5q0 -27 12 -45t39 -18q29 0 35 28h8q0 -5 -4.5 -20.5t-16 -32t-31.5 -29t-51 -12.5q-33 0 -56 22t-23 56q0 28 14.5 54t40.5 46t62 32t80 12q45 0 78 -9.5t54.5 -25.5
t31.5 -36.5t10 -43.5q0 -46 -26 -74.5t-63.5 -45t-79.5 -24t-75 -12.5v-2h9q24 0 48 -6.5t43 -20.5t31 -35t12 -50q0 -36 -16 -63t-42.5 -47t-59.5 -33t-66 -21t-63.5 -11.5t-52.5 -3.5q-35 0 -74 6.5t-72 23t-54.5 44t-21.5 69.5q0 23 8 43t22.5 35t34.5 24t43 9
q29 0 48 -9.5t31.5 -22t19.5 -25.5t10 -21l-8 -3q-8 10 -16 15.5t-19 5.5q-13 0 -25 -7t-21 -18t-14.5 -26t-5.5 -31q0 -43 24.5 -71.5t77.5 -28.5q37 0 69 12.5t56 35t37.5 55t13.5 72.5q0 26 -9 44.5t-24 30.5t-35 17.5t-42 5.5q-15 0 -29.5 -0.5t-30.5 -5.5z" />
    <glyph glyph-name="four" unicode="4" horiz-adv-x="574" 
d="M609 520q-50 -79 -98 -157.5t-94 -158.5h112l-11 -16h-110q-24 -46 -53 -90t-49 -92l-152 -12q32 51 62 97.5t59 96.5h-97q-50 0 -100.5 -4t-95.5 -10l444 442l112 8q-43 -34 -104 -83t-130 -106t-140.5 -117.5t-135.5 -117.5l256 4q45 74 89 148.5t86 151.5z" />
    <glyph glyph-name="five" unicode="5" horiz-adv-x="574" 
d="M612 528q-4 -8 -18.5 -28t-38.5 -40.5t-58 -36.5t-78 -16q-29 0 -60 9t-54 26l-122 -142l2 -2q30 14 61.5 23t78.5 9q36 0 65.5 -9t51.5 -25.5t34 -40.5t12 -55q0 -55 -27.5 -95t-70.5 -66t-95.5 -38.5t-101.5 -12.5q-37 0 -73 7.5t-64 24.5t-45.5 43.5t-17.5 65.5
q0 48 27.5 79t77.5 31q38 2 68 -18.5t42 -68.5l-7 -4q-6 15 -14.5 21t-25.5 6q-16 0 -28.5 -7t-20.5 -18.5t-12.5 -26t-4.5 -28.5q0 -50 29 -72.5t76 -22.5q38 0 66.5 19.5t47.5 48t28.5 62.5t9.5 62q0 54 -21 84t-72 30q-27 0 -51.5 -11t-44.5 -23l-12 10q56 69 111 133.5
t109 136.5q33 -23 62 -39t72 -16q27 0 55 8t47 30z" />
    <glyph glyph-name="six" unicode="6" horiz-adv-x="574" 
d="M330 382q-42 0 -74.5 -28t-55 -68.5t-34 -85.5t-11.5 -79q0 -60 24.5 -90.5t62.5 -30.5q44 0 74 32t49.5 76.5t28 91.5t8.5 78q0 17 -3.5 35.5t-11.5 33.5t-22 25t-35 10zM201 311q11 17 29 36t42 35t53.5 26t62.5 10q68 0 101 -36t33 -95q0 -60 -29 -114.5t-74.5 -96.5
t-101.5 -67t-111 -25q-50 0 -83 14.5t-52.5 39.5t-27.5 58t-8 69q0 59 23 121t64 121t98.5 111.5t126 92t146 62.5t159.5 23q178 0 178 -113q0 -52 -30 -80t-81 -28q7 20 13 42.5t6 46.5q0 51 -29 83.5t-83 32.5q-42 0 -86.5 -18t-88 -48t-83.5 -68.5t-73.5 -79t-58.5 -80.5
t-37 -73z" />
    <glyph glyph-name="seven" unicode="7" horiz-adv-x="574" 
d="M4 -127l565 587l-2 2q-32 -26 -70 -42t-80 -16q-29 0 -57 8t-54.5 18t-52 18t-50.5 8q-8 0 -18.5 -2t-16.5 -7q-5 -12 -10.5 -28t-12.5 -31t-16 -25.5t-21 -10.5q-20 0 -20 17q0 10 8.5 22t20.5 23.5t24.5 22.5t19.5 20l15 95h13l-15 -84l2 -2q27 27 64 50.5t82 23.5
q26 0 52.5 -8.5t52 -18.5t49 -18.5t44.5 -8.5q35 0 66.5 16t52.5 44l9 -6q-50 -68 -102 -138t-101 -136.5t-93 -127t-78 -110t-56.5 -86t-29.5 -53.5z" />
    <glyph glyph-name="eight" unicode="8" horiz-adv-x="574" 
d="M450 319q52 19 70 60t18 92q0 22 -7.5 48.5t-21.5 50t-34 39t-46 15.5q-25 0 -42 -10.5t-27 -27t-14 -38t-4 -42.5q0 -43 18 -80.5t39 -73.5t39 -73t18 -81q0 -53 -22.5 -93t-58.5 -67t-80.5 -40.5t-88.5 -13.5q-41 0 -75.5 11.5t-59.5 33.5t-39 52.5t-14 68.5
q0 48 20.5 85t53.5 63.5t74.5 42.5t83.5 21q-10 22 -16 46t-6 49q0 42 19 75.5t49.5 57.5t68.5 37t77 13q40 0 75 -10t60.5 -31t40 -52.5t14.5 -73.5q0 -36 -16 -65t-42 -49.5t-58.5 -32t-65.5 -13.5v6zM120 182q0 -28 7 -60t21 -59t36 -45t52 -18q31 0 51.5 12.5t32.5 32.5
t17 44t5 48q0 30 -9 58t-22.5 54t-28.5 51t-28 50q-67 -11 -100.5 -56.5t-33.5 -111.5z" />
    <glyph glyph-name="nine" unicode="9" horiz-adv-x="574" 
d="M430 397q0 23 -4.5 45t-14.5 39t-26 28t-39 11q-30 0 -53 -15t-41 -38.5t-30 -52.5t-20 -57t-11.5 -52.5t-3.5 -38.5q0 -58 16 -92t56 -34q28 0 58 19.5t55 54t41.5 81.5t16.5 102zM384 204q-14 -19 -34 -38t-44.5 -33.5t-53.5 -23.5t-62 -9q-21 0 -43 7.5t-39.5 24
t-29 43.5t-11.5 65q0 57 28.5 111t74 96t104 67.5t118.5 25.5q47 0 77.5 -16t48.5 -40t25 -52t7 -52q0 -72 -25.5 -145.5t-71 -141.5t-108.5 -128t-137.5 -104t-158 -69.5t-169.5 -25.5q-92 0 -144 34t-52 94q0 42 28 67t72 25q-4 -12 -6 -24.5t-2 -27.5q0 -31 10.5 -58.5
t30 -48.5t46.5 -33t61 -12q74 0 143 39.5t128.5 101t108 135.5t82.5 144z" />
    <glyph glyph-name="colon" unicode=":" horiz-adv-x="287" 
d="M248 360q32 0 54 -22t22 -54t-22 -54t-54 -22t-54 22t-22 54t22 54t54 22zM118 136q32 0 54 -22t22 -54t-22 -54t-54 -22t-54 22t-22 54t22 54t54 22z" />
    <glyph glyph-name="semicolon" unicode=";" horiz-adv-x="287" 
d="M-75 -142q38 5 73 13.5t63 25t48 44t27 69.5q-8 -5 -18.5 -8.5t-21.5 -3.5q-24 0 -38 16t-14 39q0 32 20.5 55.5t53.5 23.5q43 0 62.5 -25t19.5 -65q0 -50 -27.5 -86t-68.5 -59t-89.5 -34t-89.5 -11v6zM250 360q32 0 54 -22t22 -54t-22 -54t-54 -22t-54 22t-22 54t22 54
t54 22z" />
    <glyph glyph-name="less" unicode="&#x3c;" horiz-adv-x="600" 
d="M521 356q-45 -23 -92.5 -46t-93.5 -43.5t-88 -38t-77 -30.5l234 -123l-78 -53l-263 144v8q57 21 120 46.5t124 51.5t115 50.5t93 44.5z" />
    <glyph glyph-name="equal" unicode="=" horiz-adv-x="600" 
d="M511 239h-344l10 16h344zM425 107h-344l10 16h344z" />
    <glyph glyph-name="greater" unicode="&#x3e;" horiz-adv-x="600" 
d="M484 194l-3 -6l-513 -207l-6 17l400 159l-271 135l79 66z" />
    <glyph glyph-name="question" unicode="?" horiz-adv-x="500" 
d="M217 138q17 25 39.5 43t47 34.5t48 33t42.5 37t30.5 46.5t11.5 62q0 26 -9 49.5t-24.5 41t-37 27.5t-46.5 10q-38 0 -62.5 -27t-24.5 -69q0 -28 14.5 -52t40.5 -24q34 0 46 19.5t13 46.5h10q0 -22 -6 -47t-19.5 -46t-35 -35t-52.5 -14q-35 0 -59 26.5t-24 69.5
q0 35 17 67.5t48 58t76 41t100 15.5q35 0 64 -10.5t51 -30t34 -46.5t12 -60q0 -36 -17.5 -64.5t-44.5 -50.5t-59 -37t-62 -26q-21 -7 -43.5 -15t-43.5 -18.5t-39 -25t-31 -34.5zM162 128q29 0 49.5 -20.5t20.5 -49.5t-20.5 -49.5t-49.5 -20.5t-49.5 20.5t-20.5 49.5
t20.5 49.5t49.5 20.5z" />
    <glyph glyph-name="at" unicode="@" horiz-adv-x="800" 
d="M836 299q-33 -68 -79.5 -109t-97 -63.5t-98 -30t-81.5 -7.5q-35 0 -48.5 13t-13.5 30q0 11 3.5 22t8.5 23l-2 1q-11 -12 -26 -26.5t-32 -27t-36.5 -21.5t-38.5 -9q-21 0 -36 10.5t-22 29t-7 43t9 51.5q14 44 37 74.5t51 49.5t58.5 27.5t59.5 8.5q23 0 37.5 -5t23 -13
t12.5 -18.5t6 -20.5h2l27 48h93q-30 -42 -58 -80.5t-50 -71t-35 -57.5t-13 -39q0 -11 5.5 -18t16.5 -7q37 0 83 37.5t101 133.5q24 42 33.5 92.5t-4.5 94.5t-55.5 73.5t-119.5 29.5q-70 0 -128.5 -21t-106.5 -55.5t-84 -79.5t-61 -92q-35 -66 -42.5 -137t13.5 -130t72 -97.5
t133 -38.5q91 0 174 32t154.5 83t130 114t101.5 125l14 -4q-24 -40 -59 -82.5t-79 -84t-97 -78.5t-111.5 -65t-122.5 -44.5t-131 -16.5q-105 0 -176 38t-107.5 97t-38 130.5t32.5 139.5q38 76 98.5 130t133.5 88.5t153.5 50.5t158.5 16q72 0 133 -22t99 -61t48 -91t-19 -112
zM332 252q-13 -33 -17 -56.5t-1.5 -38.5t9.5 -22t16 -7q15 0 35.5 15t41.5 39.5t40.5 55t31.5 61.5q14 34 6 56.5t-31 22.5q-17 0 -36 -11t-37 -28.5t-33.5 -40t-24.5 -46.5z" />
    <glyph glyph-name="A" unicode="A" horiz-adv-x="944" 
d="M1116 714q-46 -45 -93.5 -99t-92 -112t-83.5 -118.5t-68 -119t-46 -112.5t-17 -100q0 -27 11 -38t24 -11q35 0 74 26t78 65t76 84t67 83l7 -7q-34 -43 -67.5 -83.5t-72.5 -80.5q-20 -21 -42.5 -40.5t-48 -34t-54.5 -23.5t-63 -9q-53 0 -84 25t-31 77q0 30 6.5 59t17 57
t23.5 55.5t26 52.5h-134q-46 -49 -98 -105t-110 -103.5t-122 -78.5t-134 -31q-75 0 -116 33.5t-41 86.5q0 13 4 26.5t13 25t22.5 19t32.5 7.5q20 0 39 -13t19 -45q0 -24 -15.5 -37t-32.5 -13q2 -32 29 -48t67 -16q59 0 120 31t118 77.5t108.5 100t91.5 98.5q20 22 51.5 56
t73 73.5t92 81t108 79t122 67.5t134.5 46zM669 322q51 91 120.5 172t146.5 153l-2 2q-55 -26 -109.5 -65t-105 -83.5t-96.5 -91t-85 -87.5h131z" />
    <glyph glyph-name="B" unicode="B" horiz-adv-x="1000" 
d="M1029 720q-39 2 -77.5 -5t-70.5 -32q50 -24 82.5 -61t32.5 -97q0 -45 -23.5 -76t-58.5 -51t-75.5 -30t-74.5 -12v-2q91 -2 139.5 -38t48.5 -105q0 -50 -28 -91.5t-72.5 -71.5t-99.5 -47t-110 -17q-21 0 -44 5t-41.5 16.5t-30.5 29.5t-12 44q0 34 20.5 54.5t54.5 20.5
q22 0 39 -9t26 -20q-17 -15 -32.5 -37t-15.5 -47q0 -20 12.5 -30.5t33.5 -10.5q31 0 60.5 20.5t52.5 52.5t37 72t14 79q0 38 -12.5 63t-33.5 39t-47 18t-53 -1l4 9q94 15 148 66.5t54 134.5q0 28 -8.5 51.5t-28.5 43.5q-60 -60 -103 -132.5t-82.5 -145.5t-80 -141
t-95 -120.5t-129 -84.5t-181.5 -32q-33 0 -63.5 6.5t-54.5 20.5t-38 36.5t-14 55.5q0 29 18.5 52t52.5 23q29 0 47 -16t18 -44q0 -39 -41 -54q4 -37 24.5 -52.5t52.5 -15.5q51 0 91.5 23t75 62t65.5 90t62 107.5t64 114.5t72.5 110.5t87 96t107.5 71.5q-23 11 -64 21
t-103 10q-88 0 -167 -27.5t-137.5 -76t-93 -114t-34.5 -141.5q0 -25 6.5 -47t19 -38.5t32.5 -26t47 -9.5q37 0 64 21t45 52.5t27 69t9 70.5q0 29 -10 62t-24 60l10 4q14 -29 25 -57.5t11 -73.5q0 -48 -14.5 -92.5t-43 -78.5t-70 -54.5t-96.5 -20.5q-35 0 -63.5 12.5
t-48.5 34.5t-31 51t-11 63q0 56 24 105.5t65 90.5t95.5 73t115.5 54.5t125.5 34t124.5 11.5q62 0 118 -6.5t91 -16.5q20 8 41 14t44 10q47 9 105 9v-12z" />
    <glyph glyph-name="C" unicode="C" horiz-adv-x="722" 
d="M603 617q-9 -9 -20 -27t-11 -46q0 -37 23 -60t57 -23q32 0 59 17.5t46.5 44.5t30 59t10.5 60q0 37 -20.5 52.5t-55.5 15.5q-53 0 -108.5 -22.5t-107 -61.5t-97 -91.5t-79 -113.5t-53 -126.5t-19.5 -130.5q0 -32 8.5 -61t24.5 -51t37.5 -35t47.5 -13q39 0 75.5 18.5
t65.5 48.5t46.5 69t17.5 81q0 22 -4.5 42.5t-14 36t-24 25t-35.5 9.5q-40 0 -65 -26.5t-38.5 -61.5t-18.5 -68t-5 -47h-12q0 39 10.5 81t33 77.5t58 58t84.5 22.5q27 0 50 -9t40 -25.5t27 -39t10 -49.5q0 -48 -27.5 -95.5t-73 -84.5t-104.5 -60t-122 -23q-120 0 -176 58.5
t-56 165.5q0 62 28 124.5t74.5 119.5t107 106.5t126.5 86t132 57t123 20.5q30 0 60 -4.5t53 -17t37.5 -35t14.5 -58.5q0 -31 -15.5 -60.5t-42.5 -52t-62.5 -36t-75.5 -13.5q-23 0 -44.5 5.5t-38 17.5t-26 30.5t-9.5 44.5q0 20 8.5 41t26.5 39z" />
    <glyph glyph-name="D" unicode="D" horiz-adv-x="1000" 
d="M1052 722q-57 -4 -110 -24.5t-92 -64.5q27 -21 51 -49t42 -62t28.5 -72.5t10.5 -82.5q0 -76 -23.5 -134.5t-64 -101t-95 -71t-117 -45.5t-130 -24t-133.5 -7q-60 0 -103.5 5t-60.5 7q-27 -4 -62 -8t-70 -4q-45 0 -69.5 9t-24.5 27q0 10 10 17t34 7q29 0 78 -10t109 -22
q39 6 71.5 28t62.5 57t58.5 82t58.5 104q32 59 61.5 113t62 101t70.5 86t86 68q-37 26 -90.5 42.5t-125.5 16.5q-65 0 -129.5 -28t-116 -77t-83.5 -115.5t-32 -144.5q0 -25 5 -48.5t16.5 -41.5t31 -29t48.5 -11q39 0 69.5 20.5t51.5 52t31.5 69t10.5 71.5q0 30 -6 65t-20 69
l10 4q14 -33 21 -68.5t7 -63.5q0 -58 -17.5 -104t-48.5 -78t-73 -49.5t-92 -17.5q-37 0 -67 14t-51 38t-32 55.5t-11 65.5q0 56 20.5 104.5t56 89t82.5 72.5t100.5 53.5t110.5 33t111 11.5q68 0 130 -17.5t101 -43.5q56 33 117 50t125 23v-12zM290 5q28 -5 67.5 -7t74.5 -2
q74 0 135.5 21.5t109.5 57.5t83.5 84t59 100t35 106t11.5 102q0 38 -6.5 76t-29.5 69q-41 -61 -73 -122.5t-62.5 -120t-64 -112.5t-80 -101t-109 -85t-151.5 -64v-2z" />
    <glyph glyph-name="E" unicode="E" horiz-adv-x="704" 
d="M462 483q30 -10 63 -10q31 0 52 11.5t34 29.5t19 39.5t6 42.5t-5 41.5t-15.5 36.5t-27.5 26t-40 10q-30 0 -51 -15t-36 -44.5t-25.5 -73.5t-19.5 -101q-4 -25 -22.5 -42.5t-44.5 -33.5t-55 -33t-53.5 -41t-40.5 -57t-16 -82q0 -41 13.5 -74t37 -56t54.5 -35t65 -12
q54 0 91.5 16.5t60.5 42t33.5 56t10.5 58.5q0 21 -6 41.5t-17.5 36t-29 25t-41.5 9.5q-26 0 -48.5 -12t-41 -29.5t-32.5 -37t-23 -34.5l-10 4q15 26 37.5 52.5t51 48t61.5 35t67 13.5q72 0 106 -32.5t34 -83.5q0 -46 -33 -89t-86.5 -75t-121 -51.5t-135.5 -19.5q-36 0 -77 8
t-76 27.5t-58 51t-23 78.5q0 49 23.5 82t56.5 55.5t68 38t57 30.5q13 9 19 36.5t12 62t14.5 71t24.5 62.5q23 37 55 62.5t67 41.5t70 23.5t63 7.5t55.5 -6t49.5 -19.5t35.5 -36.5t13.5 -57q0 -37 -19.5 -64t-49 -44.5t-64.5 -25.5t-67 -8q-17 0 -36 3.5t-36 10.5z" />
    <glyph glyph-name="F" unicode="F" horiz-adv-x="889" 
d="M494 333l6 12l58 2q31 61 71.5 105t89.5 75.5t106 53t121 37.5v2q-30 0 -61 1t-66 2t-76 2t-91 1q-62 0 -127 -3.5t-126.5 -13t-116.5 -25.5t-95.5 -40.5t-64.5 -58t-24 -79.5q0 -33 15 -55.5t37.5 -36t50 -19t52.5 -5.5q35 0 77.5 11t80.5 32.5t63.5 54t25.5 74.5
q0 20 -3.5 39t-11.5 37l9 5q5 -9 11.5 -29.5t6.5 -55.5q0 -50 -23.5 -91t-61 -70t-83.5 -45t-91 -16q-30 0 -60 11t-55 32t-40.5 51.5t-15.5 69.5q0 67 36 117t94 85.5t131.5 59t148 37t144 18.5t118.5 5q70 0 125 -1t98.5 -2.5t77.5 -3t62 -1.5q11 0 25 -2.5t26 -8.5
t20.5 -15.5t8.5 -23.5q0 -19 -13 -30.5t-32 -17t-39 -7t-34 -1.5q-11 0 -25 1l-28 2t-26.5 2t-20.5 1q-46 0 -88 -28t-78 -68.5t-64 -86t-48 -80.5q32 3 54.5 8t33.5 12q5 3 10.5 11t11.5 17t12.5 16t13.5 7h110q-66 -54 -124 -116t-104 -134l-9 -1q9 46 28 89t39 86
q-14 0 -37.5 -4t-43.5 -5q-39 -77 -86 -140.5t-106 -109t-132 -70.5t-164 -25q-30 0 -62.5 6.5t-59.5 21.5t-44.5 39.5t-17.5 60.5q0 15 6 28.5t15.5 24t23 17t28.5 6.5q26 0 44.5 -15.5t18.5 -42.5q0 -23 -11.5 -39t-32.5 -23q6 -41 33.5 -56.5t65.5 -15.5q68 0 117.5 34
t88 84t69.5 107.5t61 105.5z" />
    <glyph glyph-name="G" unicode="G" horiz-adv-x="722" 
d="M741 718q-36 0 -71.5 -12.5t-69 -31t-63.5 -40.5t-53 -42q18 -21 39.5 -34.5t44 -22t45 -12t41.5 -3.5q28 0 58 7.5t55.5 22.5t42 38.5t16.5 56.5q0 21 -7 35.5t-19 22.5t-27 11.5t-32 3.5zM518 797q-30 -12 -54 -40t-24 -63q0 -16 2 -28.5t7 -22.5q72 35 150 61t160 26
q21 0 48.5 -4t51.5 -14.5t40.5 -29.5t16.5 -48q0 -40 -23.5 -66t-58.5 -41t-74 -21t-71 -6q-63 0 -116 18t-98 65q-52 -54 -87.5 -117t-35.5 -137q0 -20 4.5 -40t14 -35.5t25.5 -25.5t39 -10q14 0 32 6t34 14.5t28 18.5t15 19q10 34 21.5 58t28.5 39.5t43.5 23t66.5 7.5
q29 0 29 -10q0 -2 -11 -33.5t-35 -77t-62.5 -98t-94 -97.5t-128 -74.5t-165.5 -29.5q-33 0 -70 9.5t-68.5 28.5t-52 48t-20.5 68q0 19 4.5 37.5t14.5 33.5t26 24t38 9q25 0 45 -16t20 -42q0 -28 -17 -46t-45 -18q-5 -35 3.5 -58.5t27.5 -38t45.5 -21t57.5 -6.5q54 0 98 24
t79.5 61.5t63.5 82.5t49 88h-2q-16 -14 -38.5 -27.5t-47 -24t-50 -16.5t-47.5 -6q-69 0 -104 40.5t-35 106.5q0 52 19.5 98t51.5 85.5t72.5 72t82.5 56.5q-5 13 -7.5 27.5t-2.5 28.5q0 20 7.5 38.5t20 33.5t29 26t33.5 16v-10z" />
    <glyph glyph-name="H" unicode="H" horiz-adv-x="1000" 
d="M615 348q-87 -177 -207.5 -266.5t-269.5 -89.5q-27 0 -55.5 6.5t-52.5 20t-39 35t-15 50.5q0 33 19.5 58.5t55.5 25.5q28 0 43 -19t15 -45q0 -17 -11 -29.5t-26 -18.5q0 -33 15.5 -52.5t50.5 -19.5q58 0 102 26.5t80.5 70t68.5 101t66.5 118.5t74.5 122.5t92.5 114
t120.5 91.5t159 56v2q-42 0 -108 -2.5t-140.5 -12t-149.5 -27.5t-135.5 -49t-98.5 -76.5t-38 -110.5q0 -37 18.5 -63.5t62.5 -26.5q29 0 55 11t45.5 30t31 43t11.5 49q0 19 -4.5 36t-10.5 28l9 3q8 -11 13 -29.5t5 -38.5q0 -37 -17.5 -67.5t-47 -53t-67 -35t-76.5 -12.5
q-28 0 -53 10t-43 27t-29 40t-11 49q-1 68 45.5 121.5t129 90t196.5 55.5t247 19q53 0 97.5 3.5t79.5 7.5t60.5 7.5t38.5 3.5q22 0 27 -6.5t5 -12.5t-7.5 -11.5t-25.5 -5.5q-11 0 -28 3t-37 3q-35 0 -70 -18.5t-67.5 -48.5t-62.5 -68t-55 -76t-44 -72.5t-30 -58.5h134
q45 86 105.5 150.5t125 107t129 63.5t117.5 21q16 0 38.5 -1.5t43 -8t35 -19.5t14.5 -35t-13.5 -36t-34.5 -14q-24 0 -37.5 15.5t-25 33.5t-24 33.5t-33.5 15.5q-43 0 -89 -32t-89 -83t-81 -115.5t-66.5 -130t-45 -126t-16.5 -103.5q0 -16 1 -30.5t5 -25.5t11.5 -17.5
t20.5 -6.5q22 0 47.5 15t52 38.5t51.5 52.5t46.5 56t38 49.5t25.5 33.5l8 -4q-18 -23 -39.5 -52.5t-46.5 -60t-53.5 -60.5t-59 -53t-63.5 -37t-68 -14q-30 0 -50.5 11t-33 29t-18 42t-5.5 50q0 29 6.5 59t16.5 60t22 58.5t24 54.5h-134z" />
    <glyph glyph-name="I" unicode="I" horiz-adv-x="722" 
d="M487 503q11 -16 18 -34.5t7 -39.5q0 -39 -20.5 -69.5t-51.5 -51t-67.5 -31.5t-68.5 -11q-30 0 -55 10.5t-43.5 28.5t-29 43t-10.5 55q0 72 44.5 122t114 82.5t153 50.5t162 26.5t141 10t89.5 1.5q49 0 82.5 4t58 9t42.5 9t35 4q18 0 30.5 -5.5t12.5 -19.5
q0 -11 -13.5 -16t-32.5 -5q-30 0 -49.5 3t-31.5 3q-40 0 -81 -24t-82.5 -69t-83.5 -109.5t-83 -146.5q-48 -95 -104.5 -161.5t-119.5 -108t-132 -60.5t-142 -19q-45 0 -84.5 10.5t-68.5 29.5t-46 45.5t-17 58.5q0 35 22 56.5t56 21.5q29 0 42.5 -20t13.5 -45
q0 -19 -11 -32.5t-27 -18.5q5 -47 37 -70.5t83 -23.5q71 0 127 36t100 88.5t77 112.5t59 108q40 74 80.5 127.5t90 93.5t110.5 68.5t142 51.5l-1 2q-70 0 -148.5 -5t-155 -17t-146 -32t-122 -51.5t-84 -75t-31.5 -101.5q0 -42 25.5 -71t67.5 -29q26 0 49.5 11.5t42.5 29.5
t30 40.5t11 43.5q0 40 -22 71z" />
    <glyph glyph-name="J" unicode="J" horiz-adv-x="722" 
d="M488 506q9 -14 17.5 -36.5t8.5 -42.5q0 -38 -18.5 -69t-47.5 -52.5t-64.5 -33.5t-70.5 -12q-30 0 -55.5 11.5t-44 31t-29 45.5t-10.5 55q0 53 27.5 94t73.5 71.5t107 51.5t128.5 35.5t137 22.5t132.5 12t116 5t87 1q8 0 22 3t29 6t28.5 6t21.5 3q34 0 34 -18
q0 -12 -11 -18t-30 -6q-17 0 -36.5 3t-38.5 5q-14 -2 -40 -12.5t-58 -33t-67 -59t-67 -89.5q-108 -180 -167.5 -285t-79.5 -139q93 20 166 73.5t133 131.5l9 -4q-22 -30 -52 -62.5t-68.5 -62t-87 -53.5t-107.5 -37q-45 -75 -100 -139t-119 -110.5t-136.5 -72.5t-152.5 -26
q-31 0 -63 7t-57.5 22.5t-41.5 40.5t-16 61q0 41 24 69.5t66.5 47.5t101.5 31.5t128 22.5q74 11 131 18t87 14q30 48 57.5 97.5t55.5 100t58 100t63 95.5q85 115 178.5 175t195.5 80v2q-16 0 -54.5 -0.5t-90.5 -4t-112.5 -10.5t-121.5 -20.5t-118 -34t-100.5 -50.5
t-70 -70.5t-26.5 -93.5q0 -47 28 -72.5t73 -25.5q23 0 44.5 10.5t38 28t26.5 41t10 48.5q0 30 -22 69zM-62 -187q0 -45 28 -73t74 -28q60 0 107.5 32t86 79t70 100.5t59.5 96.5q-37 -6 -74 -11t-73.5 -11t-73.5 -14.5t-74 -22.5q-24 -9 -47 -22.5t-41.5 -32t-30 -42
t-11.5 -51.5z" />
    <glyph glyph-name="K" unicode="K" horiz-adv-x="1000" 
d="M476 543q10 -12 18 -30t8 -45q0 -28 -14.5 -57.5t-41.5 -53t-65 -38.5t-84 -15q-59 0 -96 34.5t-37 94.5q0 50 26.5 89t72 68.5t104.5 50t124 34t132 21.5t127 12t109.5 5t79.5 1q13 0 29.5 3t33 7t31.5 7t25 3q30 0 30 -18q0 -9 -14.5 -12.5t-29.5 -3.5q-12 0 -28 1
t-34 1h-1q-11 0 -34.5 -7t-53.5 -26t-64.5 -51.5t-67.5 -82.5q-35 -52 -67 -112.5t-67.5 -121t-77 -116.5t-95.5 -99t-122.5 -68.5t-158.5 -25.5q-35 0 -64.5 8.5t-51 23.5t-33.5 36.5t-12 47.5q0 32 18 54.5t53 22.5q23 0 42 -13.5t19 -38.5q0 -19 -8 -33.5t-27 -19.5
q0 -2 -0.5 -4t-0.5 -6q0 -31 20.5 -49t53.5 -17q59 1 104 33t86.5 87.5t84 132t94.5 166.5q40 69 88.5 118t100 81.5t102 51t94.5 26.5v2q-189 -1 -317 -26t-206.5 -64t-112.5 -88t-34 -97q0 -39 25 -63t63 -24q28 0 53 12t43.5 30.5t29 42t10.5 45.5q0 38 -23 69zM1116 257
q-32 -45 -67 -88.5t-73 -81.5q-47 -46 -93.5 -70.5t-107.5 -24.5q-47 0 -74 23.5t-27 70.5q0 29 14 60.5t30.5 62.5t30 59.5t13.5 50.5q0 28 -17 40.5t-46 12.5q-6 0 -10.5 1t-4.5 5q0 6 11 6q41 0 73.5 6.5t63 25t62.5 51.5t71 86q36 48 74 80.5t76 52t76 28t72 8.5
q46 0 77.5 -19.5t31.5 -58.5q0 -22 -11 -39t-28 -27.5t-37.5 -16t-39.5 -5.5q11 23 19.5 49t8.5 50q0 55 -34 55q-21 0 -39 -18t-37 -46.5t-41 -63t-50 -67.5q-33 -38 -66 -62.5t-73 -40t-89.5 -24t-114.5 -14.5v-2q23 -12 44 -25t37.5 -30.5t26.5 -39.5t10 -51
q0 -21 -7.5 -44t-16.5 -45.5t-16.5 -43t-7.5 -35.5q0 -17 8 -26.5t25 -9.5q28 0 64 23.5t77 66.5q34 35 65.5 76t57.5 76z" />
    <glyph glyph-name="L" unicode="L" horiz-adv-x="648" 
d="M764 259q-90 -88 -179 -172t-179 -174q-3 -26 -14.5 -47t-29.5 -36t-39.5 -23t-43.5 -8q-15 0 -15 12q0 7 3.5 10t7.5 7.5t7.5 12.5t3.5 25q0 40 -13.5 68.5t-36.5 46t-55 25.5t-68 8q-21 0 -46.5 -3.5t-53 -7.5t-56 -7.5t-55.5 -3.5q-51 0 -51 25q0 11 10.5 19t33.5 8
q24 0 53.5 -2t58 -5t54.5 -5t42 -2q30 0 61.5 25t62 63.5t59.5 86t52.5 92.5t41 82t26.5 55q-27 5 -53.5 16.5t-47 30t-33 43t-12.5 54.5q0 57 33.5 87.5t78.5 30.5q19 0 34.5 -4t23.5 -8l-3 -10q-14 5 -27 7.5t-28 2.5q-47 0 -73.5 -31t-26.5 -75q0 -27 12 -50t31.5 -40
t44.5 -28.5t50 -15.5q27 57 71.5 108t100 88.5t118.5 59.5t127 22q29 0 56 -6t49 -19.5t35 -34.5t13 -52q0 -35 -19 -63.5t-50.5 -50.5t-72 -38t-83 -26t-84.5 -15t-76 -5q-14 0 -29 1t-30 3q-36 -71 -68.5 -122t-63 -87.5t-60.5 -61.5t-63 -44.5t-69 -36t-79 -36.5v-2
q37 0 80.5 -1.5t83 -10.5t69 -29.5t38.5 -58.5q24 26 65.5 66.5t90 86.5t99.5 93.5t95 89.5zM872 643q0 30 -16 48.5t-44 18.5t-56 -14.5t-54.5 -38.5t-51 -54.5t-45.5 -62t-37.5 -61.5t-26.5 -53q11 -2 23 -2h28q85 0 139.5 26t85.5 61t43 72.5t12 59.5z" />
    <glyph glyph-name="M" unicode="M" horiz-adv-x="1000" 
d="M380 -3q30 51 51.5 111t44 123.5t50 127.5t67.5 124.5t97.5 114.5t140.5 96l-2 2q-82 -31 -149 -82t-119.5 -108t-91 -111t-64.5 -91q-49 -70 -92.5 -127.5t-88 -98.5t-93.5 -63.5t-111 -22.5q-28 0 -53 8t-44.5 23.5t-31 38t-11.5 52.5t19 53t50 23q26 0 43.5 -16
t17.5 -44q0 -21 -12 -36.5t-33 -17.5q4 -34 23 -49t50 -15q56 0 106 29t98.5 79t98.5 117.5t105 144.5q44 62 91.5 116t102 98.5t117.5 79t138 56.5l8 -12q-58 -29 -95.5 -72.5t-65 -96t-49.5 -111.5t-48 -121t-60.5 -123.5t-88.5 -119.5l2 -2q38 34 71 67t70 75.5t81.5 99
t103.5 135.5q44 59 92.5 108.5t103.5 85.5t117 56.5t132 20.5q37 0 51 -5t14 -17q0 -6 -8.5 -11t-22.5 -5q-17 0 -28 2l-22 4q-7 2 -19.5 4t-23.5 2q-17 0 -39 -16t-45 -46.5t-46.5 -74t-44.5 -97.5q-33 -87 -64.5 -156.5t-71.5 -124.5t-94 -96.5t-131 -72.5v-2h2
q56 0 114 9.5t108 32.5q53 24 104 73.5t105 140.5l9 -3q-44 -75 -87 -124t-93 -79q-37 -22 -76.5 -34.5t-77 -18t-69 -6.5t-51.5 -1q-9 0 -17.5 -1.5t-18 -3t-21.5 -2.5t-30 -1q-31 0 -31 16q0 18 26 18q9 0 20 -2t22 -5t21 -5t17 -2q22 0 42 23t40.5 62.5t42.5 91.5t49 109
t60 116t74.5 112.5t93.5 98.5t116 73l-2 2q-52 -13 -99.5 -40t-91 -63.5t-84 -82.5t-78.5 -98t-87 -115t-104 -123t-113.5 -109.5t-116.5 -74.5z" />
    <glyph glyph-name="N" unicode="N" horiz-adv-x="907" 
d="M650 -26q2 22 2 39v41q0 57 -13 112t-30.5 109.5t-35.5 111t-28 116.5l-2 3q-23 -43 -50 -98t-59 -112.5t-70.5 -112t-84 -97t-100 -68.5t-118.5 -26q-32 0 -57.5 9t-42.5 24.5t-26 36t-9 42.5q0 33 17.5 57.5t52.5 24.5q25 0 41.5 -15.5t16.5 -41.5t-13 -41.5t-39 -17.5
q2 -26 24.5 -42t61.5 -16q55 0 104.5 26.5t92.5 70t80 99t69 113.5t59 113.5t49 98.5q-1 7 -1.5 13t-0.5 13q0 37 8.5 68.5t27 54t48.5 35.5t73 13q-18 -26 -29.5 -54t-11.5 -59q0 -48 13.5 -98t30 -103t30 -108t12.5 -112h2q13 31 37.5 81t57 108t72 116.5t83 105.5t90 77
t92.5 30q20 0 38 -4.5t31.5 -15.5t22 -28t8.5 -43q0 -27 -12.5 -51t-32.5 -42t-45 -29.5t-51 -15.5l-5 7q29 8 48.5 28t19.5 49q0 38 -21.5 56.5t-57.5 18.5q-48 0 -96.5 -40.5t-95 -103.5t-89 -140.5t-77 -152t-59 -137t-36.5 -96.5h-16z" />
    <glyph glyph-name="O" unicode="O" horiz-adv-x="778" 
d="M888 254q-36 -30 -81.5 -47.5t-102.5 -17.5q-28 0 -50 7q-34 -40 -75.5 -78.5t-89.5 -68t-101.5 -47.5t-111.5 -18q-46 0 -81 15.5t-58 43t-35 65t-12 80.5q0 85 41.5 168t108 151t148.5 113t163 54q22 19 49 33.5t69 14.5q27 0 50 -12.5t39.5 -35t26 -54.5t9.5 -71
q0 -44 -10 -90t-28 -90.5t-42 -85.5t-52 -75q12 -3 23.5 -5t22.5 -2q35 0 60.5 6t46 15t37.5 20t33 21zM230 168q0 -28 7 -55.5t22 -49.5t38 -35.5t54 -13.5q40 0 77 19.5t69 50t58.5 66.5t45.5 69q-63 35 -103 88t-40 135q0 71 23.5 124.5t58.5 91.5l-2 2q-56 -12 -111 -59
t-99 -115.5t-71 -151.5t-27 -166zM508 468q0 -83 25.5 -146.5t72.5 -90.5q37 84 58.5 165t21.5 173q0 57 -18 92t-48 35q-14 0 -27.5 -6.5t-24.5 -15.5q38 -2 60.5 -25t22.5 -61q0 -26 -7.5 -45.5t-18.5 -42.5l-11 4q12 26 18.5 45.5t6.5 35.5q0 34 -21 55.5t-58 21.5
q-29 -36 -40.5 -85.5t-11.5 -108.5z" />
    <glyph glyph-name="P" unicode="P" horiz-adv-x="944" 
d="M1079 740q-26 -6 -50.5 -13t-47.5 -21q28 -11 52.5 -28t42.5 -39t28.5 -49t10.5 -59q0 -51 -20.5 -88.5t-54 -62.5t-75 -37.5t-83.5 -12.5q-19 0 -38 4.5t-34.5 13.5t-25.5 22.5t-10 31.5q0 21 15.5 34.5t38.5 13.5q25 0 41 -16q-14 -10 -21.5 -25t-7.5 -32
q0 -14 7.5 -22.5t21.5 -8.5q28 0 51.5 25t41 60t27.5 74t10 66q0 36 -15 64.5t-39 45.5q-63 -52 -105.5 -113.5t-78 -125.5t-69.5 -127t-81 -119t-112 -101.5t-163 -74.5v-2q21 -3 47 -5.5t53 -4.5t52 -3t43 -1q73 0 143.5 12t136.5 41.5t127 80.5t114 129l9 -5
q-49 -70 -99 -122.5t-105.5 -87t-120.5 -51.5t-144 -17q-46 0 -91 3.5t-83 8t-65.5 8.5t-38.5 6q-38 -8 -77.5 -13t-87.5 -5q-54 0 -84.5 12t-30.5 29q0 25 35 25q24 0 56 -4t65 -9.5t63.5 -11.5t52.5 -9q40 14 71.5 39.5t60 62.5t57 84.5t61.5 105.5t70.5 116.5t80.5 111
t93.5 94t110.5 65.5q-27 13 -65.5 19t-73.5 6q-86 0 -172 -28t-155 -78t-112 -119.5t-43 -153.5q0 -20 4.5 -40t15 -35.5t27 -25.5t39.5 -10q39 0 67 21t46 52t26.5 65.5t8.5 61.5q0 30 -3.5 49.5t-8.5 36.5l11 1q4 -16 8.5 -35.5t4.5 -51.5q0 -39 -13 -83t-39 -81
t-66.5 -61.5t-95.5 -24.5q-66 0 -107 39.5t-41 105.5t30 121.5t79 101t112.5 80t130.5 57.5t132.5 35t118.5 12q59 0 99 -7t71 -17q5 2 18 7t31 10t39 9t41 4z" />
    <glyph glyph-name="Q" unicode="Q" horiz-adv-x="778" 
d="M660 468q-29 -85 -88.5 -126.5t-144.5 -41.5q-36 0 -62.5 12.5t-44 33t-26 47.5t-8.5 55q0 57 31.5 107t82 87t113.5 58.5t125 21.5q46 0 85.5 -14t69 -38.5t46.5 -58t17 -72.5q0 -58 -24.5 -109t-65.5 -95.5t-93.5 -82.5t-108.5 -69.5t-111 -56.5t-100 -44v-2
q41 -8 92.5 -15t99.5 -7q71 0 121.5 17t89 46t69.5 67t63 80l10 -3q-10 -13 -30 -40.5t-49 -61.5t-67.5 -69.5t-86 -64.5t-104.5 -48t-123 -19q-54 0 -105.5 21.5t-93.5 47.5q-50 -20 -99.5 -29.5t-109.5 -9.5q-12 0 -26 2t-26 7t-20 15t-8 25q0 19 19 32t45.5 21.5t54.5 12
t47 3.5q58 0 110.5 -9t103.5 -17q66 26 135 68t126 96t93 118.5t36 133.5q0 103 -36.5 149.5t-111.5 46.5q-37 0 -71 -16.5t-60.5 -45t-42.5 -65t-16 -77.5q0 -26 7.5 -52.5t23 -47.5t38 -34.5t52.5 -13.5q32 0 55.5 12t41 30.5t29.5 41.5t20 44zM26 50q0 -14 12.5 -28
t45.5 -14q29 0 69 8.5t75 22.5q-15 9 -32 19.5t-35 19.5t-36.5 14.5t-36.5 5.5q-29 0 -45.5 -13.5t-16.5 -34.5z" />
    <glyph glyph-name="R" unicode="R" horiz-adv-x="1000" 
d="M497 573q2 -19 4.5 -38.5t2.5 -45.5q0 -60 -21 -107t-55 -80t-77 -50.5t-87 -17.5q-36 0 -65 11.5t-49.5 31t-32 45.5t-11.5 55q0 62 29.5 112.5t77.5 90t109 68.5t124 47.5t123 27.5t106 9q61 0 109.5 -6t83.5 -14q26 8 47 13t41.5 7t40.5 3t43 1l2 -12q-54 0 -82 -7
t-46 -18q27 -12 50 -26.5t39.5 -33t25.5 -42.5t9 -55q0 -53 -28 -87.5t-70.5 -54.5t-93 -28.5t-95.5 -9.5v-2q21 -9 40.5 -21t34 -28.5t23.5 -38t9 -49.5q0 -22 -7 -46t-16 -46.5t-16 -43t-7 -36.5q0 -15 8.5 -23t20.5 -8q18 0 42.5 14t50.5 35.5t52.5 49t50 54.5t42 51.5
t28.5 39.5l8 -4q-32 -43 -71 -92t-82.5 -89.5t-89.5 -67.5t-92 -27q-51 0 -77.5 27t-26.5 75q0 30 12.5 59t27.5 57t27.5 54t12.5 49q0 29 -16.5 43t-41.5 14h-11l3 12q49 0 85 8.5t73 41.5q28 25 46 65.5t18 83.5q0 24 -12.5 49t-33.5 42q-34 -31 -63.5 -68t-57 -80.5
t-55.5 -95t-60 -110.5q-48 -88 -100.5 -149t-109.5 -99t-117.5 -55t-124.5 -17q-76 0 -124 30t-48 91q0 31 19 53.5t52 22.5q29 0 46 -15t17 -44q0 -17 -8 -31t-28 -22q-2 -8 -2 -10q0 -32 22 -47.5t56 -15.5q42 0 79.5 20t70.5 52.5t62 74t53.5 84t45 82t37.5 68.5
q33 61 62 103t61.5 75.5t73 63t96.5 65.5q-32 17 -74 23.5t-77 6.5q-46 0 -97 -9.5t-100.5 -28.5t-94 -47t-79 -65t-55 -82.5t-22.5 -99.5q0 -21 5 -41.5t15.5 -37t27.5 -27.5t41 -12q46 1 80 22.5t56.5 54t33.5 71t11 72.5q0 24 -2 44.5t-4 37.5z" />
    <glyph glyph-name="S" unicode="S" horiz-adv-x="704" 
d="M833 615q0 38 -18.5 64.5t-59.5 26.5q-38 0 -62 -28.5t-38 -77.5t-19.5 -114.5t-5.5 -140.5q0 -85 -23.5 -152t-69 -113.5t-112 -71t-152.5 -24.5q-47 0 -90 12t-76 35t-53 57t-20 79q0 19 4.5 39t14.5 36.5t26 27t38 10.5q28 0 46.5 -17.5t18.5 -44.5t-15 -45.5
t-43 -20.5q-3 -11 -3.5 -19t-0.5 -17q0 -19 9.5 -40.5t28 -39.5t46.5 -29.5t65 -10.5q52 1 89 18t62.5 45.5t41 66t24 79t11.5 85t3 83.5q0 71 16.5 134.5t52 111t91 75.5t134.5 28q27 0 54.5 -6t50 -19.5t36.5 -35t14 -52.5q0 -32 -16.5 -51.5t-41.5 -30t-54 -14t-54 -3.5
q24 21 37 47t13 58z" />
    <glyph glyph-name="T" unicode="T" horiz-adv-x="889" 
d="M595 536q6 -14 10.5 -37.5t4.5 -38.5q0 -50 -22.5 -92t-58.5 -72t-82 -47t-93 -17q-31 0 -62 10t-56 30t-40.5 50t-15.5 70q0 73 52 133.5t145 104t223 68t286 24.5q42 0 86 -1.5t85.5 -3t78.5 -3t65 -2.5q50 -2 72 -12t22 -40q0 -29 -28.5 -42.5t-89.5 -13.5
q-31 0 -56.5 2.5t-51.5 5.5q-44 -12 -81.5 -34t-71 -56t-64.5 -81.5t-63 -110.5q-38 -76 -84 -139.5t-104 -109.5t-129 -71.5t-160 -25.5q-39 0 -73.5 8.5t-60.5 25t-41 41.5t-15 57q0 15 6 28.5t15.5 24t23 17t28.5 6.5q26 0 44.5 -15.5t18.5 -42.5q0 -23 -11.5 -39
t-32.5 -23q6 -41 33.5 -58.5t65.5 -17.5q45 0 82 16t68.5 44t59 65.5t52.5 79.5t49.5 86.5t50.5 87.5q32 52 71 90.5t84 67t95 48t103 33.5v2q-24 1 -52 3t-64.5 4t-83 3.5t-108.5 -0.5q-31 0 -82 -2.5t-109 -11.5t-117.5 -24.5t-107.5 -41.5t-78 -63.5t-30 -90.5
q0 -30 15 -50.5t38.5 -34t53 -19.5t59.5 -6q42 0 84 15t75.5 40t55 57.5t21.5 67.5q0 17 -3.5 35.5t-10.5 35.5z" />
    <glyph glyph-name="U" unicode="U" horiz-adv-x="944" 
d="M1066 692q-16 -25 -50 -76t-75.5 -114t-85 -133t-79.5 -133.5t-59 -114t-23 -76.5q0 -43 36 -43q15 0 35.5 7t44 20t48 31t47.5 40q24 23 46 46.5t41.5 45.5t35.5 41t26 32l7 -7q-35 -42 -77 -91.5t-90 -92t-101.5 -70.5t-111.5 -28q-50 0 -76.5 27.5t-26.5 72.5
q0 26 8.5 52t21.5 49l-2 2q-30 -34 -63.5 -67.5t-71.5 -60t-80.5 -43t-90.5 -16.5q-42 0 -65 23t-23 68q0 39 21 85.5t52 96t68 101t68 100.5t52 94t21 82q0 30 -18 47t-48 17q-44 0 -84 -21t-71 -55t-49 -75.5t-18 -82.5q0 -34 12.5 -59t51.5 -25q19 0 35.5 9t30.5 23
t24.5 30t17.5 31l9 -2q-3 -7 -5.5 -13t-7.5 -14q-23 -38 -55 -64t-83 -26q-46 0 -68 28t-22 70q0 55 30 103t76 83t101.5 55.5t106.5 20.5q68 0 109 -28t41 -88q0 -30 -21 -74.5t-52 -96t-68 -106t-68 -104t-52 -91t-21 -66.5q0 -21 9.5 -33.5t27.5 -12.5q31 0 82.5 32
t116.5 99q21 22 51 61.5t64 89t69.5 104t68 107t59 97.5t42.5 74z" />
    <glyph glyph-name="V" unicode="V" horiz-adv-x="722" 
d="M176 -16q40 36 62.5 85.5t39 107.5t33.5 121t47 127t80 126.5t131 117.5l-2 2q-41 -15 -87.5 -28.5t-92 -28t-88 -32t-74.5 -41t-51.5 -54t-19.5 -72.5q0 -24 16 -44.5t45 -20.5q20 0 34.5 11t24 26t14 31.5t4.5 27.5q0 13 -2.5 26.5t-5.5 24.5l10 4q5 -12 7.5 -24.5
t2.5 -27.5q0 -24 -8 -47t-24 -40t-40.5 -27.5t-57.5 -10.5q-39 0 -66.5 27t-27.5 67q0 41 19.5 71.5t52 53.5t74 39.5t86.5 29.5t90 23.5t83 21.5q31 9 53 16t39 14t31 13.5t28 13.5l7 -6q-46 -31 -74.5 -76t-48.5 -98.5t-36.5 -114t-38 -123t-52.5 -124t-81 -118.5l2 -2
q61 31 123 67.5t118.5 78t105.5 88t85 97.5t56.5 106.5t20.5 114.5q-8 6 -15 18t-7 29q0 28 19.5 45.5t46.5 17.5q41 0 58.5 -28.5t17.5 -64.5q0 -52 -30 -108t-80 -111.5t-116.5 -108.5t-138.5 -99q-81 -52 -144.5 -88t-111 -61.5t-80.5 -43t-54 -31.5z" />
    <glyph glyph-name="W" unicode="W" horiz-adv-x="1000" 
d="M624 706q-43 -28 -72 -71.5t-51.5 -96.5t-41.5 -113.5t-42.5 -122t-55 -121.5t-78.5 -113l2 -2q72 42 129 87.5t107 101t95.5 123.5t94.5 154q27 48 61 82.5t65 56.5t55.5 32.5t33.5 10.5q11 0 16 -7t5 -15q0 -14 -14 -26t-32 -22t-35 -19t-24 -18q-15 -20 -28 -59
t-27.5 -90t-31 -109t-38 -115t-49 -109.5t-64.5 -91.5l2 -2q51 28 108 62t113 74.5t107 88.5t89.5 103t61.5 117.5t23 133.5q-11 8 -17.5 20.5t-6.5 32.5q0 23 17.5 41t40.5 18q18 0 32 -8t23.5 -21t14 -29.5t4.5 -33.5q0 -55 -24.5 -110t-64.5 -107t-92 -100t-107.5 -90.5
t-109.5 -78t-98.5 -61.5t-75.5 -42.5t-40 -21.5q-31 -16 -45 -23t-22 -12l-21 12q24 27 40 79t30.5 113.5t31.5 124.5t43 110l-2 2q-64 -105 -126.5 -173.5t-115 -110.5t-89 -61.5t-47.5 -27.5q-5 -4 -16.5 -15t-26 -23t-30 -21t-28.5 -9q-9 0 -13 5t-4 12q0 8 5 12.5
t12.5 9.5t15.5 12t13 18q27 56 43 112.5t31 111.5t33 109t48.5 105.5t77.5 100.5t120 94l-2 2l-189 -58q-110 -34 -172.5 -81t-62.5 -110q0 -27 17 -50t49 -23q20 0 34 7.5t23 19.5t13 26.5t4 27.5q0 12 -1 23.5t-4 23.5h10q3 -11 5 -22.5t2 -24.5q0 -55 -37 -86t-92 -31
q-21 0 -39 8.5t-31 22.5t-20 32.5t-7 38.5q0 39 21 69.5t54.5 54t76.5 41t87.5 31t85.5 23.5t72 19q58 17 95.5 28.5t61.5 23.5z" />
    <glyph glyph-name="X" unicode="X" horiz-adv-x="926" 
d="M554 493q0 -44 -16.5 -85.5t-45.5 -73.5t-68 -51t-85 -19q-31 0 -55 12t-41 32t-26 46.5t-9 55.5q0 60 30.5 116.5t81.5 100t118.5 69.5t141.5 26q51 0 85.5 -15.5t55 -43t29.5 -64.5t9 -80q35 35 76 70t87.5 62.5t98.5 45t109 17.5q20 0 38.5 -2.5t33.5 -10t24 -21
t9 -34.5q0 -29 -21.5 -45.5t-48.5 -16.5q-17 0 -35.5 8t-30.5 20q5 7 10.5 17.5t5.5 21.5q0 20 -13.5 31.5t-36.5 11.5q-36 0 -81 -25t-91.5 -67t-91.5 -97.5t-79.5 -117.5t-56 -126.5t-21.5 -123.5q0 -56 14.5 -91.5t56.5 -35.5q32 0 65 15.5t65.5 39.5t62 54t54.5 59.5
t44 54.5t29 40l7 -7q-24 -31 -59.5 -79t-84 -93t-110 -77.5t-136.5 -32.5q-36 0 -60.5 13.5t-39.5 35.5t-21.5 50.5t-6.5 58.5q0 11 1.5 21.5t3.5 21.5h-2q-35 -39 -76.5 -75t-88.5 -64t-98.5 -45t-106.5 -17q-65 0 -103 27t-38 79q0 32 18.5 53t51.5 21q24 0 42 -15t18 -41
q0 -17 -10 -31.5t-26 -19.5q2 -23 19 -40t52 -17q56 0 111.5 28.5t106.5 75.5t95 107t76 123t50.5 124.5t18.5 110.5q0 27 -6.5 51t-20 42t-35.5 29t-53 11q-49 0 -90.5 -22t-71.5 -57.5t-47 -81t-17 -92.5q0 -24 5.5 -48.5t18 -44t32.5 -32t48 -12.5q32 0 58 17.5t44 44.5
t28 59t10 60h12z" />
    <glyph glyph-name="Y" unicode="Y" horiz-adv-x="852" 
d="M1088 686q-53 -75 -109.5 -163.5t-116.5 -183.5t-123 -193.5t-128 -194.5q-46 -69 -101.5 -118.5t-114.5 -81t-118 -46.5t-113 -15q-49 0 -91 9t-73 27t-48.5 45.5t-17.5 65.5q0 31 14.5 55.5t37.5 40.5t51 24.5t55 8.5q28 0 55 -6t53 -15l-2 -9q-11 4 -23.5 7t-26.5 3
q-19 0 -36.5 -9.5t-30 -26t-20 -37.5t-7.5 -45q0 -61 31.5 -93.5t78.5 -32.5q67 0 124 40t112 106.5t111 154t120 181.5l-2 2q-30 -34 -63.5 -68.5t-72.5 -63t-83.5 -46.5t-96.5 -18q-46 0 -67.5 24.5t-21.5 62.5q0 37 21.5 83t54 97t70.5 103.5t70.5 102.5t54 95t21.5 80
q0 27 -17.5 47.5t-56.5 20.5q-30 0 -68 -18t-71.5 -50t-56 -76.5t-22.5 -97.5q0 -34 13.5 -56t42.5 -22q42 0 69 27.5t46 64.5l8 -3q-7 -15 -19.5 -34.5t-31 -37.5t-42.5 -30.5t-54 -12.5q-90 0 -90 94q0 50 27.5 98t72 85.5t101 61t113.5 23.5q31 0 58 -6.5t47 -20.5
t31.5 -36.5t11.5 -55.5q0 -29 -12.5 -61t-30.5 -63.5t-38.5 -61.5t-37.5 -56q-10 -15 -26 -38t-34 -50.5t-37 -57.5t-34 -58.5t-24.5 -54t-9.5 -44.5q0 -38 37 -38q30 0 71 23t86.5 64.5t92 98t88.5 123.5l218 351z" />
    <glyph glyph-name="Z" unicode="Z" horiz-adv-x="722" 
d="M150 100q32 17 67.5 28.5t73.5 11.5q42 0 81 -10t76 -22t72.5 -22t69.5 -10q41 0 75.5 18t64.5 46t54.5 61.5t45.5 64.5l8 -5q-31 -49 -71.5 -98t-88.5 -89t-103.5 -65t-117.5 -25q-40 0 -74 15.5t-68 34.5q-33 19 -68 34.5t-77 15.5q-34 0 -57 -15.5t-40 -34.5
t-29.5 -34.5t-26.5 -15.5q-18 0 -18 15q0 7 7 14t23 17.5t41 27.5t61 44q29 21 91 75.5t149 126.5t194.5 155.5t227.5 162.5l-2 2q-48 -28 -100 -46t-109 -18q-42 0 -80 8t-72 19t-63 19t-54 8q-24 0 -45.5 -7.5t-38 -22.5t-26 -37t-9.5 -51q0 -38 26.5 -63t72.5 -25
q36 0 68.5 17t53.5 46l8 -4q-26 -37 -62.5 -56t-68.5 -19q-28 0 -49 8.5t-34.5 22.5t-20 32.5t-6.5 39.5q0 42 20 80.5t52 67.5t73 46t83 17q50 0 90.5 -11.5t77.5 -25.5q36 -14 70.5 -25.5t72.5 -11.5q56 0 86.5 14t48 31t28 31t25.5 14q7 0 12 -4.5t5 -15.5q0 -9 -4.5 -14
t-13.5 -9.5t-23 -11t-33 -18.5q-16 -10 -55.5 -42.5t-95 -79t-123 -102.5t-140 -113.5t-147 -112t-143.5 -97.5z" />
    <glyph glyph-name="bracketleft" unicode="[" horiz-adv-x="389" 
d="M-161 -318l596 1034h279l-15 -30h-183l-560 -974h185l-16 -30h-286z" />
    <glyph glyph-name="backslash" unicode="\" horiz-adv-x="338" 
d="M0 704h29l307 -710h-29z" />
    <glyph glyph-name="bracketright" unicode="]" horiz-adv-x="389" 
d="M563 716l-596 -1034h-279l15 30h183l560 974h-185l16 30h286z" />
    <glyph glyph-name="asciicircum" unicode="^" horiz-adv-x="600" 
d="M93 175l183 365h72l183 -365h-72l-147 295l-147 -295h-72z" />
    <glyph glyph-name="underscore" unicode="_" horiz-adv-x="500" 
d="M0 -125v50h500v-50h-500z" />
    <glyph glyph-name="grave" unicode="`" horiz-adv-x="278" 
d="M113 561q0 17 11 26t27 9q18 0 23 -11t10.5 -28.5t17.5 -39t42 -41.5q23 -15 33 -21.5t10 -12.5q0 -12 -11 -12q-8 0 -34.5 12.5t-55 32t-51 42.5t-22.5 44z" />
    <glyph glyph-name="a" unicode="a" horiz-adv-x="556" 
d="M562 360q-11 -16 -28.5 -41t-37.5 -54t-40 -60.5t-36.5 -61.5t-27 -56t-10.5 -44q0 -29 23 -29q21 0 49.5 20t62.5 53.5t71 78.5t75 95l6 -4q-40 -51 -78 -99.5t-75.5 -86t-75 -60.5t-76.5 -23q-34 0 -52 11t-26.5 27.5t-10 34.5t-1.5 32l-3 2q-16 -19 -34.5 -38
t-40.5 -34.5t-46 -25t-51 -9.5q-48 0 -72.5 28.5t-24.5 91.5q0 44 22 90.5t62.5 85t96.5 63.5t123 25q39 0 59.5 -19.5t26.5 -48.5h2l26 52zM165 32q21 0 54 27t65 69t55 91.5t23 94.5q0 23 -13.5 34.5t-30.5 11.5q-21 0 -42.5 -14t-42 -37.5t-39 -53t-32.5 -60t-22 -60.5
t-8 -53q0 -17 6.5 -33.5t26.5 -16.5z" />
    <glyph glyph-name="b" unicode="b" 
d="M484 706q-80 -130 -139 -226.5t-101.5 -165.5t-69 -115.5t-42 -77t-20.5 -50t-4 -34.5q3 -37 39 -37q37 0 72.5 27t65 67.5t51 86.5t30.5 85q-2 8 -4 16.5t-2 18.5q0 26 17 48.5t49 22.5q29 0 46.5 -20t17.5 -58q0 -9 -1.5 -23t-5.5 -29q11 -11 27.5 -20.5t42.5 -9.5
q31 0 53 17t38 36l6 -8q-7 -9 -16.5 -19t-21.5 -18.5t-27 -14t-34 -5.5q-22 0 -40.5 9t-29.5 21q-16 -52 -49.5 -96.5t-78 -77t-97 -50.5t-106.5 -18q-64 0 -101 34t-37 95q0 17 6 37.5t20.5 49.5t39 70t60.5 99.5t85.5 138t114.5 184.5z" />
    <glyph glyph-name="c" unicode="c" horiz-adv-x="426" 
d="M544 259q-39 -50 -79.5 -97.5t-93.5 -90.5q-48 -39 -100.5 -61t-119.5 -22q-27 0 -53 7t-46 21t-32 36t-12 52q0 59 30 108t76.5 84.5t102 55.5t106.5 20q48 0 78 -16.5t30 -49.5q0 -21 -9 -36.5t-24.5 -26t-35.5 -15.5t-42 -5h-8q2 11 2.5 24.5t0.5 33.5q0 35 -6 53
t-25 18q-21 0 -46 -24t-47.5 -59.5t-37.5 -77t-15 -76.5q0 -43 21.5 -70t64.5 -27q45 0 94 31t101 82q34 33 65.5 71.5t51.5 63.5z" />
    <glyph glyph-name="d" unicode="d" horiz-adv-x="556" 
d="M754 706q-84 -140 -144.5 -240.5t-102.5 -171t-67 -115t-38.5 -71.5t-18 -41.5t-4.5 -25.5q0 -12 6.5 -19.5t20.5 -7.5q17 0 48 20t63 52q50 50 86.5 99t56.5 77l9 -5q-23 -33 -62.5 -85.5t-92.5 -104.5q-43 -42 -79 -60.5t-74 -18.5q-39 0 -61.5 24t-22.5 60q0 11 5 24
l-2 2q-35 -45 -80.5 -77.5t-107.5 -32.5q-47 0 -70 31t-23 73q0 58 28.5 109t73.5 89t100.5 60t109.5 22q32 0 52 -19t27 -48l220 391zM360 309q0 23 -8.5 37t-31.5 14q-30 0 -63.5 -30t-62 -73t-47 -90.5t-18.5 -82.5q0 -23 8 -37.5t27 -14.5q24 0 47.5 15t45.5 39.5
t40.5 55.5t32.5 61.5t22 58.5t8 47z" />
    <glyph glyph-name="e" unicode="e" horiz-adv-x="426" 
d="M544 257q-23 -33 -51.5 -66.5t-64.5 -68.5q-69 -66 -134 -100t-145 -34q-69 0 -105 32t-36 93q0 53 30 100t75.5 82t99 56t101.5 21t79 -15.5t31 -50.5t-34 -61t-80.5 -44.5t-93.5 -30t-74 -17.5q-2 -10 -3 -20t-1 -20q0 -18 4 -35.5t13.5 -30.5t25 -21t38.5 -8
q47 0 101 34.5t109 86.5q35 34 61.5 66t44.5 58zM324 332q0 28 -28 28q-22 0 -47.5 -22.5t-47 -54t-37.5 -64.5t-20 -55q42 9 75.5 27.5t57 41.5t35.5 49t12 50z" />
    <glyph glyph-name="f" unicode="f" horiz-adv-x="278" 
d="M125 352q32 59 73 120.5t93 111t116 81t141 31.5q59 0 97.5 -23t38.5 -76q0 -22 -10 -38.5t-26 -27.5t-35.5 -17t-38.5 -6q-11 0 -24 2t-23 8q23 24 36 48.5t13 50.5q0 24 -11 43.5t-39 19.5t-60.5 -25t-68 -69t-72.5 -104t-75 -130h240l-9 -16h-239q-35 -68 -72.5 -144
t-80 -149t-92.5 -139.5t-112.5 -117t-138 -80.5t-169.5 -30q-31 0 -64 9t-60.5 27t-45 45.5t-17.5 63.5q0 40 17 66.5t44 42t60 22t65 6.5q18 0 30.5 -3t23.5 -5v-8q-54 0 -87 -32t-33 -86q0 -26 7 -50t21 -42t35 -29t49 -11q53 0 100.5 31.5t90 83t81.5 119t76.5 139
t73.5 142t73 129.5h-83l8 16h83z" />
    <glyph glyph-name="g" unicode="g" 
d="M-14 93q0 52 26.5 102t69 89.5t95.5 63.5t107 24q32 0 56.5 -11.5t41.5 -47.5l24 47l139 6q-52 -89 -103.5 -174.5t-102.5 -172.5q46 16 88.5 42.5t80.5 59t72.5 69.5t64.5 74l7 -7q-30 -38 -67 -77t-78 -73t-85.5 -61t-91.5 -41q-38 -77 -90 -138t-112.5 -103.5
t-126.5 -65t-133 -22.5q-41 0 -81 8t-71.5 25.5t-51 45t-19.5 67.5q0 26 10.5 48.5t32.5 39.5t57 26.5t84 9.5h64v-12h-22q-48 0 -77 -28t-29 -87q0 -27 8 -51t23.5 -41.5t37 -28t48.5 -10.5q61 0 116.5 45t104.5 117l153 223l-2 2q-35 -41 -80.5 -64t-93.5 -23
q-45 0 -69.5 29.5t-24.5 75.5zM116 78q0 -19 6.5 -34.5t29.5 -15.5q21 0 44 14.5t45 38t42 53.5t34.5 61.5t23.5 61t9 52.5q0 24 -12.5 37.5t-32.5 13.5q-21 0 -43 -14t-43 -36.5t-40 -52t-33 -61t-22 -62t-8 -56.5z" />
    <glyph glyph-name="h" unicode="h" 
d="M-77 0q103 174 203 347.5t203 348.5l143 10q-83 -139 -167.5 -280t-169.5 -269l2 -2q23 31 53.5 68.5t66.5 70.5t76 55.5t80 22.5q33 0 57.5 -17.5t24.5 -58.5q0 -36 -20.5 -72.5t-45.5 -70t-45.5 -63.5t-20.5 -52q0 -11 5.5 -17.5t16.5 -6.5q20 0 45.5 16.5t52 41.5
t52.5 55.5t48 58t38 49t23 29.5l6 -5q-17 -21 -37.5 -49t-45 -58.5t-51.5 -59.5t-55.5 -52.5t-59 -37.5t-61.5 -14q-19 0 -34 7.5t-25 20t-15 29t-5 33.5q0 38 19 71t41.5 62.5t41 55t18.5 46.5q0 25 -23 25q-18 0 -43.5 -16.5t-54 -44t-58 -62.5t-56.5 -72t-49.5 -72.5
t-36.5 -64.5z" />
    <glyph glyph-name="i" unicode="i" horiz-adv-x="278" 
d="M275 360q-32 -51 -63 -99t-55 -89.5t-38.5 -73.5t-14.5 -51q0 -14 5 -23.5t18 -9.5q20 0 43.5 14.5t48.5 37t50 51t47 56t39.5 52t28.5 39.5l8 -3q-24 -34 -60 -82.5t-81 -94.5q-46 -47 -85 -71.5t-87 -24.5q-41 0 -62 23.5t-21 65.5q0 45 38.5 112.5t97.5 166.5z
M224 516q0 29 20.5 49.5t49.5 20.5t49.5 -20.5t20.5 -49.5t-20.5 -49.5t-49.5 -20.5t-49.5 20.5t-20.5 49.5z" />
    <glyph glyph-name="j" unicode="j" horiz-adv-x="278" 
d="M272 360q-52 -87 -102 -173t-102 -168l2 -2q49 16 92 42t81.5 58.5t73.5 69.5t69 76l8 -5q-75 -91 -158 -160.5t-180 -98.5q-28 -51 -67 -107.5t-95 -104.5t-131 -79.5t-175 -31.5q-34 0 -71.5 7t-68.5 24t-51.5 45t-20.5 70q0 33 17 57.5t43.5 40.5t57.5 24t59 8
q23 0 43.5 -3.5t28.5 -6.5v-8q-5 1 -12.5 1.5t-14.5 0.5q-47 0 -74.5 -31.5t-27.5 -76.5q0 -28 8 -52.5t23 -43t37.5 -29.5t51.5 -11q49 0 98 36t96 94t92 131t86 146.5t77.5 141.5t67.5 115zM294 586q29 0 49.5 -20.5t20.5 -49.5t-20.5 -49.5t-49.5 -20.5t-49.5 20.5
t-20.5 49.5t20.5 49.5t49.5 20.5z" />
    <glyph glyph-name="k" unicode="k" 
d="M-81 0q103 174 204.5 347t204.5 349l144 10q-84 -141 -167.5 -279t-169.5 -271l2 -2l58.5 71.5t66.5 71t74 54t82 21.5q17 0 33 -3.5t28 -12t19.5 -21.5t7.5 -32q0 -33 -24 -53.5t-56.5 -32t-66.5 -16.5t-54 -7v-2l30 -12t27 -14.5t20 -21t8 -30.5q0 -10 -3.5 -21
t-8 -21.5t-8 -20.5t-3.5 -18q0 -19 17 -19t39 13.5t47 35t50.5 48.5t48.5 55t42 53.5t31 43.5l9 -4q-24 -35 -60 -81.5t-80 -90.5q-30 -30 -54 -49t-46 -30t-42.5 -15.5t-42.5 -4.5q-42 0 -68.5 18t-26.5 55q0 21 7.5 36.5t16.5 29.5t16.5 28.5t7.5 32.5q-13 -5 -27 -9
t-28 -4q-7 0 -12 3t-5 11q0 16 24 16q16 0 28 -2.5t21 -2.5q15 0 30.5 9.5t29 24t22 32.5t8.5 35q0 12 -7 20.5t-20 8.5q-18 0 -43.5 -18t-54 -47t-57.5 -65t-54.5 -72t-45.5 -68.5t-31 -53.5z" />
    <glyph glyph-name="l" unicode="l" horiz-adv-x="278" 
d="M476 706q-100 -166 -171 -281t-116.5 -192.5t-67 -123t-21.5 -72.5q0 -11 6.5 -17t14.5 -6q23 0 58 25.5t72.5 63.5t72.5 81.5t58 79.5l8 -4q-7 -10 -23 -34t-40 -54.5t-53.5 -62.5t-62 -59t-67 -44.5t-68.5 -17.5q-42 0 -63 21t-21 53q0 22 7 46.5t22.5 58t41 79
t63 108.5t88 147t115.5 195z" />
    <glyph glyph-name="m" unicode="m" horiz-adv-x="796" 
d="M193 0q6 10 21.5 34.5t35 56t41 66.5t39 66.5t29 55.5t11.5 34q0 25 -26 25q-16 0 -40.5 -18t-53.5 -47.5t-60 -66t-58.5 -73.5t-49.5 -70.5t-34 -56.5l-135 -6q48 89 105 179.5t103 176.5l144 4l-133 -195l2 -2q21 26 49 62t62.5 68.5t75 55.5t84.5 23q35 0 57 -18.5
t22 -54.5q0 -22 -5 -37.5t-14 -32.5l2 -2l40.5 45t48.5 47.5t55 37.5t60 15q35 0 59 -19.5t24 -56.5q0 -35 -21 -71.5t-46 -70.5t-46 -63.5t-21 -50.5q0 -11 6.5 -18.5t19.5 -7.5q20 0 43.5 14.5t48 37t49 51t46.5 56t40 51t29 37.5l7 -6q-26 -34 -62 -82t-77 -91
q-38 -41 -79 -67.5t-88 -26.5q-22 0 -38.5 7.5t-26.5 20t-15 27.5t-5 30q0 36 20 71.5t44 67t44 57.5t20 43q0 13 -7.5 19.5t-17.5 6.5q-16 0 -40 -18.5t-52.5 -47.5t-58.5 -66t-56.5 -74t-48 -70t-33.5 -56z" />
    <glyph glyph-name="n" unicode="n" 
d="M-77 0l207 354l142 6q-72 -100 -138 -204l2 -2q26 33 58 71t67.5 70.5t73 54.5t74.5 22q38 0 63.5 -19.5t25.5 -59.5q0 -33 -20.5 -68t-45.5 -68.5t-45.5 -64t-20.5 -53.5q0 -10 5.5 -17.5t17.5 -7.5q22 0 50 20.5t58 50.5q23 23 46 49.5t43 51t36 45t25 32.5l9 -5
q-34 -45 -72.5 -93t-77.5 -88q-41 -42 -79.5 -65.5t-78.5 -23.5q-45 0 -67.5 26.5t-22.5 68.5q0 36 19.5 68.5t43.5 61t43.5 52.5t19.5 45q0 28 -27 28q-18 0 -44 -18.5t-56 -48.5t-61 -67t-58.5 -74t-48 -70t-30.5 -54z" />
    <glyph glyph-name="o" unicode="o" 
d="M653 257q-4 -4 -13 -13.5t-22.5 -19t-30.5 -17t-37 -7.5q-26 0 -46.5 12.5t-37.5 33.5h-2q0 -52 -24.5 -99t-65 -82.5t-92.5 -56t-108 -20.5q-33 0 -64 7t-55 23t-38.5 42t-14.5 64q0 57 27 103t69.5 78.5t96 49.5t105.5 17q43 0 71 -12t47.5 -29.5t33 -38.5t27 -38.5
t30 -29.5t41.5 -12q23 0 47.5 13.5t47.5 39.5zM316 360q-24 0 -48.5 -16.5t-47.5 -43t-43 -60t-35 -67.5t-23.5 -66t-8.5 -56q0 -23 10.5 -37t29.5 -14q24 0 48.5 16.5t47.5 43t43 60t35 67.5t23.5 66.5t8.5 55.5t-10.5 37t-29.5 14z" />
    <glyph glyph-name="p" unicode="p" 
d="M396 562l-250 -373l2 -2q21 27 46 59t55 60t64 47t72 19q22 0 40 -9t31 -24t20.5 -34.5t7.5 -40.5q0 -51 -21.5 -90.5t-48.5 -67.5v-2q71 20 127.5 61.5t102.5 100.5l8 -5q-47 -66 -112 -110.5t-139 -61.5q-24 -21 -53.5 -39t-59.5 -32t-58.5 -22t-51.5 -8q-10 0 -20.5 1
t-19.5 5t-14.5 11.5t-5.5 19.5q0 20 18.5 32.5t45 20t55 11t48.5 4.5q9 14 20.5 33t22.5 41.5t18.5 49t7.5 54.5q0 7 -1 16t-5 17.5t-12 14t-21 5.5q-24 0 -54.5 -29t-62 -70.5t-60.5 -86.5t-52 -78q-63 -92 -117 -188t-108 -190l-143 -6q137 217 268.5 435t266.5 441z
M166 21q0 -8 3.5 -14.5t14.5 -6.5q13 0 25.5 8.5t24 21t22.5 26.5t21 25q-22 -1 -42 -6t-35.5 -12.5t-24.5 -18t-9 -23.5z" />
    <glyph glyph-name="q" unicode="q" 
d="M552 360l-206 -337l2 -2q38 15 79 41.5t80 59t74.5 69t62.5 70.5l9 -6q-31 -41 -69 -79.5t-79.5 -71.5t-85 -60t-85.5 -45q-13 -20 -34 -55t-46.5 -78t-53 -90.5t-52.5 -93.5l-144 -6q21 32 51 82t65.5 107t74.5 115t77 106l-2 2q-18 -19 -38.5 -37t-43 -32t-47 -22.5
t-52.5 -8.5q-46 0 -72.5 26t-26.5 79q0 55 26 105.5t69 89t98.5 61.5t114.5 23q71 0 88 -64h2l18 44zM356 307q0 26 -14 39.5t-33 13.5q-34 0 -68 -31.5t-61 -75.5t-43.5 -90t-16.5 -76q0 -28 8.5 -44.5t29.5 -16.5q16 0 36.5 13.5t42.5 36t43.5 51.5t38 60.5t27 62.5
t10.5 57z" />
    <glyph glyph-name="r" unicode="r" horiz-adv-x="463" 
d="M-75 0l202 356l144 4l-153 -226l2 -2q55 79 102.5 127t83.5 63q14 17 25 27t28.5 16t47 8.5t80.5 4.5q-12 -12 -24 -27t-22 -32t-16.5 -35t-6.5 -35q0 -21 10.5 -39t33.5 -18q15 0 30 6.5t29 17t26.5 23.5t22.5 25l7 -6q-7 -8 -20 -23.5t-34.5 -30.5t-53 -26.5
t-75.5 -11.5q-24 0 -44 7.5t-33.5 19.5t-21 28t-7.5 34q0 30 8 47v2q-30 -16 -65.5 -53t-69 -81.5t-61 -89t-41.5 -74.5z" />
    <glyph glyph-name="s" unicode="s" horiz-adv-x="407" 
d="M523 258q-37 -55 -78.5 -104t-92.5 -86t-114 -58.5t-144 -21.5q-30 0 -56.5 6t-45.5 19t-30 33.5t-11 48.5q0 37 23.5 58.5t54.5 21.5q21 0 36 -12t15 -36q0 -22 -13 -33t-29 -11q-12 0 -20 3q-5 -8 -5 -19q0 -32 17 -49.5t50 -17.5q43 0 64 25t21 60q0 21 -13 41
t-28.5 40.5t-28.5 41t-13 41.5q0 24 11 46t32.5 39.5t52.5 27.5t71 10q58 0 94.5 -19.5t36.5 -56.5q0 -28 -19 -45.5t-45 -17.5q-23 0 -43 12q7 11 11 23t4 27q0 25 -11.5 45t-37.5 20q-23 0 -36 -16t-13 -42q0 -25 15 -46.5t32.5 -42.5t32.5 -44t15 -52q0 -34 -15.5 -57.5
t-47.5 -41.5l2 -2q43 12 84.5 37.5t79.5 59.5t70.5 73.5t57.5 79.5z" />
    <glyph glyph-name="t" unicode="t" horiz-adv-x="333" 
d="M42 336l7 16h83l85 145l139 5l-90 -150h137l-8 -16h-138q-14 -24 -38.5 -63t-48.5 -81t-42 -81t-18 -64q0 -17 9.5 -25t26.5 -8q26 0 55 14.5t58.5 37.5t57 51.5t52 56.5t44.5 52.5t32 39.5l8 -4q-34 -40 -72 -88t-82 -89.5t-95 -69t-111 -27.5q-46 0 -68.5 24.5
t-22.5 63.5q0 20 5.5 39.5t19.5 48t37 69.5t59 103h-81z" />
    <glyph glyph-name="u" unicode="u" 
d="M265 368l-35 -54q-48 -72 -77 -117.5t-45 -74t-21 -44t-5 -27.5q0 -13 7.5 -21t19.5 -8q20 0 51.5 22.5t69 65.5t79.5 105t83 141l145 4q-9 -15 -25.5 -40t-37 -54.5t-42 -62.5t-39 -63.5t-28.5 -57t-11 -43.5q0 -14 6 -19.5t16 -5.5q17 0 39.5 14t48 36.5t52 50.5t50 56
t43.5 53t32 41l9 -8q-17 -20 -39 -47.5t-47.5 -57.5t-54 -59.5t-58.5 -52.5t-60.5 -37.5t-60.5 -14.5q-22 0 -38 7t-26 19t-15 27.5t-5 31.5q0 12 3 24t6 20l-2 2q-22 -25 -45 -48.5t-48 -42t-51 -29.5t-53 -11q-42 0 -62 24.5t-20 62.5q0 20 9 45.5t23 53.5t31.5 57
t33.5 54.5t29.5 46t20.5 32.5z" />
    <glyph glyph-name="v" unicode="v" 
d="M272 360q-15 -27 -43 -68.5t-56 -85.5t-48.5 -87t-20.5 -73q0 -20 10 -33t31 -13q31 0 63 23t61 60t52.5 84t37.5 95q-4 9 -5.5 20t-1.5 22q0 26 16 47t43 21q38 0 54.5 -22.5t16.5 -59.5q0 -25 -6 -48q18 -18 36.5 -24t35.5 -6q33 0 57 17t41 39l9 -6q-7 -10 -18 -21
t-24.5 -20t-29.5 -15t-35 -6q-41 0 -75 28q-14 -52 -48.5 -96.5t-80.5 -76t-99.5 -49.5t-106.5 -18q-61 0 -93.5 33t-32.5 89q0 25 9 51.5t25 56.5t37.5 64.5t46.5 73.5z" />
    <glyph glyph-name="w" unicode="w" horiz-adv-x="778" 
d="M533 360q-9 -14 -26 -38.5t-37.5 -54.5t-41.5 -63.5t-38.5 -64.5t-28.5 -58t-11 -44q0 -37 38 -37q28 0 54.5 16t50 41t43 56t34.5 60t23.5 53t10.5 36q-1 9 -4.5 19.5t-3.5 24.5q0 25 16 45.5t43 20.5q38 0 56.5 -22t18.5 -58q0 -16 -2 -29t-6 -27q36 -28 70 -28
q17 0 30.5 5t24.5 12.5t19.5 16.5t15.5 17l6 -9q-14 -19 -39 -36.5t-56 -17.5q-23 0 -41 8t-33 19q-16 -48 -51.5 -90.5t-81.5 -75t-98 -51t-100 -18.5q-57 0 -93.5 21t-36.5 75q0 10 2.5 21t4.5 19l-2 1q-16 -22 -35.5 -46t-43 -44t-51 -33.5t-59.5 -13.5q-42 0 -66 27.5
t-24 69.5q0 22 8.5 46.5t26 56t43 72l59.5 94.5l141 6q-9 -16 -26 -41t-36.5 -54t-39.5 -60.5t-36.5 -61.5t-27 -55.5t-10.5 -43.5q0 -30 27 -30q29 0 62.5 29.5t66.5 73.5q24 32 47 68t42.5 69t34.5 60t24 41z" />
    <glyph glyph-name="x" unicode="x" horiz-adv-x="556" 
d="M670 259q-28 -38 -64.5 -85t-80 -88.5t-93.5 -69.5t-106 -28q-57 0 -81.5 24.5t-26.5 72.5l-2 2q-14 -21 -36.5 -39t-49 -31.5t-55.5 -21t-58 -7.5q-20 0 -38.5 5.5t-33 17t-23 29t-8.5 41.5q0 15 5 29t14 25t22 18t29 7q21 0 36.5 -13.5t15.5 -35.5q0 -20 -12.5 -32.5
t-29.5 -12.5h-9q-5 0 -11 2q-2 -5 -3 -11.5t-1 -12.5q0 -20 13 -32t35 -12q45 0 85.5 29.5t71.5 73t49 94.5t18 93q0 18 -9.5 29t-26.5 11q-14 0 -28 -10t-27.5 -24t-26 -29t-22.5 -26l-8 7q16 20 35 42t39.5 40t43 30t44.5 12q21 0 36.5 -8.5t26 -23t17 -32t8.5 -35.5
q39 35 81 61t93 26q38 0 58 -16t20 -42q0 -32 -20.5 -52.5t-54.5 -20.5q-11 0 -20 2t-14 6q11 15 16 37.5t5 40.5q0 17 -4.5 25t-16.5 8q-21 0 -49.5 -25t-54.5 -62.5t-44.5 -82t-18.5 -83.5q0 -35 17 -54t44 -19q24 0 50.5 12.5t53.5 33.5t53.5 47t49.5 52.5t42.5 52
t31.5 43.5z" />
    <glyph glyph-name="y" unicode="y" 
d="M276 368q-7 -15 -23 -41t-36 -57t-41 -64.5t-38.5 -64t-28.5 -55t-11 -37.5q0 -12 5 -21.5t18 -9.5q20 0 46.5 18t54.5 47t55 64.5t46 69.5l79 139l141 4q-52 -89 -104 -174t-103 -167l2 -2q31 11 72 36.5t84 60t84.5 76t72.5 84.5l8 -6q-18 -25 -51 -62t-76.5 -75.5
t-95.5 -73.5t-108 -56q-39 -72 -88 -132t-109 -102.5t-131.5 -66.5t-156.5 -24q-32 0 -67.5 8t-65 25t-48.5 44t-19 66q0 31 14.5 55t37.5 40t51.5 24t55.5 8q42 0 86 -9v-9q-6 2 -15 2h-18q-26 0 -43.5 -9.5t-28 -25t-15.5 -36.5t-5 -44q0 -60 27 -93.5t74 -33.5
q46 0 89 23.5t81.5 61t73.5 85.5t66 97.5t58.5 96t51.5 80.5l-2 2q-19 -23 -41.5 -49t-50 -47.5t-59.5 -35.5t-69 -14q-19 0 -32.5 7t-22.5 19t-13 27.5t-4 31.5q0 37 17.5 75.5t41 76t47.5 72t38 63.5z" />
    <glyph glyph-name="z" unicode="z" horiz-adv-x="463" 
d="M139 108q6 1 12 2.5t12 1.5q21 0 43 -6.5t43.5 -14.5t41.5 -14.5t37 -6.5q39 0 73 19t63.5 48t55.5 63t49 64l8 -4q-24 -35 -61 -82t-82.5 -89t-96 -71.5t-100.5 -29.5q-31 0 -54 9.5t-42.5 20.5t-38.5 20.5t-41 9.5q-13 0 -23.5 -9.5t-19.5 -20.5t-18.5 -20.5
t-21.5 -9.5t-12 13q0 9 9 17t23.5 16t33 17.5t36.5 21.5q20 13 50 38.5t66.5 54t78 55t85.5 41.5l-2 2q-20 -5 -41 -6.5t-42 -1.5q-23 0 -40 3t-30.5 7t-24.5 7t-22 3q-10 0 -16.5 -3.5t-11 -8t-7.5 -10t-8 -9.5l-7 5q9 14 24.5 34.5t35 40t41 33.5t43.5 14q20 0 44.5 -7
t48.5 -15l45 -15t35 -7q19 0 27.5 9t13.5 20t9.5 20t15.5 9q8 0 12.5 -5t4.5 -13q0 -14 -19 -25.5t-43 -29.5q-76 -57 -144.5 -107.5t-151.5 -95.5z" />
    <glyph glyph-name="braceleft" unicode="{" horiz-adv-x="389" 
d="M10 -318q-27 0 -49.5 2.5t-39 8.5t-26 17t-10.5 28q-1 18 8 44t30 63l123 217q17 30 27.5 53t10.5 40q0 30 -34 45q28 9 49 20.5t39 28t34 38t33 50.5l124 215q31 54 65.5 86.5t71 50t74 22.5t74.5 5l-9 -16q-28 -6 -51.5 -17t-43.5 -28.5t-38 -41.5t-36 -56l-117 -203
q-18 -32 -36 -57t-37.5 -43.5t-43.5 -31.5t-54 -21l-1 -3q18 -6 27 -16.5t10 -31.5q0 -13 -11 -41t-34 -67l-118 -202q-42 -68 -40 -105q1 -28 37 -37z" />
    <glyph glyph-name="bar" unicode="|" horiz-adv-x="222" 
d="M357 712h104l-462 -712h-104z" />
    <glyph glyph-name="braceright" unicode="}" horiz-adv-x="389" 
d="M335 716q27 0 49.5 -2.5t39 -8.5t26 -17t10.5 -28q1 -18 -8 -44t-30 -63l-123 -217q-17 -30 -27.5 -53t-10.5 -40q0 -30 34 -45q-28 -9 -49 -20.5t-39 -28t-34 -38t-33 -50.5l-124 -215q-31 -54 -65.5 -86.5t-71 -50t-74 -22.5t-74.5 -5l9 16q28 6 51.5 17t43.5 28.5
t38 41.5t36 56l117 203q18 32 36 57t37.5 43.5t43.5 31.5t54 21l1 3q-18 6 -27 16.5t-10 31.5q0 13 11 41t34 67l118 202q42 68 40 105q-1 28 -37 37z" />
    <glyph glyph-name="asciitilde" unicode="~" horiz-adv-x="600" 
d="M35 153q25 28 55 51q25 20 57.5 36t67.5 16q31 0 59 -12.5t54.5 -27.5t52 -27.5t52.5 -12.5q19 0 36 7.5t31 17.5q16 11 30 26l8 -6q-27 -33 -58 -59q-26 -23 -60 -41t-71 -18q-27 0 -52.5 12t-52 26.5t-54 26.5t-59.5 12q-20 0 -35.5 -5.5t-27.5 -11.5q-14 -7 -25 -16z
" />
    <glyph glyph-name="exclamdown" unicode="&#xa1;" horiz-adv-x="407" 
d="M266 208q-17 -30 -33.5 -69t-31.5 -81t-28.5 -84t-24.5 -77q-20 -64 -42 -87.5t-52 -23.5t-50 18t-20 49q0 25 10.5 46t29 41.5t44 44t54.5 53.5q39 41 73.5 84t63.5 91zM308 220q-29 0 -49.5 20.5t-20.5 49.5t20.5 49.5t49.5 20.5t49.5 -20.5t20.5 -49.5t-20.5 -49.5
t-49.5 -20.5z" />
    <glyph glyph-name="cent" unicode="&#xa2;" horiz-adv-x="574" 
d="M334 348q-5 4 -13 4q-21 0 -46.5 -23t-48 -58.5t-37.5 -76.5t-15 -77q0 -10 2.5 -23t6.5 -23zM400 467h25l-51 -95q17 -1 34.5 -4.5t31.5 -12t23 -22.5t9 -36t-12 -36.5t-30.5 -22.5t-40 -11t-40.5 -3q1 14 2 27t1 26t-1 25.5t-4 24.5l-150 -278q11 -12 28 -21.5t41 -9.5
q23 0 48.5 10t48.5 24.5t42.5 31t30.5 29.5l7 -7q-57 -63 -129.5 -90.5t-152.5 -27.5l-67 -130h-26l69 134q-48 9 -70.5 41t-22.5 76q0 55 29 101t73.5 80.5t98 55.5t102.5 26z" />
    <glyph glyph-name="sterling" unicode="&#xa3;" horiz-adv-x="1000" 
d="M20 85q-18 0 -35.5 -7.5t-17.5 -26.5q0 -22 32.5 -38.5t87.5 -16.5q40 0 86 7t81 25q-57 18 -115.5 37.5t-118.5 19.5zM857 294l-7 -16h-256q-44 -73 -100.5 -129t-139.5 -84v-2q48 -11 98 -17t100 -6q67 0 121 10.5t97 33t76 58.5t57 88l7 -3q-7 -19 -22 -46t-38.5 -56
t-55.5 -58t-73.5 -52t-92 -37t-110.5 -14q-28 0 -59.5 5.5t-64 13.5t-63 18.5t-57.5 19.5q-45 -17 -92.5 -27t-95.5 -10q-27 0 -50.5 4t-41.5 12.5t-28.5 20.5t-10.5 28q0 26 25 41t89 15q69 0 132 -12.5t123 -24.5q27 18 48 42.5t37.5 52.5t30 57.5t26.5 57.5h-292l8 16
h292q21 47 44.5 97t52.5 97t63.5 89t77 73.5t92.5 49.5t110 18q34 0 62.5 -10t49 -29t32 -46t11.5 -62q0 -42 -14 -78.5t-39.5 -63t-61.5 -42t-79 -15.5q-19 0 -37 5.5t-31.5 16.5t-22 26.5t-8.5 36.5q0 29 14 53.5t35.5 45t47 36t49.5 25.5l2 -7q-15 -6 -38 -19.5t-45 -33
t-37.5 -43.5t-15.5 -52q0 -27 13 -45.5t42 -18.5q33 0 63.5 25.5t53 61.5t36 75.5t13.5 67.5q0 32 -15.5 55t-50.5 23q-40 0 -77 -22.5t-70.5 -58.5t-62.5 -81t-53.5 -91t-44 -87.5t-34.5 -71.5h256z" />
    <glyph glyph-name="currency" unicode="&#xa4;" horiz-adv-x="574" 
d="M198 482l36 -71q32 22 65.5 33.5t63.5 11.5q35 0 57.5 -11.5t35.5 -32.5l89 75l8 -13l-90 -77q11 -30 11 -67q0 -41 -21.5 -87.5t-58.5 -85.5l46 -62l-70 -57l-37 67q-26 -16 -55 -25t-60 -9q-47 0 -77 28l-91 -78l-10 14l90 77q-22 30 -22 75q0 50 18.5 92.5t47.5 77.5
l-50 67zM334 442q-27 0 -53 -19t-46 -52.5t-32.5 -79t-12.5 -97.5q0 -16 1.5 -35t8 -35.5t19 -27.5t34.5 -11q27 0 51 19t43 52t30 78t11 98q0 16 -1.5 35.5t-6.5 36t-16 27.5t-30 11z" />
    <glyph glyph-name="yen" unicode="&#xa5;" horiz-adv-x="574" 
d="M608 374h-161l-35 -58h176l-8 -16h-178q-21 -35 -43.5 -75.5t-44.5 -80.5t-41 -76t-31 -62l-155 -10q24 29 49.5 66t50.5 77t48 81.5t42 79.5h-163l8 16h164l31 58h-179l8 16h178q18 43 29.5 83.5t11.5 86.5q0 30 -6 56.5t-19.5 46.5t-35 31.5t-52.5 11.5
q-86 0 -129 -39.5t-43 -96.5q0 -29 19 -51.5t49 -22.5q40 0 48 35h4q0 -17 -8 -36.5t-22 -35.5t-34 -26.5t-44 -10.5q-42 0 -69 25t-27 67q0 53 27.5 92t67 64.5t83 38.5t74.5 13q56 0 96 -16t65 -43t36.5 -62t11.5 -73q0 -20 -3.5 -43.5t-17.5 -66.5l2 -2q38 59 78 112.5
t86.5 95t102 66t123.5 24.5q32 0 54 -6.5t35.5 -17t20 -23t6.5 -23.5q0 -23 -16.5 -40.5t-42.5 -17.5q-23 0 -39.5 7.5t-36.5 18.5q25 2 34 13.5t9 26.5q0 17 -13.5 29.5t-38.5 12.5q-54 0 -105.5 -31t-96.5 -77t-81.5 -99t-60.5 -97h160z" />
    <glyph glyph-name="brokenbar" unicode="&#xa6;" horiz-adv-x="222" 
d="M76 259h90l-168 -259h-90zM370 712h90l-169 -259h-90z" />
    <glyph glyph-name="section" unicode="&#xa7;" horiz-adv-x="500" 
d="M432 256q0 34 -11 60t-27.5 51.5t-36.5 54t-38 66.5q-42 -3 -66.5 -31.5t-24.5 -66.5q0 -31 15 -64t35.5 -65t40.5 -61.5t30 -55.5q35 13 59 43t24 69zM692 588q0 -39 -23 -63.5t-68 -24.5q-11 0 -30.5 5t-27.5 15q27 19 39 46t12 56q0 21 -7.5 36.5t-19.5 25t-27 14
t-31 4.5q-26 0 -45 -9.5t-31 -25t-17.5 -35t-5.5 -38.5q0 -38 22.5 -75t48.5 -75q27 -38 49 -79t22 -87q0 -37 -17.5 -65t-45.5 -47.5t-63.5 -30.5t-71.5 -14q4 -14 5 -28t1 -28q0 -70 -58.5 -113.5t-165.5 -43.5q-52 0 -89.5 13t-60.5 33t-34 43.5t-11 44.5q0 45 24.5 67.5
t62.5 22.5q20 0 35.5 -5t29.5 -12q-23 -14 -38.5 -42.5t-15.5 -55.5q0 -44 28 -66.5t70 -22.5q51 0 83 30t32 81q0 44 -22.5 83t-49.5 77t-49.5 76.5t-22.5 80.5q0 41 18 70t47 47t65 26.5t73 8.5q-9 23 -9 57q0 33 12.5 62t36.5 50t58.5 33t77.5 12q42 0 79.5 -8.5
t65 -25.5t44 -42t16.5 -58z" />
    <glyph glyph-name="dieresis" unicode="&#xa8;" horiz-adv-x="278" 
d="M342 580q22 0 37.5 -15.5t15.5 -37.5t-15.5 -37.5t-37.5 -15.5t-37.5 15.5t-15.5 37.5t15.5 37.5t37.5 15.5zM146 580q22 0 37.5 -15.5t15.5 -37.5t-15.5 -37.5t-37.5 -15.5t-37.5 15.5t-15.5 37.5t15.5 37.5t37.5 15.5z" />
    <glyph glyph-name="copyright" unicode="&#xa9;" horiz-adv-x="800" 
d="M516 147q34 0 75.5 13t84 40t84 68.5t76.5 99.5t46.5 116t-6.5 103.5t-67.5 74t-134.5 28.5q-120 0 -222 -76.5t-179 -213.5q-39 -70 -52 -149t4 -146.5t67 -112t137 -44.5q100 0 195.5 35t179 92t150.5 128t110 143l8 -4q-36 -65 -100.5 -137t-150 -132t-187.5 -99
t-212 -39q-77 0 -136 20.5t-100 55t-65.5 79.5t-33 94.5t-1 99.5t30.5 95q42 83 106.5 143.5t142.5 100.5t164 59t171 19q91 0 161.5 -24.5t110 -68t43 -102t-37.5 -127.5q-25 -43 -63 -77.5t-82.5 -61.5t-92.5 -47t-93.5 -32.5t-85 -19t-67.5 -6.5q-56 0 -91 17t-51 45.5
t-13.5 64t22.5 73.5q20 37 55.5 68t77 53t84 34t76.5 12q31 0 54 -7t35 -20t13 -30t-12 -37q-8 -13 -23.5 -23.5t-34 -18t-37.5 -11.5t-35 -4q-23 0 -39 10.5t-17 36.5v7q0 5 1 8h7q-1 -3 -1 -7v-7q0 -25 14.5 -33t28.5 -8q18 0 34 12t30 32q10 15 16.5 31.5t6.5 30.5t-9 23
t-30 9q-51 0 -95 -32t-83 -89q-21 -29 -34.5 -68.5t-13 -75t20 -60t65.5 -24.5z" />
    <glyph glyph-name="ordfeminine" unicode="&#xaa;" horiz-adv-x="334" 
d="M422 545q-10 -15 -30 -40.5t-39 -54t-33.5 -56t-14.5 -45.5q0 -11 16 -11q8 0 18.5 7t18.5 19l8 -8q-12 -15 -27.5 -24.5t-39.5 -9.5q-23 0 -35.5 6.5t-18.5 16.5t-7 20.5t-1 19.5l-2 1q-21 -23 -49.5 -43.5t-64.5 -20.5t-49.5 20t-13.5 50q0 33 17.5 62.5t45.5 51
t63.5 34t71.5 12.5q26 0 39 -12t17 -29h1l17 31zM164 348q14 0 35.5 16t42 41t35.5 54t15 55q0 14 -8.5 21t-19.5 7q-20 0 -41 -17.5t-38.5 -43t-29 -54t-11.5 -49.5q0 -10 3.5 -20t16.5 -10z" />
    <glyph glyph-name="guillemotleft" unicode="&#xab;" 
d="M94 175l240 170l7 -8l-150 -161l57 -155l-9 -6zM270 175l240 170l8 -8l-151 -161l57 -155l-9 -6z" />
    <glyph glyph-name="logicalnot" unicode="&#xac;" horiz-adv-x="600" 
d="M396 228h-280l10 15h374l-105 -160l-105 -17z" />
    <glyph glyph-name="registered" unicode="&#xae;" horiz-adv-x="800" 
d="M640 156q-82 0 -69 59q5 21 11.5 37.5t12.5 42.5q5 18 2.5 31.5t-18.5 15.5l1 4q5 0 10.5 -1.5t10.5 -0.5q20 2 42 15.5t33 30.5q7 11 11.5 25t5 28t-4 27t-14.5 22q-21 -10 -41 -41t-46 -76q-20 -36 -43.5 -74.5t-51 -71t-59 -53t-68.5 -20.5q-8 0 -20.5 0.5t-24.5 5
t-20.5 13.5t-8.5 27q0 17 10.5 27t27.5 10q11 0 19.5 -9t8.5 -20q0 -10 -7 -21t-21 -10q11 -17 29 -17q12 0 25 16.5t28.5 43.5t34.5 60.5t42 67.5q17 25 37 49t42 44t45.5 35t47.5 21q-19 5 -32 7.5t-33 2.5q-65 0 -117 -25.5t-90 -78.5q-10 -14 -17.5 -34.5t-9 -39
t5.5 -31.5t26 -13q15 0 27 7.5t20.5 20.5t13 29t4.5 34h7q0 -42 -20 -71.5t-58 -29.5q-32 0 -52 13t-28 32.5t-4.5 42.5t17.5 43q18 25 47 45t65.5 34t78.5 21t86 7q21 0 37 -3t35 -9q4 2 12 4t17 4t17.5 3.5t14.5 1.5l1 -4q-11 -2 -22.5 -6t-22.5 -9q15 -6 30.5 -16
t26 -23.5t13.5 -29.5t-6 -34t-25.5 -29t-36 -16.5t-41 -7.5t-41.5 -2v-1q25 -8 40.5 -22.5t15.5 -31.5q0 -12 -3 -24t-10 -29q-5 -11 -7.5 -22t-1 -20t8.5 -15t22 -6q40 0 90 41.5t99 126.5q20 33 30.5 72.5t9.5 79t-13.5 76t-39.5 64.5t-70 45t-103 17q-81 0 -148 -25
t-120.5 -65.5t-94 -92.5t-68.5 -107q-24 -47 -36.5 -99t-12 -102.5t14.5 -96t43 -80.5t73 -55.5t104 -20.5q100 0 195.5 35.5t179 92.5t150.5 128.5t110 143.5l8 -4q-36 -65 -100.5 -137t-150 -132t-187.5 -99t-212 -39q-116 0 -195 39t-119.5 102t-41 142.5t40.5 160.5
q47 92 114 154t145.5 99.5t164 53t170.5 15.5q104 0 175 -31.5t107 -82.5t36 -114t-37 -126q-24 -41 -66.5 -76t-91.5 -60.5t-98 -40t-86 -14.5z" />
    <glyph glyph-name="macron" unicode="&#xaf;" horiz-adv-x="278" 
d="M350 535q8 0 16.5 -2.5t8.5 -13.5t-6 -22.5t-29 -11.5h-222q-11 0 -11 15q0 11 6.5 23t29.5 12h207z" />
    <glyph glyph-name="degree" unicode="&#xb0;" horiz-adv-x="400" 
d="M242 507q-41 0 -67 -28.5t-26 -69.5t26 -69t67 -28t67 28t26 69t-26 69.5t-67 28.5zM242 552q30 0 56 -11t45.5 -30.5t30.5 -45.5t11 -56t-11 -56t-30.5 -45.5t-45.5 -30.5t-56 -11t-56 11t-45.5 30.5t-30.5 45.5t-11 56t11 56t30.5 45.5t45.5 30.5t56 11z" />
    <glyph glyph-name="plusminus" unicode="&#xb1;" horiz-adv-x="600" 
d="M355 360l96 8l-92 -139h132l-11 -13h-131l-84 -130l-99 -13l93 143h-123l11 13h122zM355 15l-12 -15h-318l11 15h319z" />
    <glyph glyph-name="twosuperior" unicode="&#xb2;" horiz-adv-x="344" 
d="M383 337q-5 -8 -15.5 -29t-30 -43t-49 -39t-73.5 -17q-20 0 -39 5.5t-38.5 11.5t-38.5 11.5t-39 5.5q-12 0 -16.5 -5t-8.5 -12q-3 -6 -7.5 -11.5t-15.5 -5.5t-11 9q0 5 4 9t14 10.5t28.5 17t46.5 26.5q40 24 78.5 40.5t69 34.5t49 42t18.5 63q0 23 -11.5 41t-44.5 18
q-31 0 -51 -17t-20 -40q0 -17 11 -28t31 -11q12 0 19.5 4t10.5 15h4q-2 -26 -24 -45.5t-53 -19.5q-23 0 -41 15.5t-18 43.5q0 24 13 43t34.5 32.5t51 20.5t62.5 7q26 0 49 -5.5t40.5 -16t28 -26t10.5 -35.5q0 -32 -16.5 -53.5t-42.5 -36.5t-59 -25t-66 -18.5t-63 -17.5
t-51 -23l2 -2q7 5 15.5 6t16.5 1q17 0 34 -3t35 -7q17 -4 34.5 -7.5t34.5 -3.5q29 0 50.5 19t39.5 54z" />
    <glyph glyph-name="threesuperior" unicode="&#xb3;" horiz-adv-x="344" 
d="M171 394h59q23 0 44.5 5t38 15t26.5 25t10 35q0 25 -12 41t-35 16q-29 0 -41 -13.5t-12 -30.5q0 -11 6 -22t26 -11q18 0 23 16h5q0 -3 -3 -12t-10.5 -19t-20.5 -17.5t-33 -7.5q-21 0 -38 13.5t-17 33.5q0 21 12 37t31.5 27t44.5 16.5t50 5.5q49 0 80.5 -18t31.5 -50
q0 -28 -17.5 -44.5t-42 -26.5t-52.5 -14.5t-49 -7.5v-2q17 0 34 -4.5t30.5 -13t22 -21t8.5 -29.5q0 -32 -23.5 -53t-55.5 -33t-66 -16.5t-55 -4.5q-23 0 -48.5 4t-46.5 14t-35 26.5t-14 41.5q0 27 20 48.5t50 21.5q19 0 31.5 -6.5t20.5 -14.5t12.5 -16.5t6.5 -13.5l-5 -1
q-5 5 -10 8.5t-13 3.5q-17 0 -28 -14.5t-11 -34.5t17 -37.5t50 -17.5q48 0 76.5 25.5t28.5 72.5q0 32 -19 45.5t-48 13.5q-10 0 -19 -0.5t-20 -3.5z" />
    <glyph glyph-name="acute" unicode="&#xb4;" horiz-adv-x="278" 
d="M374 561q0 -21 -22.5 -44t-51 -42.5t-55 -32t-34.5 -12.5q-11 0 -11 12q0 6 10 12.5t33 21.5q30 20 42 41.5t17.5 39t10.5 28.5t23 11q16 0 27 -9t11 -26z" />
    <glyph glyph-name="mu" unicode="&#xb5;" 
d="M266 368l-36 -54q-48 -72 -77 -117.5t-45 -74t-21 -44t-5 -27.5q0 -13 7.5 -21t19.5 -8q20 0 51.5 22.5t69 65.5t79.5 105t83 141l145 4q-9 -15 -25.5 -40t-37 -54.5t-42 -62.5t-39 -63.5t-28.5 -57t-11 -43.5q0 -14 6.5 -19.5t20.5 -5.5q17 0 39.5 14t48 36.5t52 50.5
t50 56t43.5 53t32 41l9 -8q-17 -20 -39 -47.5t-47.5 -57.5t-54 -59.5t-58.5 -52.5t-60.5 -37.5t-60.5 -14.5q-23 0 -39.5 7t-27.5 17.5t-16.5 23t-5.5 22.5q0 18 3 34t8 26l-2 3q-22 -26 -47.5 -50t-51.5 -42.5t-52.5 -29.5t-51.5 -11q-9 0 -14 2l-184 -310l-146 -4l414 688
z" />
    <glyph glyph-name="paragraph" unicode="&#xb6;" horiz-adv-x="600" 
d="M195 -98l422 774h-61l-422 -774h-59l244 448q-25 2 -49 10t-42.5 22t-30 35.5t-11.5 50.5q0 58 29 102.5t73.5 74.5t97 45.5t98.5 15.5h289l-12 -20q-28 -1 -45.5 -4t-28 -7t-16 -9.5t-9.5 -13.5l-409 -750h-58z" />
    <glyph glyph-name="periodcentered" unicode="&#xb7;" horiz-adv-x="287" 
d="M125 256q32 0 54 -22t22 -54t-22 -54t-54 -22t-54 22t-22 54t22 54t54 22z" />
    <glyph glyph-name="cedilla" unicode="&#xb8;" horiz-adv-x="278" 
d="M25 -5l-43 -61q6 1 12.5 2t12.5 1q28 0 49 -14t21 -45q0 -32 -30.5 -54t-88.5 -22q-7 0 -24.5 2t-36 6.5t-32.5 11t-14 15.5q0 12 11 12q13 0 37 -8.5t57 -8.5q30 0 46.5 11.5t16.5 32.5q0 14 -11 21.5t-27 7.5q-12 0 -22 -1.5t-20 -1.5q-7 0 -7 7q0 5 4 12t18 30l29 44
h42z" />
    <glyph glyph-name="onesuperior" unicode="&#xb9;" horiz-adv-x="344" 
d="M115 424q76 19 147.5 48.5t134.5 71.5l10 -3q-26 -40 -55 -83t-56 -85t-51 -81t-40 -72l-111 -6q21 30 45 66t47 70t42.5 62.5t31.5 43.5l-2 2q-32 -12 -68 -24t-73 -21z" />
    <glyph glyph-name="ordmasculine" unicode="&#xba;" horiz-adv-x="322" 
d="M76 403q0 35 17.5 62.5t44.5 46.5t60.5 29.5t66.5 10.5q22 0 42 -4t35.5 -13.5t24.5 -25t9 -38.5q0 -34 -17.5 -62t-45 -47t-62 -29.5t-68.5 -10.5q-20 0 -39.5 4t-34.5 13.5t-24 25t-9 38.5zM306 512q0 13 -7.5 21.5t-18.5 8.5q-24 0 -47.5 -22t-43 -51.5t-31.5 -59.5
t-12 -47q0 -13 7 -21.5t19 -8.5q23 0 47 22t43.5 51.5t31.5 60t12 46.5z" />
    <glyph glyph-name="guillemotright" unicode="&#xbb;" 
d="M467 185l-240 -170l-8 8l150 161l-56 155l9 6zM291 185l-240 -170l-8 8l150 161l-56 155l9 6z" />
    <glyph glyph-name="onequarter" unicode="&#xbc;" horiz-adv-x="861" 
d="M806 312q-32 -48 -63.5 -94t-61.5 -91h73l-7 -19h-72q-15 -24 -33.5 -49.5t-32.5 -54.5l-109 -8q21 31 40.5 58.5t38.5 53.5h-58q-32 0 -66 -2.5t-72 -6.5l293 271l79 4l-314 -248l2 -2l142 1q29 42 57.5 86.5t56.5 90.5zM186 -12h-46l478 564h46zM133 424
q76 19 147.5 48.5t134.5 71.5l10 -3q-26 -40 -55 -83t-56 -85t-51 -81t-40 -72l-111 -6q21 30 45 66t47 70t42.5 62.5t31.5 43.5l-2 2q-32 -12 -68 -24t-73 -21z" />
    <glyph glyph-name="onehalf" unicode="&#xbd;" horiz-adv-x="861" 
d="M191 -12h-46l478 564h46zM752 121q-5 -8 -15.5 -29t-30 -43t-49 -39t-73.5 -17q-20 0 -39 5.5t-38.5 11.5t-38.5 11.5t-39 5.5q-12 0 -16.5 -5t-8.5 -12q-3 -6 -7.5 -11.5t-15.5 -5.5t-11 9q0 5 4 9t14 10.5t28.5 17t46.5 26.5q40 24 78.5 40.5t69 34.5t49 42t18.5 63
q0 23 -11.5 41t-44.5 18q-31 0 -51 -17t-20 -40q0 -17 11 -28t31 -11q12 0 19.5 4t10.5 15h4q-2 -26 -24 -45.5t-53 -19.5q-23 0 -41 15.5t-18 43.5q0 24 13 43t34.5 32.5t51 20.5t62.5 7q26 0 49 -5.5t40.5 -16t28 -26t10.5 -35.5q0 -32 -16.5 -53.5t-42.5 -36.5t-59 -25
t-66 -18.5t-63 -17.5t-51 -23l2 -2q7 5 15.5 6t16.5 1q17 0 34 -3t35 -7q17 -4 34.5 -7.5t34.5 -3.5q29 0 50.5 19t39.5 54zM143 424q76 19 147.5 48.5t134.5 71.5l10 -3q-26 -40 -55 -83t-56 -85t-51 -81t-40 -72l-111 -6q21 30 45 66t47 70t42.5 62.5t31.5 43.5l-2 2
q-32 -12 -68 -24t-73 -21z" />
    <glyph glyph-name="threequarters" unicode="&#xbe;" horiz-adv-x="861" 
d="M876 312q-32 -48 -63.5 -94t-61.5 -91h73l-7 -19h-72q-15 -24 -33.5 -49.5t-32.5 -54.5l-109 -8q21 31 40.5 58.5t38.5 53.5h-58q-32 0 -66 -2.5t-72 -6.5l293 271l79 4l-314 -248l2 -2l142 1q29 42 57.5 86.5t56.5 90.5zM256 -12h-46l478 564h46zM181 394h59
q23 0 44.5 5t38 15t26.5 25t10 35q0 25 -12 41t-35 16q-29 0 -41 -13.5t-12 -30.5q0 -11 6 -22t26 -11q18 0 23 16h5q0 -3 -3 -12t-10.5 -19t-20.5 -17.5t-33 -7.5q-21 0 -38 13.5t-17 33.5q0 21 12 37t31.5 27t44.5 16.5t50 5.5q49 0 80.5 -18t31.5 -50q0 -28 -17.5 -44.5
t-42 -26.5t-52.5 -14.5t-49 -7.5v-2q17 0 34 -4.5t30.5 -13t22 -21t8.5 -29.5q0 -32 -23.5 -53t-55.5 -33t-66 -16.5t-55 -4.5q-23 0 -48.5 4t-46.5 14t-35 26.5t-14 41.5q0 27 20 48.5t50 21.5q19 0 31.5 -6.5t20.5 -14.5t12.5 -16.5t6.5 -13.5l-5 -1q-5 5 -10 8.5t-13 3.5
q-17 0 -28 -14.5t-11 -34.5t17 -37.5t50 -17.5q48 0 76.5 25.5t28.5 72.5q0 32 -19 45.5t-48 13.5q-10 0 -19 -0.5t-20 -3.5z" />
    <glyph glyph-name="questiondown" unicode="&#xbf;" horiz-adv-x="500" 
d="M278 214q-17 -24 -39.5 -42.5t-47 -35t-48 -33t-42.5 -37t-30.5 -46.5t-11.5 -62q0 -26 9 -49.5t24.5 -41t37 -27.5t46.5 -10q38 0 62.5 27t24.5 69q0 28 -14.5 52t-40.5 24q-34 0 -46 -19.5t-13 -46.5h-10q0 22 6 47.5t19.5 46.5t35 34.5t52.5 13.5q35 0 59 -26.5
t24 -69.5q0 -35 -17 -67.5t-48 -58t-75.5 -41t-100.5 -15.5q-34 0 -63.5 10.5t-51.5 30t-34 46.5t-12 60q0 36 17.5 64.5t44.5 50.5t59 37.5t62 25.5q21 8 43.5 15.5t43.5 18t39 25t31 34.5zM330 220q-29 0 -49.5 20.5t-20.5 49.5t20.5 49.5t49.5 20.5t49.5 -20.5
t20.5 -49.5t-20.5 -49.5t-49.5 -20.5z" />
    <glyph glyph-name="Agrave" unicode="&#xc0;" horiz-adv-x="944" 
d="M1116 714q-46 -45 -93.5 -99t-92 -112t-83.5 -118.5t-68 -119t-46 -112.5t-17 -100q0 -27 11 -38t24 -11q35 0 74 26t78 65t76 84t67 83l7 -7q-34 -43 -67.5 -83.5t-72.5 -80.5q-20 -21 -42.5 -40.5t-48 -34t-54.5 -23.5t-63 -9q-53 0 -84 25t-31 77q0 30 6.5 59t17 57
t23.5 55.5t26 52.5h-134q-46 -49 -98 -105t-110 -103.5t-122 -78.5t-134 -31q-75 0 -116 33.5t-41 86.5q0 13 4 26.5t13 25t22.5 19t32.5 7.5q20 0 39 -13t19 -45q0 -24 -15.5 -37t-32.5 -13q2 -32 29 -48t67 -16q59 0 120 31t118 77.5t108.5 100t91.5 98.5q20 22 51.5 56
t73 73.5t92 81t108 79t122 67.5t134.5 46zM669 322q51 91 120.5 172t146.5 153l-2 2q-55 -26 -109.5 -65t-105 -83.5t-96.5 -91t-85 -87.5h131zM921 890q0 17 11 26t27 9q18 0 23 -11t10.5 -28.5t17.5 -39t42 -41.5q23 -15 33 -21.5t10 -12.5q0 -12 -11 -12q-8 0 -34.5 12.5
t-55 32t-51 42.5t-22.5 44z" />
    <glyph glyph-name="Aacute" unicode="&#xc1;" horiz-adv-x="944" 
d="M1116 714q-46 -45 -93.5 -99t-92 -112t-83.5 -118.5t-68 -119t-46 -112.5t-17 -100q0 -27 11 -38t24 -11q35 0 74 26t78 65t76 84t67 83l7 -7q-34 -43 -67.5 -83.5t-72.5 -80.5q-20 -21 -42.5 -40.5t-48 -34t-54.5 -23.5t-63 -9q-53 0 -84 25t-31 77q0 30 6.5 59t17 57
t23.5 55.5t26 52.5h-134q-46 -49 -98 -105t-110 -103.5t-122 -78.5t-134 -31q-75 0 -116 33.5t-41 86.5q0 13 4 26.5t13 25t22.5 19t32.5 7.5q20 0 39 -13t19 -45q0 -24 -15.5 -37t-32.5 -13q2 -32 29 -48t67 -16q59 0 120 31t118 77.5t108.5 100t91.5 98.5q20 22 51.5 56
t73 73.5t92 81t108 79t122 67.5t134.5 46zM669 322q51 91 120.5 172t146.5 153l-2 2q-55 -26 -109.5 -65t-105 -83.5t-96.5 -91t-85 -87.5h131zM1182 890q0 -21 -22.5 -44t-51 -42.5t-55 -32t-34.5 -12.5q-11 0 -11 12q0 6 10 12.5t33 21.5q30 20 42 41.5t17.5 39t10.5 28.5
t23 11q16 0 27 -9t11 -26z" />
    <glyph glyph-name="Acircumflex" unicode="&#xc2;" horiz-adv-x="944" 
d="M1116 714q-46 -45 -93.5 -99t-92 -112t-83.5 -118.5t-68 -119t-46 -112.5t-17 -100q0 -27 11 -38t24 -11q35 0 74 26t78 65t76 84t67 83l7 -7q-34 -43 -67.5 -83.5t-72.5 -80.5q-20 -21 -42.5 -40.5t-48 -34t-54.5 -23.5t-63 -9q-53 0 -84 25t-31 77q0 30 6.5 59t17 57
t23.5 55.5t26 52.5h-134q-46 -49 -98 -105t-110 -103.5t-122 -78.5t-134 -31q-75 0 -116 33.5t-41 86.5q0 13 4 26.5t13 25t22.5 19t32.5 7.5q20 0 39 -13t19 -45q0 -24 -15.5 -37t-32.5 -13q2 -32 29 -48t67 -16q59 0 120 31t118 77.5t108.5 100t91.5 98.5q20 22 51.5 56
t73 73.5t92 81t108 79t122 67.5t134.5 46zM669 322q51 91 120.5 172t146.5 153l-2 2q-55 -26 -109.5 -65t-105 -83.5t-96.5 -91t-85 -87.5h131zM1085 927q3 -19 16.5 -44t28.5 -49t27 -43t12 -26q0 -14 -13 -14q-7 0 -18.5 10.5t-25 26t-27 32.5t-22.5 30
q-10 -10 -28.5 -26.5t-39.5 -32t-42 -26.5t-36 -11q-10 0 -10 10q0 9 14 19t36.5 28t49.5 45.5t54 70.5h24z" />
    <glyph glyph-name="Atilde" unicode="&#xc3;" horiz-adv-x="944" 
d="M1116 714q-46 -45 -93.5 -99t-92 -112t-83.5 -118.5t-68 -119t-46 -112.5t-17 -100q0 -27 11 -38t24 -11q35 0 74 26t78 65t76 84t67 83l7 -7q-34 -43 -67.5 -83.5t-72.5 -80.5q-20 -21 -42.5 -40.5t-48 -34t-54.5 -23.5t-63 -9q-53 0 -84 25t-31 77q0 30 6.5 59t17 57
t23.5 55.5t26 52.5h-134q-46 -49 -98 -105t-110 -103.5t-122 -78.5t-134 -31q-75 0 -116 33.5t-41 86.5q0 13 4 26.5t13 25t22.5 19t32.5 7.5q20 0 39 -13t19 -45q0 -24 -15.5 -37t-32.5 -13q2 -32 29 -48t67 -16q59 0 120 31t118 77.5t108.5 100t91.5 98.5q20 22 51.5 56
t73 73.5t92 81t108 79t122 67.5t134.5 46zM669 322q51 91 120.5 172t146.5 153l-2 2q-55 -26 -109.5 -65t-105 -83.5t-96.5 -91t-85 -87.5h131zM1137 845q17 0 26 7t14 16t8 16t9 7q7 0 8.5 -3.5t1.5 -10.5q0 -6 -3 -20t-11.5 -28t-22.5 -25t-37 -11q-20 0 -41 6.5t-41 14.5
t-38.5 14.5t-32.5 6.5q-10 0 -18 -7t-14.5 -16t-12.5 -16t-12 -7q-7 0 -8.5 5t-1.5 9q0 5 4.5 18t13.5 27t23 24.5t34 10.5q17 0 37.5 -5.5t40.5 -13.5q21 -8 40.5 -13.5t33.5 -5.5z" />
    <glyph glyph-name="Adieresis" unicode="&#xc4;" horiz-adv-x="944" 
d="M1116 714q-46 -45 -93.5 -99t-92 -112t-83.5 -118.5t-68 -119t-46 -112.5t-17 -100q0 -27 11 -38t24 -11q35 0 74 26t78 65t76 84t67 83l7 -7q-34 -43 -67.5 -83.5t-72.5 -80.5q-20 -21 -42.5 -40.5t-48 -34t-54.5 -23.5t-63 -9q-53 0 -84 25t-31 77q0 30 6.5 59t17 57
t23.5 55.5t26 52.5h-134q-46 -49 -98 -105t-110 -103.5t-122 -78.5t-134 -31q-75 0 -116 33.5t-41 86.5q0 13 4 26.5t13 25t22.5 19t32.5 7.5q20 0 39 -13t19 -45q0 -24 -15.5 -37t-32.5 -13q2 -32 29 -48t67 -16q59 0 120 31t118 77.5t108.5 100t91.5 98.5q20 22 51.5 56
t73 73.5t92 81t108 79t122 67.5t134.5 46zM669 322q51 91 120.5 172t146.5 153l-2 2q-55 -26 -109.5 -65t-105 -83.5t-96.5 -91t-85 -87.5h131zM1150 909q22 0 37.5 -15.5t15.5 -37.5t-15.5 -37.5t-37.5 -15.5t-37.5 15.5t-15.5 37.5t15.5 37.5t37.5 15.5zM954 909
q22 0 37.5 -15.5t15.5 -37.5t-15.5 -37.5t-37.5 -15.5t-37.5 15.5t-15.5 37.5t15.5 37.5t37.5 15.5z" />
    <glyph glyph-name="Aring" unicode="&#xc5;" horiz-adv-x="944" 
d="M1116 714q-46 -45 -93.5 -99t-92 -112t-83.5 -118.5t-68 -119t-46 -112.5t-17 -100q0 -27 11 -38t24 -11q35 0 74 26t78 65t76 84t67 83l7 -7q-34 -43 -67.5 -83.5t-72.5 -80.5q-20 -21 -42.5 -40.5t-48 -34t-54.5 -23.5t-63 -9q-53 0 -84 25t-31 77q0 30 6.5 59t17 57
t23.5 55.5t26 52.5h-134q-46 -49 -98 -105t-110 -103.5t-122 -78.5t-134 -31q-75 0 -116 33.5t-41 86.5q0 13 4 26.5t13 25t22.5 19t32.5 7.5q20 0 39 -13t19 -45q0 -24 -15.5 -37t-32.5 -13q2 -32 29 -48t67 -16q59 0 120 31t118 77.5t108.5 100t91.5 98.5q20 22 51.5 56
t73 73.5t92 81t108 79t122 67.5t134.5 46zM669 322q51 91 120.5 172t146.5 153l-2 2q-55 -26 -109.5 -65t-105 -83.5t-96.5 -91t-85 -87.5h131zM935 826q0 25 11.5 46t30.5 36.5t43.5 24t50.5 8.5q14 0 29.5 -3.5t28 -12t20.5 -23t8 -36.5q0 -25 -12 -46t-31 -36.5t-43 -24
t-47 -8.5q-35 0 -62 18.5t-27 56.5zM979 796q0 -35 34 -35q21 0 39 14.5t31.5 36t21.5 45t8 41.5q0 17 -11.5 25t-27.5 8q-17 0 -34 -15.5t-30.5 -37.5t-22 -44.5t-8.5 -37.5z" />
    <glyph glyph-name="AE" unicode="&#xc6;" horiz-adv-x="1000" 
d="M398 522q11 -18 17 -41.5t6 -43.5q0 -44 -18 -81.5t-48 -65t-68 -43t-77 -15.5q-25 0 -46 9.5t-36 25.5t-23.5 38t-8.5 46q0 46 24 89.5t66 82t99 70.5t124.5 55t142 35.5t150.5 12.5q21 0 46 -1.5t49 -3.5t44.5 -4.5t32.5 -4.5q19 14 43.5 26.5t51.5 22.5t55.5 15.5
t55.5 5.5q20 0 39 -3t34.5 -10t25 -19.5t9.5 -31.5q0 -22 -11 -38t-29 -27t-40.5 -18t-45.5 -10.5t-44 -4.5t-36 0q-5 -1 -13.5 -6t-17.5 -12t-17.5 -14.5t-13.5 -12.5q-18 -19 -33.5 -45t-28 -54.5t-22 -58t-16.5 -55.5q32 6 50 11.5t30 14t20.5 22.5t21.5 36l121 3
q-32 -20 -62 -44t-55.5 -51.5t-45 -60t-29.5 -69.5h-12q9 76 36 141q-19 -5 -39 -8.5t-40 -6.5q-29 -75 -84.5 -132t-124.5 -98q50 -10 99 -16t100 -6q59 0 103 14t79 40t65.5 63t63.5 84l9 -4q-30 -43 -69 -93.5t-85.5 -94t-99.5 -72.5t-110 -29q-30 0 -57 4.5t-52 13
t-50 19.5t-52 24q-31 -19 -64.5 -32t-79.5 -13q-14 0 -27.5 2t-24 7t-17 13.5t-6.5 22.5q0 12 7.5 23.5t24 21t43 15t64.5 5.5q23 0 37 -0.5t26 -2t24.5 -3t31.5 -3.5q35 49 52.5 107t33.5 116h-188q-37 -46 -83.5 -103.5t-100.5 -108.5t-114 -85.5t-126 -34.5
q-19 0 -39 4.5t-36 14.5t-26 26t-10 38q0 29 16.5 51.5t48.5 22.5q23 0 39 -17t16 -38q0 -27 -14 -47q11 -11 26 -13t30 -2q36 0 75.5 20.5t79 52t76.5 70.5t68.5 76.5t56 69t38.5 47.5q28 34 62 71t69 71t68 61.5t59 42.5v2q-64 6 -188 6q-112 0 -198.5 -21t-145 -55.5
t-89 -78.5t-30.5 -90q0 -35 25.5 -62t75.5 -27q45 0 80.5 16.5t60.5 40.5t38 51.5t13 49.5q0 23 -6.5 44.5t-13.5 36.5zM680 328q38 105 104 167t168 93v2q-13 2 -33 4t-42 4.5t-45 4.5t-43 3q-43 -28 -81 -59t-73 -65.5t-69 -72.5t-69 -81h183zM1172 690q0 15 -9 25
t-22.5 15.5t-30 7.5t-32.5 2q-24 0 -50 -5t-51.5 -13.5t-47.5 -19t-38 -21.5v-2q13 0 36 -3t52 -6.5t62 -6.5t65 -3q6 0 17.5 0.5t22 3.5t18.5 9t8 17zM538 43q-36 17 -67 25t-60 8t-48 -10.5t-19 -28.5q0 -17 16.5 -25t45.5 -8q39 0 69.5 9t62.5 30z" />
    <glyph glyph-name="Ccedilla" unicode="&#xc7;" horiz-adv-x="722" 
d="M603 617q-9 -9 -20 -27t-11 -46q0 -37 23 -60t57 -23q32 0 59 17.5t46.5 44.5t30 59t10.5 60q0 37 -20.5 52.5t-55.5 15.5q-53 0 -108.5 -22.5t-107 -61.5t-97 -91.5t-79 -113.5t-53 -126.5t-19.5 -130.5q0 -32 8.5 -61t24.5 -51t37.5 -35t47.5 -13q39 0 75.5 18.5
t65.5 48.5t46.5 69t17.5 81q0 22 -4.5 42.5t-14 36t-24 25t-35.5 9.5q-40 0 -65 -26.5t-38.5 -61.5t-18.5 -68t-5 -47h-12q0 39 10.5 81t33 77.5t58 58t84.5 22.5q27 0 50 -9t40 -25.5t27 -39t10 -49.5q0 -48 -27.5 -95.5t-73 -84.5t-104.5 -60t-122 -23q-120 0 -176 58.5
t-56 165.5q0 62 28 124.5t74.5 119.5t107 106.5t126.5 86t132 57t123 20.5q30 0 60 -4.5t53 -17t37.5 -35t14.5 -58.5q0 -31 -15.5 -60.5t-42.5 -52t-62.5 -36t-75.5 -13.5q-23 0 -44.5 5.5t-38 17.5t-26 30.5t-9.5 44.5q0 20 8.5 41t26.5 39zM313 -5l-43 -61q6 1 12.5 2
t12.5 1q28 0 49 -14t21 -45q0 -32 -30.5 -54t-88.5 -22q-7 0 -24.5 2t-36 6.5t-32.5 11t-14 15.5q0 12 11 12q13 0 37 -8.5t57 -8.5q30 0 46.5 11.5t16.5 32.5q0 14 -11 21.5t-27 7.5q-12 0 -22 -1.5t-20 -1.5q-7 0 -7 7q0 5 4 12t18 30l29 44h42z" />
    <glyph glyph-name="Egrave" unicode="&#xc8;" horiz-adv-x="704" 
d="M462 483q30 -10 63 -10q31 0 52 11.5t34 29.5t19 39.5t6 42.5t-5 41.5t-15.5 36.5t-27.5 26t-40 10q-30 0 -51 -15t-36 -44.5t-25.5 -73.5t-19.5 -101q-4 -25 -22.5 -42.5t-44.5 -33.5t-55 -33t-53.5 -41t-40.5 -57t-16 -82q0 -41 13.5 -74t37 -56t54.5 -35t65 -12
q54 0 91.5 16.5t60.5 42t33.5 56t10.5 58.5q0 21 -6 41.5t-17.5 36t-29 25t-41.5 9.5q-26 0 -48.5 -12t-41 -29.5t-32.5 -37t-23 -34.5l-10 4q15 26 37.5 52.5t51 48t61.5 35t67 13.5q72 0 106 -32.5t34 -83.5q0 -46 -33 -89t-86.5 -75t-121 -51.5t-135.5 -19.5q-36 0 -77 8
t-76 27.5t-58 51t-23 78.5q0 49 23.5 82t56.5 55.5t68 38t57 30.5q13 9 19 36.5t12 62t14.5 71t24.5 62.5q23 37 55 62.5t67 41.5t70 23.5t63 7.5t55.5 -6t49.5 -19.5t35.5 -36.5t13.5 -57q0 -37 -19.5 -64t-49 -44.5t-64.5 -25.5t-67 -8q-17 0 -36 3.5t-36 10.5zM488 890
q0 17 11 26t27 9q18 0 23 -11t10.5 -28.5t17.5 -39t42 -41.5q23 -15 33 -21.5t10 -12.5q0 -12 -11 -12q-8 0 -34.5 12.5t-55 32t-51 42.5t-22.5 44z" />
    <glyph glyph-name="Eacute" unicode="&#xc9;" horiz-adv-x="704" 
d="M462 483q30 -10 63 -10q31 0 52 11.5t34 29.5t19 39.5t6 42.5t-5 41.5t-15.5 36.5t-27.5 26t-40 10q-30 0 -51 -15t-36 -44.5t-25.5 -73.5t-19.5 -101q-4 -25 -22.5 -42.5t-44.5 -33.5t-55 -33t-53.5 -41t-40.5 -57t-16 -82q0 -41 13.5 -74t37 -56t54.5 -35t65 -12
q54 0 91.5 16.5t60.5 42t33.5 56t10.5 58.5q0 21 -6 41.5t-17.5 36t-29 25t-41.5 9.5q-26 0 -48.5 -12t-41 -29.5t-32.5 -37t-23 -34.5l-10 4q15 26 37.5 52.5t51 48t61.5 35t67 13.5q72 0 106 -32.5t34 -83.5q0 -46 -33 -89t-86.5 -75t-121 -51.5t-135.5 -19.5q-36 0 -77 8
t-76 27.5t-58 51t-23 78.5q0 49 23.5 82t56.5 55.5t68 38t57 30.5q13 9 19 36.5t12 62t14.5 71t24.5 62.5q23 37 55 62.5t67 41.5t70 23.5t63 7.5t55.5 -6t49.5 -19.5t35.5 -36.5t13.5 -57q0 -37 -19.5 -64t-49 -44.5t-64.5 -25.5t-67 -8q-17 0 -36 3.5t-36 10.5zM749 890
q0 -21 -22.5 -44t-51 -42.5t-55 -32t-34.5 -12.5q-11 0 -11 12q0 6 10 12.5t33 21.5q30 20 42 41.5t17.5 39t10.5 28.5t23 11q16 0 27 -9t11 -26z" />
    <glyph glyph-name="Ecircumflex" unicode="&#xca;" horiz-adv-x="704" 
d="M462 483q30 -10 63 -10q31 0 52 11.5t34 29.5t19 39.5t6 42.5t-5 41.5t-15.5 36.5t-27.5 26t-40 10q-30 0 -51 -15t-36 -44.5t-25.5 -73.5t-19.5 -101q-4 -25 -22.5 -42.5t-44.5 -33.5t-55 -33t-53.5 -41t-40.5 -57t-16 -82q0 -41 13.5 -74t37 -56t54.5 -35t65 -12
q54 0 91.5 16.5t60.5 42t33.5 56t10.5 58.5q0 21 -6 41.5t-17.5 36t-29 25t-41.5 9.5q-26 0 -48.5 -12t-41 -29.5t-32.5 -37t-23 -34.5l-10 4q15 26 37.5 52.5t51 48t61.5 35t67 13.5q72 0 106 -32.5t34 -83.5q0 -46 -33 -89t-86.5 -75t-121 -51.5t-135.5 -19.5q-36 0 -77 8
t-76 27.5t-58 51t-23 78.5q0 49 23.5 82t56.5 55.5t68 38t57 30.5q13 9 19 36.5t12 62t14.5 71t24.5 62.5q23 37 55 62.5t67 41.5t70 23.5t63 7.5t55.5 -6t49.5 -19.5t35.5 -36.5t13.5 -57q0 -37 -19.5 -64t-49 -44.5t-64.5 -25.5t-67 -8q-17 0 -36 3.5t-36 10.5zM652 927
q3 -19 16.5 -44t28.5 -49t27 -43t12 -26q0 -14 -13 -14q-7 0 -18.5 10.5t-25 26t-27 32.5t-22.5 30q-10 -10 -28.5 -26.5t-39.5 -32t-42 -26.5t-36 -11q-10 0 -10 10q0 9 14 19t36.5 28t49.5 45.5t54 70.5h24z" />
    <glyph glyph-name="Edieresis" unicode="&#xcb;" horiz-adv-x="704" 
d="M462 483q30 -10 63 -10q31 0 52 11.5t34 29.5t19 39.5t6 42.5t-5 41.5t-15.5 36.5t-27.5 26t-40 10q-30 0 -51 -15t-36 -44.5t-25.5 -73.5t-19.5 -101q-4 -25 -22.5 -42.5t-44.5 -33.5t-55 -33t-53.5 -41t-40.5 -57t-16 -82q0 -41 13.5 -74t37 -56t54.5 -35t65 -12
q54 0 91.5 16.5t60.5 42t33.5 56t10.5 58.5q0 21 -6 41.5t-17.5 36t-29 25t-41.5 9.5q-26 0 -48.5 -12t-41 -29.5t-32.5 -37t-23 -34.5l-10 4q15 26 37.5 52.5t51 48t61.5 35t67 13.5q72 0 106 -32.5t34 -83.5q0 -46 -33 -89t-86.5 -75t-121 -51.5t-135.5 -19.5q-36 0 -77 8
t-76 27.5t-58 51t-23 78.5q0 49 23.5 82t56.5 55.5t68 38t57 30.5q13 9 19 36.5t12 62t14.5 71t24.5 62.5q23 37 55 62.5t67 41.5t70 23.5t63 7.5t55.5 -6t49.5 -19.5t35.5 -36.5t13.5 -57q0 -37 -19.5 -64t-49 -44.5t-64.5 -25.5t-67 -8q-17 0 -36 3.5t-36 10.5zM717 909
q22 0 37.5 -15.5t15.5 -37.5t-15.5 -37.5t-37.5 -15.5t-37.5 15.5t-15.5 37.5t15.5 37.5t37.5 15.5zM521 909q22 0 37.5 -15.5t15.5 -37.5t-15.5 -37.5t-37.5 -15.5t-37.5 15.5t-15.5 37.5t15.5 37.5t37.5 15.5z" />
    <glyph glyph-name="Igrave" unicode="&#xcc;" horiz-adv-x="722" 
d="M487 503q11 -16 18 -34.5t7 -39.5q0 -39 -20.5 -69.5t-51.5 -51t-67.5 -31.5t-68.5 -11q-30 0 -55 10.5t-43.5 28.5t-29 43t-10.5 55q0 72 44.5 122t114 82.5t153 50.5t162 26.5t141 10t89.5 1.5q49 0 82.5 4t58 9t42.5 9t35 4q18 0 30.5 -5.5t12.5 -19.5
q0 -11 -13.5 -16t-32.5 -5q-30 0 -49.5 3t-31.5 3q-40 0 -81 -24t-82.5 -69t-83.5 -109.5t-83 -146.5q-48 -95 -104.5 -161.5t-119.5 -108t-132 -60.5t-142 -19q-45 0 -84.5 10.5t-68.5 29.5t-46 45.5t-17 58.5q0 35 22 56.5t56 21.5q29 0 42.5 -20t13.5 -45
q0 -19 -11 -32.5t-27 -18.5q5 -47 37 -70.5t83 -23.5q71 0 127 36t100 88.5t77 112.5t59 108q40 74 80.5 127.5t90 93.5t110.5 68.5t142 51.5l-1 2q-70 0 -148.5 -5t-155 -17t-146 -32t-122 -51.5t-84 -75t-31.5 -101.5q0 -42 25.5 -71t67.5 -29q26 0 49.5 11.5t42.5 29.5
t30 40.5t11 43.5q0 40 -22 71zM760 890q0 17 11 26t27 9q18 0 23 -11t10.5 -28.5t17.5 -39t42 -41.5q23 -15 33 -21.5t10 -12.5q0 -12 -11 -12q-8 0 -34.5 12.5t-55 32t-51 42.5t-22.5 44z" />
    <glyph glyph-name="Iacute" unicode="&#xcd;" horiz-adv-x="722" 
d="M487 503q11 -16 18 -34.5t7 -39.5q0 -39 -20.5 -69.5t-51.5 -51t-67.5 -31.5t-68.5 -11q-30 0 -55 10.5t-43.5 28.5t-29 43t-10.5 55q0 72 44.5 122t114 82.5t153 50.5t162 26.5t141 10t89.5 1.5q49 0 82.5 4t58 9t42.5 9t35 4q18 0 30.5 -5.5t12.5 -19.5
q0 -11 -13.5 -16t-32.5 -5q-30 0 -49.5 3t-31.5 3q-40 0 -81 -24t-82.5 -69t-83.5 -109.5t-83 -146.5q-48 -95 -104.5 -161.5t-119.5 -108t-132 -60.5t-142 -19q-45 0 -84.5 10.5t-68.5 29.5t-46 45.5t-17 58.5q0 35 22 56.5t56 21.5q29 0 42.5 -20t13.5 -45
q0 -19 -11 -32.5t-27 -18.5q5 -47 37 -70.5t83 -23.5q71 0 127 36t100 88.5t77 112.5t59 108q40 74 80.5 127.5t90 93.5t110.5 68.5t142 51.5l-1 2q-70 0 -148.5 -5t-155 -17t-146 -32t-122 -51.5t-84 -75t-31.5 -101.5q0 -42 25.5 -71t67.5 -29q26 0 49.5 11.5t42.5 29.5
t30 40.5t11 43.5q0 40 -22 71zM1021 890q0 -21 -22.5 -44t-51 -42.5t-55 -32t-34.5 -12.5q-11 0 -11 12q0 6 10 12.5t33 21.5q30 20 42 41.5t17.5 39t10.5 28.5t23 11q16 0 27 -9t11 -26z" />
    <glyph glyph-name="Icircumflex" unicode="&#xce;" horiz-adv-x="722" 
d="M487 503q11 -16 18 -34.5t7 -39.5q0 -39 -20.5 -69.5t-51.5 -51t-67.5 -31.5t-68.5 -11q-30 0 -55 10.5t-43.5 28.5t-29 43t-10.5 55q0 72 44.5 122t114 82.5t153 50.5t162 26.5t141 10t89.5 1.5q49 0 82.5 4t58 9t42.5 9t35 4q18 0 30.5 -5.5t12.5 -19.5
q0 -11 -13.5 -16t-32.5 -5q-30 0 -49.5 3t-31.5 3q-40 0 -81 -24t-82.5 -69t-83.5 -109.5t-83 -146.5q-48 -95 -104.5 -161.5t-119.5 -108t-132 -60.5t-142 -19q-45 0 -84.5 10.5t-68.5 29.5t-46 45.5t-17 58.5q0 35 22 56.5t56 21.5q29 0 42.5 -20t13.5 -45
q0 -19 -11 -32.5t-27 -18.5q5 -47 37 -70.5t83 -23.5q71 0 127 36t100 88.5t77 112.5t59 108q40 74 80.5 127.5t90 93.5t110.5 68.5t142 51.5l-1 2q-70 0 -148.5 -5t-155 -17t-146 -32t-122 -51.5t-84 -75t-31.5 -101.5q0 -42 25.5 -71t67.5 -29q26 0 49.5 11.5t42.5 29.5
t30 40.5t11 43.5q0 40 -22 71zM924 927q3 -19 16.5 -44t28.5 -49t27 -43t12 -26q0 -14 -13 -14q-7 0 -18.5 10.5t-25 26t-27 32.5t-22.5 30q-10 -10 -28.5 -26.5t-39.5 -32t-42 -26.5t-36 -11q-10 0 -10 10q0 9 14 19t36.5 28t49.5 45.5t54 70.5h24z" />
    <glyph glyph-name="Idieresis" unicode="&#xcf;" horiz-adv-x="722" 
d="M487 503q11 -16 18 -34.5t7 -39.5q0 -39 -20.5 -69.5t-51.5 -51t-67.5 -31.5t-68.5 -11q-30 0 -55 10.5t-43.5 28.5t-29 43t-10.5 55q0 72 44.5 122t114 82.5t153 50.5t162 26.5t141 10t89.5 1.5q49 0 82.5 4t58 9t42.5 9t35 4q18 0 30.5 -5.5t12.5 -19.5
q0 -11 -13.5 -16t-32.5 -5q-30 0 -49.5 3t-31.5 3q-40 0 -81 -24t-82.5 -69t-83.5 -109.5t-83 -146.5q-48 -95 -104.5 -161.5t-119.5 -108t-132 -60.5t-142 -19q-45 0 -84.5 10.5t-68.5 29.5t-46 45.5t-17 58.5q0 35 22 56.5t56 21.5q29 0 42.5 -20t13.5 -45
q0 -19 -11 -32.5t-27 -18.5q5 -47 37 -70.5t83 -23.5q71 0 127 36t100 88.5t77 112.5t59 108q40 74 80.5 127.5t90 93.5t110.5 68.5t142 51.5l-1 2q-70 0 -148.5 -5t-155 -17t-146 -32t-122 -51.5t-84 -75t-31.5 -101.5q0 -42 25.5 -71t67.5 -29q26 0 49.5 11.5t42.5 29.5
t30 40.5t11 43.5q0 40 -22 71zM989 909q22 0 37.5 -15.5t15.5 -37.5t-15.5 -37.5t-37.5 -15.5t-37.5 15.5t-15.5 37.5t15.5 37.5t37.5 15.5zM793 909q22 0 37.5 -15.5t15.5 -37.5t-15.5 -37.5t-37.5 -15.5t-37.5 15.5t-15.5 37.5t15.5 37.5t37.5 15.5z" />
    <glyph glyph-name="Eth" unicode="&#xd0;" horiz-adv-x="1000" 
d="M554 362q25 46 50 88t53.5 78.5t61.5 67.5t72 55q-37 26 -97.5 42.5t-145.5 16.5q-67 0 -137.5 -28t-129 -77t-96 -115.5t-37.5 -144.5q0 -25 5 -48.5t16.5 -41.5t31 -29t48.5 -11q39 0 69.5 20.5t51.5 52t31.5 69t10.5 71.5q0 30 -6 65t-20 69l10 4q14 -33 21 -68.5
t7 -63.5q0 -58 -17.5 -104t-48.5 -78t-73 -49.5t-92 -17.5q-37 0 -67 14t-51 38t-32 55.5t-11 65.5q0 56 22.5 104.5t61 89t90 72.5t110 53.5t121 33t122.5 11.5q69 0 134.5 -14.5t116.5 -46.5q56 33 117 50t125 23v-12q-57 -4 -110 -24.5t-92 -64.5q27 -21 51 -49t42 -62
t28.5 -72.5t10.5 -82.5q0 -76 -23.5 -134.5t-64 -101t-95 -71t-117 -45.5t-130 -24t-133.5 -7q-60 0 -103.5 5t-60.5 7q-27 -4 -62 -8t-70 -4q-45 0 -69.5 9t-24.5 27q0 10 10 17t34 7q29 0 78 -10t109 -22q39 6 71.5 28t62.5 57t58.5 82t58.5 104q9 17 18 33.5t18 33.5h-81
q-14 0 -14 6t14 6h88zM685 350q-30 -55 -63.5 -106.5t-79 -95.5t-106.5 -80t-146 -61v-2q28 -5 67.5 -7t74.5 -2q74 0 135.5 21.5t109.5 57.5t83.5 84t59 100t35 106t11.5 102q0 38 -6.5 76t-29.5 69q-43 -64 -75 -127t-64 -123h75q14 0 14 -6t-14 -6h-81z" />
    <glyph glyph-name="Ntilde" unicode="&#xd1;" horiz-adv-x="907" 
d="M650 -26q2 22 2 39v41q0 57 -13 112t-30.5 109.5t-35.5 111t-28 116.5l-2 3q-23 -43 -50 -98t-59 -112.5t-70.5 -112t-84 -97t-100 -68.5t-118.5 -26q-32 0 -57.5 9t-42.5 24.5t-26 36t-9 42.5q0 33 17.5 57.5t52.5 24.5q25 0 41.5 -15.5t16.5 -41.5t-13 -41.5t-39 -17.5
q2 -26 24.5 -42t61.5 -16q55 0 104.5 26.5t92.5 70t80 99t69 113.5t59 113.5t49 98.5q-1 7 -1.5 13t-0.5 13q0 37 8.5 68.5t27 54t48.5 35.5t73 13q-18 -26 -29.5 -54t-11.5 -59q0 -48 13.5 -98t30 -103t30 -108t12.5 -112h2q13 31 37.5 81t57 108t72 116.5t83 105.5t90 77
t92.5 30q20 0 38 -4.5t31.5 -15.5t22 -28t8.5 -43q0 -27 -12.5 -51t-32.5 -42t-45 -29.5t-51 -15.5l-5 7q29 8 48.5 28t19.5 49q0 38 -21.5 56.5t-57.5 18.5q-48 0 -96.5 -40.5t-95 -103.5t-89 -140.5t-77 -152t-59 -137t-36.5 -96.5h-16zM979 845q17 0 26 7t14 16t8 16t9 7
q7 0 8.5 -3.5t1.5 -10.5q0 -6 -3 -20t-11.5 -28t-22.5 -25t-37 -11q-20 0 -41 6.5t-41 14.5t-38.5 14.5t-32.5 6.5q-10 0 -18 -7t-14.5 -16t-12.5 -16t-12 -7q-7 0 -8.5 5t-1.5 9q0 5 4.5 18t13.5 27t23 24.5t34 10.5q17 0 37.5 -5.5t40.5 -13.5q21 -8 40.5 -13.5t33.5 -5.5
z" />
    <glyph glyph-name="Ograve" unicode="&#xd2;" horiz-adv-x="778" 
d="M888 254q-36 -30 -81.5 -47.5t-102.5 -17.5q-28 0 -50 7q-34 -40 -75.5 -78.5t-89.5 -68t-101.5 -47.5t-111.5 -18q-46 0 -81 15.5t-58 43t-35 65t-12 80.5q0 85 41.5 168t108 151t148.5 113t163 54q22 19 49 33.5t69 14.5q27 0 50 -12.5t39.5 -35t26 -54.5t9.5 -71
q0 -44 -10 -90t-28 -90.5t-42 -85.5t-52 -75q12 -3 23.5 -5t22.5 -2q35 0 60.5 6t46 15t37.5 20t33 21zM230 168q0 -28 7 -55.5t22 -49.5t38 -35.5t54 -13.5q40 0 77 19.5t69 50t58.5 66.5t45.5 69q-63 35 -103 88t-40 135q0 71 23.5 124.5t58.5 91.5l-2 2q-56 -12 -111 -59
t-99 -115.5t-71 -151.5t-27 -166zM508 468q0 -83 25.5 -146.5t72.5 -90.5q37 84 58.5 165t21.5 173q0 57 -18 92t-48 35q-14 0 -27.5 -6.5t-24.5 -15.5q38 -2 60.5 -25t22.5 -61q0 -26 -7.5 -45.5t-18.5 -42.5l-11 4q12 26 18.5 45.5t6.5 35.5q0 34 -21 55.5t-58 21.5
q-29 -36 -40.5 -85.5t-11.5 -108.5zM525 890q0 17 11 26t27 9q18 0 23 -11t10.5 -28.5t17.5 -39t42 -41.5q23 -15 33 -21.5t10 -12.5q0 -12 -11 -12q-8 0 -34.5 12.5t-55 32t-51 42.5t-22.5 44z" />
    <glyph glyph-name="Oacute" unicode="&#xd3;" horiz-adv-x="778" 
d="M888 254q-36 -30 -81.5 -47.5t-102.5 -17.5q-28 0 -50 7q-34 -40 -75.5 -78.5t-89.5 -68t-101.5 -47.5t-111.5 -18q-46 0 -81 15.5t-58 43t-35 65t-12 80.5q0 85 41.5 168t108 151t148.5 113t163 54q22 19 49 33.5t69 14.5q27 0 50 -12.5t39.5 -35t26 -54.5t9.5 -71
q0 -44 -10 -90t-28 -90.5t-42 -85.5t-52 -75q12 -3 23.5 -5t22.5 -2q35 0 60.5 6t46 15t37.5 20t33 21zM230 168q0 -28 7 -55.5t22 -49.5t38 -35.5t54 -13.5q40 0 77 19.5t69 50t58.5 66.5t45.5 69q-63 35 -103 88t-40 135q0 71 23.5 124.5t58.5 91.5l-2 2q-56 -12 -111 -59
t-99 -115.5t-71 -151.5t-27 -166zM508 468q0 -83 25.5 -146.5t72.5 -90.5q37 84 58.5 165t21.5 173q0 57 -18 92t-48 35q-14 0 -27.5 -6.5t-24.5 -15.5q38 -2 60.5 -25t22.5 -61q0 -26 -7.5 -45.5t-18.5 -42.5l-11 4q12 26 18.5 45.5t6.5 35.5q0 34 -21 55.5t-58 21.5
q-29 -36 -40.5 -85.5t-11.5 -108.5zM786 890q0 -21 -22.5 -44t-51 -42.5t-55 -32t-34.5 -12.5q-11 0 -11 12q0 6 10 12.5t33 21.5q30 20 42 41.5t17.5 39t10.5 28.5t23 11q16 0 27 -9t11 -26z" />
    <glyph glyph-name="Ocircumflex" unicode="&#xd4;" horiz-adv-x="778" 
d="M888 254q-36 -30 -81.5 -47.5t-102.5 -17.5q-28 0 -50 7q-34 -40 -75.5 -78.5t-89.5 -68t-101.5 -47.5t-111.5 -18q-46 0 -81 15.5t-58 43t-35 65t-12 80.5q0 85 41.5 168t108 151t148.5 113t163 54q22 19 49 33.5t69 14.5q27 0 50 -12.5t39.5 -35t26 -54.5t9.5 -71
q0 -44 -10 -90t-28 -90.5t-42 -85.5t-52 -75q12 -3 23.5 -5t22.5 -2q35 0 60.5 6t46 15t37.5 20t33 21zM230 168q0 -28 7 -55.5t22 -49.5t38 -35.5t54 -13.5q40 0 77 19.5t69 50t58.5 66.5t45.5 69q-63 35 -103 88t-40 135q0 71 23.5 124.5t58.5 91.5l-2 2q-56 -12 -111 -59
t-99 -115.5t-71 -151.5t-27 -166zM508 468q0 -83 25.5 -146.5t72.5 -90.5q37 84 58.5 165t21.5 173q0 57 -18 92t-48 35q-14 0 -27.5 -6.5t-24.5 -15.5q38 -2 60.5 -25t22.5 -61q0 -26 -7.5 -45.5t-18.5 -42.5l-11 4q12 26 18.5 45.5t6.5 35.5q0 34 -21 55.5t-58 21.5
q-29 -36 -40.5 -85.5t-11.5 -108.5zM689 927q3 -19 16.5 -44t28.5 -49t27 -43t12 -26q0 -14 -13 -14q-7 0 -18.5 10.5t-25 26t-27 32.5t-22.5 30q-10 -10 -28.5 -26.5t-39.5 -32t-42 -26.5t-36 -11q-10 0 -10 10q0 9 14 19t36.5 28t49.5 45.5t54 70.5h24z" />
    <glyph glyph-name="Otilde" unicode="&#xd5;" horiz-adv-x="778" 
d="M888 254q-36 -30 -81.5 -47.5t-102.5 -17.5q-28 0 -50 7q-34 -40 -75.5 -78.5t-89.5 -68t-101.5 -47.5t-111.5 -18q-46 0 -81 15.5t-58 43t-35 65t-12 80.5q0 85 41.5 168t108 151t148.5 113t163 54q22 19 49 33.5t69 14.5q27 0 50 -12.5t39.5 -35t26 -54.5t9.5 -71
q0 -44 -10 -90t-28 -90.5t-42 -85.5t-52 -75q12 -3 23.5 -5t22.5 -2q35 0 60.5 6t46 15t37.5 20t33 21zM230 168q0 -28 7 -55.5t22 -49.5t38 -35.5t54 -13.5q40 0 77 19.5t69 50t58.5 66.5t45.5 69q-63 35 -103 88t-40 135q0 71 23.5 124.5t58.5 91.5l-2 2q-56 -12 -111 -59
t-99 -115.5t-71 -151.5t-27 -166zM508 468q0 -83 25.5 -146.5t72.5 -90.5q37 84 58.5 165t21.5 173q0 57 -18 92t-48 35q-14 0 -27.5 -6.5t-24.5 -15.5q38 -2 60.5 -25t22.5 -61q0 -26 -7.5 -45.5t-18.5 -42.5l-11 4q12 26 18.5 45.5t6.5 35.5q0 34 -21 55.5t-58 21.5
q-29 -36 -40.5 -85.5t-11.5 -108.5zM741 845q17 0 26 7t14 16t8 16t9 7q7 0 8.5 -3.5t1.5 -10.5q0 -6 -3 -20t-11.5 -28t-22.5 -25t-37 -11q-20 0 -41 6.5t-41 14.5t-38.5 14.5t-32.5 6.5q-10 0 -18 -7t-14.5 -16t-12.5 -16t-12 -7q-7 0 -8.5 5t-1.5 9q0 5 4.5 18t13.5 27
t23 24.5t34 10.5q17 0 37.5 -5.5t40.5 -13.5q21 -8 40.5 -13.5t33.5 -5.5z" />
    <glyph glyph-name="Odieresis" unicode="&#xd6;" horiz-adv-x="778" 
d="M888 254q-36 -30 -81.5 -47.5t-102.5 -17.5q-28 0 -50 7q-34 -40 -75.5 -78.5t-89.5 -68t-101.5 -47.5t-111.5 -18q-46 0 -81 15.5t-58 43t-35 65t-12 80.5q0 85 41.5 168t108 151t148.5 113t163 54q22 19 49 33.5t69 14.5q27 0 50 -12.5t39.5 -35t26 -54.5t9.5 -71
q0 -44 -10 -90t-28 -90.5t-42 -85.5t-52 -75q12 -3 23.5 -5t22.5 -2q35 0 60.5 6t46 15t37.5 20t33 21zM230 168q0 -28 7 -55.5t22 -49.5t38 -35.5t54 -13.5q40 0 77 19.5t69 50t58.5 66.5t45.5 69q-63 35 -103 88t-40 135q0 71 23.5 124.5t58.5 91.5l-2 2q-56 -12 -111 -59
t-99 -115.5t-71 -151.5t-27 -166zM508 468q0 -83 25.5 -146.5t72.5 -90.5q37 84 58.5 165t21.5 173q0 57 -18 92t-48 35q-14 0 -27.5 -6.5t-24.5 -15.5q38 -2 60.5 -25t22.5 -61q0 -26 -7.5 -45.5t-18.5 -42.5l-11 4q12 26 18.5 45.5t6.5 35.5q0 34 -21 55.5t-58 21.5
q-29 -36 -40.5 -85.5t-11.5 -108.5zM754 909q22 0 37.5 -15.5t15.5 -37.5t-15.5 -37.5t-37.5 -15.5t-37.5 15.5t-15.5 37.5t15.5 37.5t37.5 15.5zM558 909q22 0 37.5 -15.5t15.5 -37.5t-15.5 -37.5t-37.5 -15.5t-37.5 15.5t-15.5 37.5t15.5 37.5t37.5 15.5z" />
    <glyph glyph-name="multiply" unicode="&#xd7;" horiz-adv-x="600" 
d="M195 329l77 39l54 -158l272 164l6 -16l-272 -164l58 -157l-80 -39l-52 155l-251 -153l-8 16l254 153z" />
    <glyph glyph-name="Oslash" unicode="&#xd8;" horiz-adv-x="759" 
d="M217 -6q-34 12 -58 33t-38 48.5t-20.5 59.5t-6.5 66q0 58 21 115t56 108.5t81.5 95.5t97.5 76t104.5 50t101.5 18q41 0 66 -22l21 34q-20 26 -50 40t-61 14q-33 0 -63 -11t-57.5 -28t-52.5 -39t-46 -45l-7 5q9 11 30 33.5t53 45t74.5 39t96.5 16.5q29 0 57.5 -5.5
t54.5 -17.5l54 86l9 -5l-52 -86q50 -28 73.5 -75t23.5 -103q0 -66 -19.5 -133t-54 -128.5t-82 -115.5t-104 -93.5t-120 -62.5t-129.5 -23q-11 0 -21.5 1t-21.5 3l-50 -80l-10 6zM616 632q-8 11 -24.5 15.5t-33.5 4.5q-35 0 -72.5 -19t-74 -52.5t-69.5 -78.5t-58 -98
t-39.5 -110.5t-14.5 -115.5q0 -29 6.5 -61t25.5 -55zM269 53q14 -21 38 -30t49 -9q49 0 92.5 26t80 68t65 95.5t49 109.5t31 109t10.5 94t-5 79.5t-29 72.5l-21 -34q9 -11 13 -26.5t4 -28.5q0 -20 -6.5 -40.5t-17.5 -40.5l-10 4q9 17 15.5 37.5t6.5 38.5q0 11 -2 22.5
t-9 22.5z" />
    <glyph glyph-name="Ugrave" unicode="&#xd9;" horiz-adv-x="944" 
d="M1066 692q-16 -25 -50 -76t-75.5 -114t-85 -133t-79.5 -133.5t-59 -114t-23 -76.5q0 -43 36 -43q15 0 35.5 7t44 20t48 31t47.5 40q24 23 46 46.5t41.5 45.5t35.5 41t26 32l7 -7q-35 -42 -77 -91.5t-90 -92t-101.5 -70.5t-111.5 -28q-50 0 -76.5 27.5t-26.5 72.5
q0 26 8.5 52t21.5 49l-2 2q-30 -34 -63.5 -67.5t-71.5 -60t-80.5 -43t-90.5 -16.5q-42 0 -65 23t-23 68q0 39 21 85.5t52 96t68 101t68 100.5t52 94t21 82q0 30 -18 47t-48 17q-44 0 -84 -21t-71 -55t-49 -75.5t-18 -82.5q0 -34 12.5 -59t51.5 -25q19 0 35.5 9t30.5 23
t24.5 30t17.5 31l9 -2q-3 -7 -5.5 -13t-7.5 -14q-23 -38 -55 -64t-83 -26q-46 0 -68 28t-22 70q0 55 30 103t76 83t101.5 55.5t106.5 20.5q68 0 109 -28t41 -88q0 -30 -21 -74.5t-52 -96t-68 -106t-68 -104t-52 -91t-21 -66.5q0 -21 9.5 -33.5t27.5 -12.5q31 0 82.5 32
t116.5 99q21 22 51 61.5t64 89t69.5 104t68 107t59 97.5t42.5 74zM677 890q0 17 11 26t27 9q18 0 23 -11t10.5 -28.5t17.5 -39t42 -41.5q23 -15 33 -21.5t10 -12.5q0 -12 -11 -12q-8 0 -34.5 12.5t-55 32t-51 42.5t-22.5 44z" />
    <glyph glyph-name="Uacute" unicode="&#xda;" horiz-adv-x="944" 
d="M1066 692q-16 -25 -50 -76t-75.5 -114t-85 -133t-79.5 -133.5t-59 -114t-23 -76.5q0 -43 36 -43q15 0 35.5 7t44 20t48 31t47.5 40q24 23 46 46.5t41.5 45.5t35.5 41t26 32l7 -7q-35 -42 -77 -91.5t-90 -92t-101.5 -70.5t-111.5 -28q-50 0 -76.5 27.5t-26.5 72.5
q0 26 8.5 52t21.5 49l-2 2q-30 -34 -63.5 -67.5t-71.5 -60t-80.5 -43t-90.5 -16.5q-42 0 -65 23t-23 68q0 39 21 85.5t52 96t68 101t68 100.5t52 94t21 82q0 30 -18 47t-48 17q-44 0 -84 -21t-71 -55t-49 -75.5t-18 -82.5q0 -34 12.5 -59t51.5 -25q19 0 35.5 9t30.5 23
t24.5 30t17.5 31l9 -2q-3 -7 -5.5 -13t-7.5 -14q-23 -38 -55 -64t-83 -26q-46 0 -68 28t-22 70q0 55 30 103t76 83t101.5 55.5t106.5 20.5q68 0 109 -28t41 -88q0 -30 -21 -74.5t-52 -96t-68 -106t-68 -104t-52 -91t-21 -66.5q0 -21 9.5 -33.5t27.5 -12.5q31 0 82.5 32
t116.5 99q21 22 51 61.5t64 89t69.5 104t68 107t59 97.5t42.5 74zM938 890q0 -21 -22.5 -44t-51 -42.5t-55 -32t-34.5 -12.5q-11 0 -11 12q0 6 10 12.5t33 21.5q30 20 42 41.5t17.5 39t10.5 28.5t23 11q16 0 27 -9t11 -26z" />
    <glyph glyph-name="Ucircumflex" unicode="&#xdb;" horiz-adv-x="944" 
d="M1066 692q-16 -25 -50 -76t-75.5 -114t-85 -133t-79.5 -133.5t-59 -114t-23 -76.5q0 -43 36 -43q15 0 35.5 7t44 20t48 31t47.5 40q24 23 46 46.5t41.5 45.5t35.5 41t26 32l7 -7q-35 -42 -77 -91.5t-90 -92t-101.5 -70.5t-111.5 -28q-50 0 -76.5 27.5t-26.5 72.5
q0 26 8.5 52t21.5 49l-2 2q-30 -34 -63.5 -67.5t-71.5 -60t-80.5 -43t-90.5 -16.5q-42 0 -65 23t-23 68q0 39 21 85.5t52 96t68 101t68 100.5t52 94t21 82q0 30 -18 47t-48 17q-44 0 -84 -21t-71 -55t-49 -75.5t-18 -82.5q0 -34 12.5 -59t51.5 -25q19 0 35.5 9t30.5 23
t24.5 30t17.5 31l9 -2q-3 -7 -5.5 -13t-7.5 -14q-23 -38 -55 -64t-83 -26q-46 0 -68 28t-22 70q0 55 30 103t76 83t101.5 55.5t106.5 20.5q68 0 109 -28t41 -88q0 -30 -21 -74.5t-52 -96t-68 -106t-68 -104t-52 -91t-21 -66.5q0 -21 9.5 -33.5t27.5 -12.5q31 0 82.5 32
t116.5 99q21 22 51 61.5t64 89t69.5 104t68 107t59 97.5t42.5 74zM841 927q3 -19 16.5 -44t28.5 -49t27 -43t12 -26q0 -14 -13 -14q-7 0 -18.5 10.5t-25 26t-27 32.5t-22.5 30q-10 -10 -28.5 -26.5t-39.5 -32t-42 -26.5t-36 -11q-10 0 -10 10q0 9 14 19t36.5 28t49.5 45.5
t54 70.5h24z" />
    <glyph glyph-name="Udieresis" unicode="&#xdc;" horiz-adv-x="944" 
d="M1066 692q-16 -25 -50 -76t-75.5 -114t-85 -133t-79.5 -133.5t-59 -114t-23 -76.5q0 -43 36 -43q15 0 35.5 7t44 20t48 31t47.5 40q24 23 46 46.5t41.5 45.5t35.5 41t26 32l7 -7q-35 -42 -77 -91.5t-90 -92t-101.5 -70.5t-111.5 -28q-50 0 -76.5 27.5t-26.5 72.5
q0 26 8.5 52t21.5 49l-2 2q-30 -34 -63.5 -67.5t-71.5 -60t-80.5 -43t-90.5 -16.5q-42 0 -65 23t-23 68q0 39 21 85.5t52 96t68 101t68 100.5t52 94t21 82q0 30 -18 47t-48 17q-44 0 -84 -21t-71 -55t-49 -75.5t-18 -82.5q0 -34 12.5 -59t51.5 -25q19 0 35.5 9t30.5 23
t24.5 30t17.5 31l9 -2q-3 -7 -5.5 -13t-7.5 -14q-23 -38 -55 -64t-83 -26q-46 0 -68 28t-22 70q0 55 30 103t76 83t101.5 55.5t106.5 20.5q68 0 109 -28t41 -88q0 -30 -21 -74.5t-52 -96t-68 -106t-68 -104t-52 -91t-21 -66.5q0 -21 9.5 -33.5t27.5 -12.5q31 0 82.5 32
t116.5 99q21 22 51 61.5t64 89t69.5 104t68 107t59 97.5t42.5 74zM906 909q22 0 37.5 -15.5t15.5 -37.5t-15.5 -37.5t-37.5 -15.5t-37.5 15.5t-15.5 37.5t15.5 37.5t37.5 15.5zM710 909q22 0 37.5 -15.5t15.5 -37.5t-15.5 -37.5t-37.5 -15.5t-37.5 15.5t-15.5 37.5
t15.5 37.5t37.5 15.5z" />
    <glyph glyph-name="Yacute" unicode="&#xdd;" horiz-adv-x="852" 
d="M1088 686q-53 -75 -109.5 -163.5t-116.5 -183.5t-123 -193.5t-128 -194.5q-46 -69 -101.5 -118.5t-114.5 -81t-118 -46.5t-113 -15q-49 0 -91 9t-73 27t-48.5 45.5t-17.5 65.5q0 31 14.5 55.5t37.5 40.5t51 24.5t55 8.5q28 0 55 -6t53 -15l-2 -9q-11 4 -23.5 7t-26.5 3
q-19 0 -36.5 -9.5t-30 -26t-20 -37.5t-7.5 -45q0 -61 31.5 -93.5t78.5 -32.5q67 0 124 40t112 106.5t111 154t120 181.5l-2 2q-30 -34 -63.5 -68.5t-72.5 -63t-83.5 -46.5t-96.5 -18q-46 0 -67.5 24.5t-21.5 62.5q0 37 21.5 83t54 97t70.5 103.5t70.5 102.5t54 95t21.5 80
q0 27 -17.5 47.5t-56.5 20.5q-30 0 -68 -18t-71.5 -50t-56 -76.5t-22.5 -97.5q0 -34 13.5 -56t42.5 -22q42 0 69 27.5t46 64.5l8 -3q-7 -15 -19.5 -34.5t-31 -37.5t-42.5 -30.5t-54 -12.5q-90 0 -90 94q0 50 27.5 98t72 85.5t101 61t113.5 23.5q31 0 58 -6.5t47 -20.5
t31.5 -36.5t11.5 -55.5q0 -29 -12.5 -61t-30.5 -63.5t-38.5 -61.5t-37.5 -56q-10 -15 -26 -38t-34 -50.5t-37 -57.5t-34 -58.5t-24.5 -54t-9.5 -44.5q0 -38 37 -38q30 0 71 23t86.5 64.5t92 98t88.5 123.5l218 351zM916 890q0 -21 -22.5 -44t-51 -42.5t-55 -32t-34.5 -12.5
q-11 0 -11 12q0 6 10 12.5t33 21.5q30 20 42 41.5t17.5 39t10.5 28.5t23 11q16 0 27 -9t11 -26z" />
    <glyph glyph-name="Thorn" unicode="&#xde;" horiz-adv-x="944" 
d="M387 523q27 58 67.5 96t93 61t116 32.5t136.5 9.5q31 0 63.5 -1.5t50.5 -3.5v-10q-34 -3 -70 -27.5t-69.5 -61t-63 -79.5t-52.5 -83l2 -2q11 16 29.5 35.5t41 36.5t48 28.5t50.5 11.5q49 0 77.5 -24.5t28.5 -71.5q0 -38 -17 -81t-54 -79t-96.5 -59.5t-145.5 -23.5
q-18 0 -32.5 2t-23.5 4l4 10q11 -2 21.5 -3t24.5 -1q47 0 84 21.5t62.5 52.5t39 65.5t13.5 59.5q0 30 -11 43t-31 13q-30 0 -65 -25.5t-73 -79.5q-33 -47 -63 -95t-60.5 -93t-64 -84.5t-72 -69t-85 -46.5t-103.5 -17q-79 0 -126.5 30t-47.5 84q0 32 19 57t54 25
q28 0 42.5 -18t14.5 -41q0 -24 -10.5 -36t-25.5 -17q3 -32 21.5 -52t55.5 -20q34 0 65.5 25.5t62 68.5t62.5 99.5t68 117.5t77 122.5t90.5 115.5t108.5 96.5t130 64.5v2q-11 1 -22 1.5t-28 0.5q-42 0 -83.5 -9.5t-80 -31t-73 -57.5t-62.5 -89h-113z" />
    <glyph glyph-name="germandbls" unicode="&#xdf;" horiz-adv-x="648" 
d="M769 255q-18 -22 -38 -48t-44 -53t-52 -53.5t-63 -50.5q-51 -35 -103.5 -50.5t-121.5 -15.5q-33 0 -60.5 8.5t-47.5 23.5t-31 36t-11 46q0 38 23 62t59 24q24 0 39 -15t15 -35q0 -26 -14.5 -39t-37.5 -13q-4 0 -8 0.5t-8 0.5q-3 -6 -3 -22q0 -21 16 -41t51 -20
q42 0 65.5 25.5t23.5 63.5q0 26 -9.5 49t-20.5 44t-20.5 44t-9.5 49q0 49 36 79.5t121 53.5q35 9 54.5 21t33.5 38q20 39 27.5 76t7.5 64q0 51 -17.5 69t-46.5 18q-45 0 -91 -35t-90.5 -89t-84.5 -119.5t-72 -126.5q-30 -56 -64.5 -124.5t-76 -138.5t-91.5 -135.5
t-109.5 -116.5t-131 -82t-155.5 -31q-36 0 -76.5 6.5t-74 23t-55.5 43.5t-22 68q0 36 16 61.5t43.5 42t64 24t78.5 7.5q20 0 36 -2.5t30 -6.5v-8q-7 1 -16 1h-19q-26 0 -47 -9t-35.5 -24.5t-22.5 -36.5t-8 -44q0 -28 8 -52.5t23 -42.5t37 -28.5t51 -10.5q67 0 123.5 45.5
t115.5 132.5t126.5 212.5t156.5 285.5q37 66 85 125t104.5 102.5t120 69t132.5 25.5q82 0 128.5 -33t46.5 -96q0 -44 -20.5 -70.5t-52 -44t-67.5 -30t-67.5 -28t-52 -38t-20.5 -59.5q0 -30 9.5 -55t20.5 -47t20.5 -42.5t9.5 -42.5q0 -35 -16 -62.5t-48 -42.5v-2
q45 14 86.5 43t77.5 64t67 73t55 69z" />
    <glyph glyph-name="agrave" unicode="&#xe0;" horiz-adv-x="556" 
d="M562 360q-11 -16 -28.5 -41t-37.5 -54t-40 -60.5t-36.5 -61.5t-27 -56t-10.5 -44q0 -29 23 -29q21 0 49.5 20t62.5 53.5t71 78.5t75 95l6 -4q-40 -51 -78 -99.5t-75.5 -86t-75 -60.5t-76.5 -23q-34 0 -52 11t-26.5 27.5t-10 34.5t-1.5 32l-3 2q-16 -19 -34.5 -38
t-40.5 -34.5t-46 -25t-51 -9.5q-48 0 -72.5 28.5t-24.5 91.5q0 44 22 90.5t62.5 85t96.5 63.5t123 25q39 0 59.5 -19.5t26.5 -48.5h2l26 52zM165 32q21 0 54 27t65 69t55 91.5t23 94.5q0 23 -13.5 34.5t-30.5 11.5q-21 0 -42.5 -14t-42 -37.5t-39 -53t-32.5 -60t-22 -60.5
t-8 -53q0 -17 6.5 -33.5t26.5 -16.5zM275 561q0 17 11 26t27 9q18 0 23 -11t10.5 -28.5t17.5 -39t42 -41.5q23 -15 33 -21.5t10 -12.5q0 -12 -11 -12q-8 0 -34.5 12.5t-55 32t-51 42.5t-22.5 44z" />
    <glyph glyph-name="aacute" unicode="&#xe1;" horiz-adv-x="556" 
d="M562 360q-11 -16 -28.5 -41t-37.5 -54t-40 -60.5t-36.5 -61.5t-27 -56t-10.5 -44q0 -29 23 -29q21 0 49.5 20t62.5 53.5t71 78.5t75 95l6 -4q-40 -51 -78 -99.5t-75.5 -86t-75 -60.5t-76.5 -23q-34 0 -52 11t-26.5 27.5t-10 34.5t-1.5 32l-3 2q-16 -19 -34.5 -38
t-40.5 -34.5t-46 -25t-51 -9.5q-48 0 -72.5 28.5t-24.5 91.5q0 44 22 90.5t62.5 85t96.5 63.5t123 25q39 0 59.5 -19.5t26.5 -48.5h2l26 52zM165 32q21 0 54 27t65 69t55 91.5t23 94.5q0 23 -13.5 34.5t-30.5 11.5q-21 0 -42.5 -14t-42 -37.5t-39 -53t-32.5 -60t-22 -60.5
t-8 -53q0 -17 6.5 -33.5t26.5 -16.5zM536 561q0 -21 -22.5 -44t-51 -42.5t-55 -32t-34.5 -12.5q-11 0 -11 12q0 6 10 12.5t33 21.5q30 20 42 41.5t17.5 39t10.5 28.5t23 11q16 0 27 -9t11 -26z" />
    <glyph glyph-name="acircumflex" unicode="&#xe2;" horiz-adv-x="556" 
d="M562 360q-11 -16 -28.5 -41t-37.5 -54t-40 -60.5t-36.5 -61.5t-27 -56t-10.5 -44q0 -29 23 -29q21 0 49.5 20t62.5 53.5t71 78.5t75 95l6 -4q-40 -51 -78 -99.5t-75.5 -86t-75 -60.5t-76.5 -23q-34 0 -52 11t-26.5 27.5t-10 34.5t-1.5 32l-3 2q-16 -19 -34.5 -38
t-40.5 -34.5t-46 -25t-51 -9.5q-48 0 -72.5 28.5t-24.5 91.5q0 44 22 90.5t62.5 85t96.5 63.5t123 25q39 0 59.5 -19.5t26.5 -48.5h2l26 52zM165 32q21 0 54 27t65 69t55 91.5t23 94.5q0 23 -13.5 34.5t-30.5 11.5q-21 0 -42.5 -14t-42 -37.5t-39 -53t-32.5 -60t-22 -60.5
t-8 -53q0 -17 6.5 -33.5t26.5 -16.5zM439 598q3 -19 16.5 -44t28.5 -49t27 -43t12 -26q0 -14 -13 -14q-7 0 -18.5 10.5t-25 26t-27 32.5t-22.5 30q-10 -10 -28.5 -26.5t-39.5 -32t-42 -26.5t-36 -11q-10 0 -10 10q0 9 14 19t36.5 28t49.5 45.5t54 70.5h24z" />
    <glyph glyph-name="atilde" unicode="&#xe3;" horiz-adv-x="556" 
d="M562 360q-11 -16 -28.5 -41t-37.5 -54t-40 -60.5t-36.5 -61.5t-27 -56t-10.5 -44q0 -29 23 -29q21 0 49.5 20t62.5 53.5t71 78.5t75 95l6 -4q-40 -51 -78 -99.5t-75.5 -86t-75 -60.5t-76.5 -23q-34 0 -52 11t-26.5 27.5t-10 34.5t-1.5 32l-3 2q-16 -19 -34.5 -38
t-40.5 -34.5t-46 -25t-51 -9.5q-48 0 -72.5 28.5t-24.5 91.5q0 44 22 90.5t62.5 85t96.5 63.5t123 25q39 0 59.5 -19.5t26.5 -48.5h2l26 52zM165 32q21 0 54 27t65 69t55 91.5t23 94.5q0 23 -13.5 34.5t-30.5 11.5q-21 0 -42.5 -14t-42 -37.5t-39 -53t-32.5 -60t-22 -60.5
t-8 -53q0 -17 6.5 -33.5t26.5 -16.5zM491 516q17 0 26 7t14 16t8 16t9 7q7 0 8.5 -3.5t1.5 -10.5q0 -6 -3 -20t-11.5 -28t-22.5 -25t-37 -11q-20 0 -41 6.5t-41 14.5t-38.5 14.5t-32.5 6.5q-10 0 -18 -7t-14.5 -16t-12.5 -16t-12 -7q-7 0 -8.5 5t-1.5 9q0 5 4.5 18t13.5 27
t23 24.5t34 10.5q17 0 37.5 -5.5t40.5 -13.5q21 -8 40.5 -13.5t33.5 -5.5z" />
    <glyph glyph-name="adieresis" unicode="&#xe4;" horiz-adv-x="556" 
d="M562 360q-11 -16 -28.5 -41t-37.5 -54t-40 -60.5t-36.5 -61.5t-27 -56t-10.5 -44q0 -29 23 -29q21 0 49.5 20t62.5 53.5t71 78.5t75 95l6 -4q-40 -51 -78 -99.5t-75.5 -86t-75 -60.5t-76.5 -23q-34 0 -52 11t-26.5 27.5t-10 34.5t-1.5 32l-3 2q-16 -19 -34.5 -38
t-40.5 -34.5t-46 -25t-51 -9.5q-48 0 -72.5 28.5t-24.5 91.5q0 44 22 90.5t62.5 85t96.5 63.5t123 25q39 0 59.5 -19.5t26.5 -48.5h2l26 52zM165 32q21 0 54 27t65 69t55 91.5t23 94.5q0 23 -13.5 34.5t-30.5 11.5q-21 0 -42.5 -14t-42 -37.5t-39 -53t-32.5 -60t-22 -60.5
t-8 -53q0 -17 6.5 -33.5t26.5 -16.5zM504 580q22 0 37.5 -15.5t15.5 -37.5t-15.5 -37.5t-37.5 -15.5t-37.5 15.5t-15.5 37.5t15.5 37.5t37.5 15.5zM308 580q22 0 37.5 -15.5t15.5 -37.5t-15.5 -37.5t-37.5 -15.5t-37.5 15.5t-15.5 37.5t15.5 37.5t37.5 15.5z" />
    <glyph glyph-name="aring" unicode="&#xe5;" horiz-adv-x="556" 
d="M562 360q-11 -16 -28.5 -41t-37.5 -54t-40 -60.5t-36.5 -61.5t-27 -56t-10.5 -44q0 -29 23 -29q21 0 49.5 20t62.5 53.5t71 78.5t75 95l6 -4q-40 -51 -78 -99.5t-75.5 -86t-75 -60.5t-76.5 -23q-34 0 -52 11t-26.5 27.5t-10 34.5t-1.5 32l-3 2q-16 -19 -34.5 -38
t-40.5 -34.5t-46 -25t-51 -9.5q-48 0 -72.5 28.5t-24.5 91.5q0 44 22 90.5t62.5 85t96.5 63.5t123 25q39 0 59.5 -19.5t26.5 -48.5h2l26 52zM165 32q21 0 54 27t65 69t55 91.5t23 94.5q0 23 -13.5 34.5t-30.5 11.5q-21 0 -42.5 -14t-42 -37.5t-39 -53t-32.5 -60t-22 -60.5
t-8 -53q0 -17 6.5 -33.5t26.5 -16.5zM289 497q0 25 11.5 46t30.5 36.5t43.5 24t50.5 8.5q14 0 29.5 -3.5t28 -12t20.5 -23t8 -36.5q0 -25 -12 -46t-31 -36.5t-43 -24t-47 -8.5q-35 0 -62 18.5t-27 56.5zM333 467q0 -35 34 -35q21 0 39 14.5t31.5 36t21.5 45t8 41.5
q0 17 -11.5 25t-27.5 8q-17 0 -34 -15.5t-30.5 -37.5t-22 -44.5t-8.5 -37.5z" />
    <glyph glyph-name="ae" unicode="&#xe6;" horiz-adv-x="722" 
d="M308 360q-21 0 -42.5 -14t-42 -37.5t-39 -53t-32.5 -60t-22 -60.5t-8 -53q0 -17 6.5 -33.5t26.5 -16.5q21 0 54 27t65 69t55 91.5t23 94.5q0 23 -13.5 34.5t-30.5 11.5zM518 360q39 12 76 12q48 0 79 -15.5t31 -50.5q0 -23 -16 -42.5t-41.5 -35t-57 -27.5t-62.5 -21.5
t-58.5 -16t-44.5 -10.5q-2 -10 -3 -20t-1 -20q0 -18 4 -35.5t13.5 -30.5t24.5 -21t37 -8q47 0 101 34.5t109 86.5q35 34 61.5 66t44.5 58l9 -6q-23 -33 -51.5 -66.5t-64.5 -68.5q-69 -66 -134 -100t-145 -34q-69 0 -102 32t-33 93q0 16 5 28l-2 2q-51 -78 -101.5 -116.5
t-106.5 -38.5q-48 0 -72.5 28.5t-24.5 91.5q0 44 22 90.5t62.5 85t96.5 63.5t123 25q39 0 59.5 -19.5t26.5 -48.5h2l26 52zM604 332q0 28 -28 28q-22 0 -47 -22.5t-46.5 -54t-37 -64.5t-19.5 -55q42 9 75 27.5t56 41.5t35 49t12 50z" />
    <glyph glyph-name="ccedilla" unicode="&#xe7;" horiz-adv-x="426" 
d="M544 259q-39 -50 -79.5 -97.5t-93.5 -90.5q-48 -39 -100.5 -61t-119.5 -22q-27 0 -53 7t-46 21t-32 36t-12 52q0 59 30 108t76.5 84.5t102 55.5t106.5 20q48 0 78 -16.5t30 -49.5q0 -21 -9 -36.5t-24.5 -26t-35.5 -15.5t-42 -5h-8q2 11 2.5 24.5t0.5 33.5q0 35 -6 53
t-25 18q-21 0 -46 -24t-47.5 -59.5t-37.5 -77t-15 -76.5q0 -43 21.5 -70t64.5 -27q45 0 94 31t101 82q34 33 65.5 71.5t51.5 63.5zM145 -5l-43 -61q6 1 12.5 2t12.5 1q28 0 49 -14t21 -45q0 -32 -30.5 -54t-88.5 -22q-7 0 -24.5 2t-36 6.5t-32.5 11t-14 15.5q0 12 11 12
q13 0 37 -8.5t57 -8.5q30 0 46.5 11.5t16.5 32.5q0 14 -11 21.5t-27 7.5q-12 0 -22 -1.5t-20 -1.5q-7 0 -7 7q0 5 4 12t18 30l29 44h42z" />
    <glyph glyph-name="egrave" unicode="&#xe8;" horiz-adv-x="426" 
d="M544 257q-23 -33 -51.5 -66.5t-64.5 -68.5q-69 -66 -134 -100t-145 -34q-69 0 -105 32t-36 93q0 53 30 100t75.5 82t99 56t101.5 21t79 -15.5t31 -50.5t-34 -61t-80.5 -44.5t-93.5 -30t-74 -17.5q-2 -10 -3 -20t-1 -20q0 -18 4 -35.5t13.5 -30.5t25 -21t38.5 -8
q47 0 101 34.5t109 86.5q35 34 61.5 66t44.5 58zM324 332q0 28 -28 28q-22 0 -47.5 -22.5t-47 -54t-37.5 -64.5t-20 -55q42 9 75.5 27.5t57 41.5t35.5 49t12 50zM228 561q0 17 11 26t27 9q18 0 23 -11t10.5 -28.5t17.5 -39t42 -41.5q23 -15 33 -21.5t10 -12.5q0 -12 -11 -12
q-8 0 -34.5 12.5t-55 32t-51 42.5t-22.5 44z" />
    <glyph glyph-name="eacute" unicode="&#xe9;" horiz-adv-x="426" 
d="M544 257q-23 -33 -51.5 -66.5t-64.5 -68.5q-69 -66 -134 -100t-145 -34q-69 0 -105 32t-36 93q0 53 30 100t75.5 82t99 56t101.5 21t79 -15.5t31 -50.5t-34 -61t-80.5 -44.5t-93.5 -30t-74 -17.5q-2 -10 -3 -20t-1 -20q0 -18 4 -35.5t13.5 -30.5t25 -21t38.5 -8
q47 0 101 34.5t109 86.5q35 34 61.5 66t44.5 58zM324 332q0 28 -28 28q-22 0 -47.5 -22.5t-47 -54t-37.5 -64.5t-20 -55q42 9 75.5 27.5t57 41.5t35.5 49t12 50zM489 561q0 -21 -22.5 -44t-51 -42.5t-55 -32t-34.5 -12.5q-11 0 -11 12q0 6 10 12.5t33 21.5q30 20 42 41.5
t17.5 39t10.5 28.5t23 11q16 0 27 -9t11 -26z" />
    <glyph glyph-name="ecircumflex" unicode="&#xea;" horiz-adv-x="426" 
d="M544 257q-23 -33 -51.5 -66.5t-64.5 -68.5q-69 -66 -134 -100t-145 -34q-69 0 -105 32t-36 93q0 53 30 100t75.5 82t99 56t101.5 21t79 -15.5t31 -50.5t-34 -61t-80.5 -44.5t-93.5 -30t-74 -17.5q-2 -10 -3 -20t-1 -20q0 -18 4 -35.5t13.5 -30.5t25 -21t38.5 -8
q47 0 101 34.5t109 86.5q35 34 61.5 66t44.5 58zM324 332q0 28 -28 28q-22 0 -47.5 -22.5t-47 -54t-37.5 -64.5t-20 -55q42 9 75.5 27.5t57 41.5t35.5 49t12 50zM392 598q3 -19 16.5 -44t28.5 -49t27 -43t12 -26q0 -14 -13 -14q-7 0 -18.5 10.5t-25 26t-27 32.5t-22.5 30
q-10 -10 -28.5 -26.5t-39.5 -32t-42 -26.5t-36 -11q-10 0 -10 10q0 9 14 19t36.5 28t49.5 45.5t54 70.5h24z" />
    <glyph glyph-name="edieresis" unicode="&#xeb;" horiz-adv-x="426" 
d="M544 257q-23 -33 -51.5 -66.5t-64.5 -68.5q-69 -66 -134 -100t-145 -34q-69 0 -105 32t-36 93q0 53 30 100t75.5 82t99 56t101.5 21t79 -15.5t31 -50.5t-34 -61t-80.5 -44.5t-93.5 -30t-74 -17.5q-2 -10 -3 -20t-1 -20q0 -18 4 -35.5t13.5 -30.5t25 -21t38.5 -8
q47 0 101 34.5t109 86.5q35 34 61.5 66t44.5 58zM324 332q0 28 -28 28q-22 0 -47.5 -22.5t-47 -54t-37.5 -64.5t-20 -55q42 9 75.5 27.5t57 41.5t35.5 49t12 50zM457 580q22 0 37.5 -15.5t15.5 -37.5t-15.5 -37.5t-37.5 -15.5t-37.5 15.5t-15.5 37.5t15.5 37.5t37.5 15.5z
M261 580q22 0 37.5 -15.5t15.5 -37.5t-15.5 -37.5t-37.5 -15.5t-37.5 15.5t-15.5 37.5t15.5 37.5t37.5 15.5z" />
    <glyph glyph-name="igrave" unicode="&#xec;" horiz-adv-x="278" 
d="M275 360q-32 -51 -63 -99t-55 -89.5t-38.5 -73.5t-14.5 -51q0 -14 5 -23.5t18 -9.5q20 0 43.5 14.5t48.5 37t50 51t47 56t39.5 52t28.5 39.5l8 -3q-24 -34 -60 -82.5t-81 -94.5q-46 -47 -85 -71.5t-87 -24.5q-41 0 -62 23.5t-21 65.5q0 45 38.5 112.5t97.5 166.5z
M114 561q0 17 11 26t27 9q18 0 23 -11t10.5 -28.5t17.5 -39t42 -41.5q23 -15 33 -21.5t10 -12.5q0 -12 -11 -12q-8 0 -34.5 12.5t-55 32t-51 42.5t-22.5 44z" />
    <glyph glyph-name="iacute" unicode="&#xed;" horiz-adv-x="278" 
d="M275 360q-32 -51 -63 -99t-55 -89.5t-38.5 -73.5t-14.5 -51q0 -14 5 -23.5t18 -9.5q20 0 43.5 14.5t48.5 37t50 51t47 56t39.5 52t28.5 39.5l8 -3q-24 -34 -60 -82.5t-81 -94.5q-46 -47 -85 -71.5t-87 -24.5q-41 0 -62 23.5t-21 65.5q0 45 38.5 112.5t97.5 166.5z
M375 561q0 -21 -22.5 -44t-51 -42.5t-55 -32t-34.5 -12.5q-11 0 -11 12q0 6 10 12.5t33 21.5q30 20 42 41.5t17.5 39t10.5 28.5t23 11q16 0 27 -9t11 -26z" />
    <glyph glyph-name="icircumflex" unicode="&#xee;" horiz-adv-x="278" 
d="M275 360q-32 -51 -63 -99t-55 -89.5t-38.5 -73.5t-14.5 -51q0 -14 5 -23.5t18 -9.5q20 0 43.5 14.5t48.5 37t50 51t47 56t39.5 52t28.5 39.5l8 -3q-24 -34 -60 -82.5t-81 -94.5q-46 -47 -85 -71.5t-87 -24.5q-41 0 -62 23.5t-21 65.5q0 45 38.5 112.5t97.5 166.5z
M278 598q3 -19 16.5 -44t28.5 -49t27 -43t12 -26q0 -14 -13 -14q-7 0 -18.5 10.5t-25 26t-27 32.5t-22.5 30q-10 -10 -28.5 -26.5t-39.5 -32t-42 -26.5t-36 -11q-10 0 -10 10q0 9 14 19t36.5 28t49.5 45.5t54 70.5h24z" />
    <glyph glyph-name="idieresis" unicode="&#xef;" horiz-adv-x="278" 
d="M275 360q-32 -51 -63 -99t-55 -89.5t-38.5 -73.5t-14.5 -51q0 -14 5 -23.5t18 -9.5q20 0 43.5 14.5t48.5 37t50 51t47 56t39.5 52t28.5 39.5l8 -3q-24 -34 -60 -82.5t-81 -94.5q-46 -47 -85 -71.5t-87 -24.5q-41 0 -62 23.5t-21 65.5q0 45 38.5 112.5t97.5 166.5z
M343 580q22 0 37.5 -15.5t15.5 -37.5t-15.5 -37.5t-37.5 -15.5t-37.5 15.5t-15.5 37.5t15.5 37.5t37.5 15.5zM147 580q22 0 37.5 -15.5t15.5 -37.5t-15.5 -37.5t-37.5 -15.5t-37.5 15.5t-15.5 37.5t15.5 37.5t37.5 15.5z" />
    <glyph glyph-name="eth" unicode="&#xf0;" 
d="M316 360q-24 0 -48.5 -16.5t-47.5 -43t-43 -60t-35 -67.5t-23.5 -66t-8.5 -56q0 -23 10.5 -37t29.5 -14q24 0 48.5 16.5t47.5 43t43 60t35 67.5t23.5 66.5t8.5 55.5t-10.5 37t-29.5 14zM522 519q-3 -30 -7 -64t-9 -69t-11.5 -69t-15.5 -64q13 -17 29 -29t42 -12
q23 0 47.5 13.5t47.5 39.5l8 -8q-4 -4 -13 -13.5t-22.5 -19t-30.5 -17t-37 -7.5t-41 8.5t-36 26.5q-12 -51 -38.5 -95.5t-64.5 -78.5t-87.5 -53.5t-108.5 -19.5q-33 0 -64 7t-55 23t-38.5 42t-14.5 64q0 57 27 103t69.5 78.5t96 49.5t105.5 17q20 0 41.5 -3.5t42.5 -12.5
q8 32 8.5 76.5t5.5 86.5h-104q-6 0 -6 6t6 6h105q13 101 61.5 146t139.5 45q52 0 87 -11.5t60 -32.5l-9 -12q-16 11 -44 21.5t-58 10.5q-25 0 -44 -8t-33 -27t-23 -51t-14 -81h117q6 0 6 -6t-6 -6h-117z" />
    <glyph glyph-name="ntilde" unicode="&#xf1;" 
d="M-77 0l207 354l142 6q-72 -100 -138 -204l2 -2q26 33 58 71t67.5 70.5t73 54.5t74.5 22q38 0 63.5 -19.5t25.5 -59.5q0 -33 -20.5 -68t-45.5 -68.5t-45.5 -64t-20.5 -53.5q0 -10 5.5 -17.5t17.5 -7.5q22 0 50 20.5t58 50.5q23 23 46 49.5t43 51t36 45t25 32.5l9 -5
q-34 -45 -72.5 -93t-77.5 -88q-41 -42 -79.5 -65.5t-78.5 -23.5q-45 0 -67.5 26.5t-22.5 68.5q0 36 19.5 68.5t43.5 61t43.5 52.5t19.5 45q0 28 -27 28q-18 0 -44 -18.5t-56 -48.5t-61 -67t-58.5 -74t-48 -70t-30.5 -54zM459 516q17 0 26 7t14 16t8 16t9 7q7 0 8.5 -3.5
t1.5 -10.5q0 -6 -3 -20t-11.5 -28t-22.5 -25t-37 -11q-20 0 -41 6.5t-41 14.5t-38.5 14.5t-32.5 6.5q-10 0 -18 -7t-14.5 -16t-12.5 -16t-12 -7q-7 0 -8.5 5t-1.5 9q0 5 4.5 18t13.5 27t23 24.5t34 10.5q17 0 37.5 -5.5t40.5 -13.5q21 -8 40.5 -13.5t33.5 -5.5z" />
    <glyph glyph-name="ograve" unicode="&#xf2;" 
d="M653 257q-4 -4 -13 -13.5t-22.5 -19t-30.5 -17t-37 -7.5q-26 0 -46.5 12.5t-37.5 33.5h-2q0 -52 -24.5 -99t-65 -82.5t-92.5 -56t-108 -20.5q-33 0 -64 7t-55 23t-38.5 42t-14.5 64q0 57 27 103t69.5 78.5t96 49.5t105.5 17q43 0 71 -12t47.5 -29.5t33 -38.5t27 -38.5
t30 -29.5t41.5 -12q23 0 47.5 13.5t47.5 39.5zM316 360q-24 0 -48.5 -16.5t-47.5 -43t-43 -60t-35 -67.5t-23.5 -66t-8.5 -56q0 -23 10.5 -37t29.5 -14q24 0 48.5 16.5t47.5 43t43 60t35 67.5t23.5 66.5t8.5 55.5t-10.5 37t-29.5 14zM223 561q0 17 11 26t27 9q18 0 23 -11
t10.5 -28.5t17.5 -39t42 -41.5q23 -15 33 -21.5t10 -12.5q0 -12 -11 -12q-8 0 -34.5 12.5t-55 32t-51 42.5t-22.5 44z" />
    <glyph glyph-name="oacute" unicode="&#xf3;" 
d="M653 257q-4 -4 -13 -13.5t-22.5 -19t-30.5 -17t-37 -7.5q-26 0 -46.5 12.5t-37.5 33.5h-2q0 -52 -24.5 -99t-65 -82.5t-92.5 -56t-108 -20.5q-33 0 -64 7t-55 23t-38.5 42t-14.5 64q0 57 27 103t69.5 78.5t96 49.5t105.5 17q43 0 71 -12t47.5 -29.5t33 -38.5t27 -38.5
t30 -29.5t41.5 -12q23 0 47.5 13.5t47.5 39.5zM316 360q-24 0 -48.5 -16.5t-47.5 -43t-43 -60t-35 -67.5t-23.5 -66t-8.5 -56q0 -23 10.5 -37t29.5 -14q24 0 48.5 16.5t47.5 43t43 60t35 67.5t23.5 66.5t8.5 55.5t-10.5 37t-29.5 14zM484 561q0 -21 -22.5 -44t-51 -42.5
t-55 -32t-34.5 -12.5q-11 0 -11 12q0 6 10 12.5t33 21.5q30 20 42 41.5t17.5 39t10.5 28.5t23 11q16 0 27 -9t11 -26z" />
    <glyph glyph-name="ocircumflex" unicode="&#xf4;" 
d="M653 257q-4 -4 -13 -13.5t-22.5 -19t-30.5 -17t-37 -7.5q-26 0 -46.5 12.5t-37.5 33.5h-2q0 -52 -24.5 -99t-65 -82.5t-92.5 -56t-108 -20.5q-33 0 -64 7t-55 23t-38.5 42t-14.5 64q0 57 27 103t69.5 78.5t96 49.5t105.5 17q43 0 71 -12t47.5 -29.5t33 -38.5t27 -38.5
t30 -29.5t41.5 -12q23 0 47.5 13.5t47.5 39.5zM316 360q-24 0 -48.5 -16.5t-47.5 -43t-43 -60t-35 -67.5t-23.5 -66t-8.5 -56q0 -23 10.5 -37t29.5 -14q24 0 48.5 16.5t47.5 43t43 60t35 67.5t23.5 66.5t8.5 55.5t-10.5 37t-29.5 14zM387 598q3 -19 16.5 -44t28.5 -49
t27 -43t12 -26q0 -14 -13 -14q-7 0 -18.5 10.5t-25 26t-27 32.5t-22.5 30q-10 -10 -28.5 -26.5t-39.5 -32t-42 -26.5t-36 -11q-10 0 -10 10q0 9 14 19t36.5 28t49.5 45.5t54 70.5h24z" />
    <glyph glyph-name="otilde" unicode="&#xf5;" 
d="M653 257q-4 -4 -13 -13.5t-22.5 -19t-30.5 -17t-37 -7.5q-26 0 -46.5 12.5t-37.5 33.5h-2q0 -52 -24.5 -99t-65 -82.5t-92.5 -56t-108 -20.5q-33 0 -64 7t-55 23t-38.5 42t-14.5 64q0 57 27 103t69.5 78.5t96 49.5t105.5 17q43 0 71 -12t47.5 -29.5t33 -38.5t27 -38.5
t30 -29.5t41.5 -12q23 0 47.5 13.5t47.5 39.5zM316 360q-24 0 -48.5 -16.5t-47.5 -43t-43 -60t-35 -67.5t-23.5 -66t-8.5 -56q0 -23 10.5 -37t29.5 -14q24 0 48.5 16.5t47.5 43t43 60t35 67.5t23.5 66.5t8.5 55.5t-10.5 37t-29.5 14zM439 516q17 0 26 7t14 16t8 16t9 7
q7 0 8.5 -3.5t1.5 -10.5q0 -6 -3 -20t-11.5 -28t-22.5 -25t-37 -11q-20 0 -41 6.5t-41 14.5t-38.5 14.5t-32.5 6.5q-10 0 -18 -7t-14.5 -16t-12.5 -16t-12 -7q-7 0 -8.5 5t-1.5 9q0 5 4.5 18t13.5 27t23 24.5t34 10.5q17 0 37.5 -5.5t40.5 -13.5q21 -8 40.5 -13.5t33.5 -5.5
z" />
    <glyph glyph-name="odieresis" unicode="&#xf6;" 
d="M653 257q-4 -4 -13 -13.5t-22.5 -19t-30.5 -17t-37 -7.5q-26 0 -46.5 12.5t-37.5 33.5h-2q0 -52 -24.5 -99t-65 -82.5t-92.5 -56t-108 -20.5q-33 0 -64 7t-55 23t-38.5 42t-14.5 64q0 57 27 103t69.5 78.5t96 49.5t105.5 17q43 0 71 -12t47.5 -29.5t33 -38.5t27 -38.5
t30 -29.5t41.5 -12q23 0 47.5 13.5t47.5 39.5zM316 360q-24 0 -48.5 -16.5t-47.5 -43t-43 -60t-35 -67.5t-23.5 -66t-8.5 -56q0 -23 10.5 -37t29.5 -14q24 0 48.5 16.5t47.5 43t43 60t35 67.5t23.5 66.5t8.5 55.5t-10.5 37t-29.5 14zM452 580q22 0 37.5 -15.5t15.5 -37.5
t-15.5 -37.5t-37.5 -15.5t-37.5 15.5t-15.5 37.5t15.5 37.5t37.5 15.5zM256 580q22 0 37.5 -15.5t15.5 -37.5t-15.5 -37.5t-37.5 -15.5t-37.5 15.5t-15.5 37.5t15.5 37.5t37.5 15.5z" />
    <glyph glyph-name="divide" unicode="&#xf7;" horiz-adv-x="600" 
d="M310 330q0 18 13 31t31 13t31 -13t13 -31t-13 -31t-31 -13t-31 13t-13 31zM136 37q0 18 13 31t31 13t31 -13t13 -31t-13 -31t-31 -13t-31 13t-13 31zM431 193l-12 -17h-318l11 17h319z" />
    <glyph glyph-name="oslash" unicode="&#xf8;" 
d="M333 356q-7 4 -17 4q-24 0 -48.5 -16.5t-47.5 -43t-43 -60t-35 -67.5t-23.5 -66t-8.5 -56q0 -31 19 -44zM138 2q8 -2 12 -2q24 0 48.5 16.5t47.5 43t43 60t35 67.5t23.5 66.5t8.5 55.5q0 29 -15 41zM350 366q30 -7 50 -21t34.5 -31t26 -35.5t24 -33t28 -24t37.5 -9.5
q23 0 47.5 13.5t47.5 39.5l8 -8q-4 -4 -13 -13.5t-22.5 -19t-30.5 -17t-37 -7.5q-26 0 -46.5 12.5t-37.5 33.5h-2q0 -52 -24.5 -99t-65 -82.5t-92.5 -56t-108 -20.5q-22 0 -42 3l-50 -85l-9 5l48 82q-25 4 -47 14t-38 25.5t-25 38.5t-9 53q0 57 27 103t69.5 78.5t96 49.5
t105.5 17q24 0 40 -4l42 73l9 -5z" />
    <glyph glyph-name="ugrave" unicode="&#xf9;" 
d="M265 368l-35 -54q-48 -72 -77 -117.5t-45 -74t-21 -44t-5 -27.5q0 -13 7.5 -21t19.5 -8q20 0 51.5 22.5t69 65.5t79.5 105t83 141l145 4q-9 -15 -25.5 -40t-37 -54.5t-42 -62.5t-39 -63.5t-28.5 -57t-11 -43.5q0 -14 6 -19.5t16 -5.5q17 0 39.5 14t48 36.5t52 50.5t50 56
t43.5 53t32 41l9 -8q-17 -20 -39 -47.5t-47.5 -57.5t-54 -59.5t-58.5 -52.5t-60.5 -37.5t-60.5 -14.5q-22 0 -38 7t-26 19t-15 27.5t-5 31.5q0 12 3 24t6 20l-2 2q-22 -25 -45 -48.5t-48 -42t-51 -29.5t-53 -11q-42 0 -62 24.5t-20 62.5q0 20 9 45.5t23 53.5t31.5 57
t33.5 54.5t29.5 46t20.5 32.5zM278 561q0 17 11 26t27 9q18 0 23 -11t10.5 -28.5t17.5 -39t42 -41.5q23 -15 33 -21.5t10 -12.5q0 -12 -11 -12q-8 0 -34.5 12.5t-55 32t-51 42.5t-22.5 44z" />
    <glyph glyph-name="uacute" unicode="&#xfa;" 
d="M265 368l-35 -54q-48 -72 -77 -117.5t-45 -74t-21 -44t-5 -27.5q0 -13 7.5 -21t19.5 -8q20 0 51.5 22.5t69 65.5t79.5 105t83 141l145 4q-9 -15 -25.5 -40t-37 -54.5t-42 -62.5t-39 -63.5t-28.5 -57t-11 -43.5q0 -14 6 -19.5t16 -5.5q17 0 39.5 14t48 36.5t52 50.5t50 56
t43.5 53t32 41l9 -8q-17 -20 -39 -47.5t-47.5 -57.5t-54 -59.5t-58.5 -52.5t-60.5 -37.5t-60.5 -14.5q-22 0 -38 7t-26 19t-15 27.5t-5 31.5q0 12 3 24t6 20l-2 2q-22 -25 -45 -48.5t-48 -42t-51 -29.5t-53 -11q-42 0 -62 24.5t-20 62.5q0 20 9 45.5t23 53.5t31.5 57
t33.5 54.5t29.5 46t20.5 32.5zM539 561q0 -21 -22.5 -44t-51 -42.5t-55 -32t-34.5 -12.5q-11 0 -11 12q0 6 10 12.5t33 21.5q30 20 42 41.5t17.5 39t10.5 28.5t23 11q16 0 27 -9t11 -26z" />
    <glyph glyph-name="ucircumflex" unicode="&#xfb;" 
d="M265 368l-35 -54q-48 -72 -77 -117.5t-45 -74t-21 -44t-5 -27.5q0 -13 7.5 -21t19.5 -8q20 0 51.5 22.5t69 65.5t79.5 105t83 141l145 4q-9 -15 -25.5 -40t-37 -54.5t-42 -62.5t-39 -63.5t-28.5 -57t-11 -43.5q0 -14 6 -19.5t16 -5.5q17 0 39.5 14t48 36.5t52 50.5t50 56
t43.5 53t32 41l9 -8q-17 -20 -39 -47.5t-47.5 -57.5t-54 -59.5t-58.5 -52.5t-60.5 -37.5t-60.5 -14.5q-22 0 -38 7t-26 19t-15 27.5t-5 31.5q0 12 3 24t6 20l-2 2q-22 -25 -45 -48.5t-48 -42t-51 -29.5t-53 -11q-42 0 -62 24.5t-20 62.5q0 20 9 45.5t23 53.5t31.5 57
t33.5 54.5t29.5 46t20.5 32.5zM442 598q3 -19 16.5 -44t28.5 -49t27 -43t12 -26q0 -14 -13 -14q-7 0 -18.5 10.5t-25 26t-27 32.5t-22.5 30q-10 -10 -28.5 -26.5t-39.5 -32t-42 -26.5t-36 -11q-10 0 -10 10q0 9 14 19t36.5 28t49.5 45.5t54 70.5h24z" />
    <glyph glyph-name="udieresis" unicode="&#xfc;" 
d="M265 368l-35 -54q-48 -72 -77 -117.5t-45 -74t-21 -44t-5 -27.5q0 -13 7.5 -21t19.5 -8q20 0 51.5 22.5t69 65.5t79.5 105t83 141l145 4q-9 -15 -25.5 -40t-37 -54.5t-42 -62.5t-39 -63.5t-28.5 -57t-11 -43.5q0 -14 6 -19.5t16 -5.5q17 0 39.5 14t48 36.5t52 50.5t50 56
t43.5 53t32 41l9 -8q-17 -20 -39 -47.5t-47.5 -57.5t-54 -59.5t-58.5 -52.5t-60.5 -37.5t-60.5 -14.5q-22 0 -38 7t-26 19t-15 27.5t-5 31.5q0 12 3 24t6 20l-2 2q-22 -25 -45 -48.5t-48 -42t-51 -29.5t-53 -11q-42 0 -62 24.5t-20 62.5q0 20 9 45.5t23 53.5t31.5 57
t33.5 54.5t29.5 46t20.5 32.5zM507 580q22 0 37.5 -15.5t15.5 -37.5t-15.5 -37.5t-37.5 -15.5t-37.5 15.5t-15.5 37.5t15.5 37.5t37.5 15.5zM311 580q22 0 37.5 -15.5t15.5 -37.5t-15.5 -37.5t-37.5 -15.5t-37.5 15.5t-15.5 37.5t15.5 37.5t37.5 15.5z" />
    <glyph glyph-name="yacute" unicode="&#xfd;" 
d="M276 368q-7 -15 -23 -41t-36 -57t-41 -64.5t-38.5 -64t-28.5 -55t-11 -37.5q0 -12 5 -21.5t18 -9.5q20 0 46.5 18t54.5 47t55 64.5t46 69.5l79 139l141 4q-52 -89 -104 -174t-103 -167l2 -2q31 11 72 36.5t84 60t84.5 76t72.5 84.5l8 -6q-18 -25 -51 -62t-76.5 -75.5
t-95.5 -73.5t-108 -56q-39 -72 -88 -132t-109 -102.5t-131.5 -66.5t-156.5 -24q-32 0 -67.5 8t-65 25t-48.5 44t-19 66q0 31 14.5 55t37.5 40t51.5 24t55.5 8q42 0 86 -9v-9q-6 2 -15 2h-18q-26 0 -43.5 -9.5t-28 -25t-15.5 -36.5t-5 -44q0 -60 27 -93.5t74 -33.5
q46 0 89 23.5t81.5 61t73.5 85.5t66 97.5t58.5 96t51.5 80.5l-2 2q-19 -23 -41.5 -49t-50 -47.5t-59.5 -35.5t-69 -14q-19 0 -32.5 7t-22.5 19t-13 27.5t-4 31.5q0 37 17.5 75.5t41 76t47.5 72t38 63.5zM504 561q0 -21 -22.5 -44t-51 -42.5t-55 -32t-34.5 -12.5
q-11 0 -11 12q0 6 10 12.5t33 21.5q30 20 42 41.5t17.5 39t10.5 28.5t23 11q16 0 27 -9t11 -26z" />
    <glyph glyph-name="thorn" unicode="&#xfe;" 
d="M451 652l-202 -301l2 -2q32 23 69 23q35 0 58.5 -12t41 -29.5t31.5 -38.5t28 -38.5t30.5 -29.5t40.5 -12q23 0 47.5 13.5t47.5 39.5l8 -8q-4 -4 -13 -13.5t-22.5 -19t-30.5 -17t-37 -7.5q-26 0 -46.5 12.5t-37.5 33.5h-2q0 -52 -24.5 -99t-64.5 -82.5t-91 -56t-104 -20.5
q-38 0 -66 21t-28 69v12l-2 2l-231 -410l-143 -6q68 108 136 218t140 228t150.5 247t168.5 273zM356 309q0 23 -12 37t-34 14q-12 0 -24 -3.5t-26 -14.5t-32 -31.5t-41 -55.5q-50 -74 -69.5 -116t-19.5 -65q0 -34 19 -51t41 -17q23 0 46.5 16t45.5 42t41 58.5t33.5 66
t23 65.5t8.5 55z" />
    <glyph glyph-name="ydieresis" unicode="&#xff;" 
d="M276 368q-7 -15 -23 -41t-36 -57t-41 -64.5t-38.5 -64t-28.5 -55t-11 -37.5q0 -12 5 -21.5t18 -9.5q20 0 46.5 18t54.5 47t55 64.5t46 69.5l79 139l141 4q-52 -89 -104 -174t-103 -167l2 -2q31 11 72 36.5t84 60t84.5 76t72.5 84.5l8 -6q-18 -25 -51 -62t-76.5 -75.5
t-95.5 -73.5t-108 -56q-39 -72 -88 -132t-109 -102.5t-131.5 -66.5t-156.5 -24q-32 0 -67.5 8t-65 25t-48.5 44t-19 66q0 31 14.5 55t37.5 40t51.5 24t55.5 8q42 0 86 -9v-9q-6 2 -15 2h-18q-26 0 -43.5 -9.5t-28 -25t-15.5 -36.5t-5 -44q0 -60 27 -93.5t74 -33.5
q46 0 89 23.5t81.5 61t73.5 85.5t66 97.5t58.5 96t51.5 80.5l-2 2q-19 -23 -41.5 -49t-50 -47.5t-59.5 -35.5t-69 -14q-19 0 -32.5 7t-22.5 19t-13 27.5t-4 31.5q0 37 17.5 75.5t41 76t47.5 72t38 63.5zM472 580q22 0 37.5 -15.5t15.5 -37.5t-15.5 -37.5t-37.5 -15.5
t-37.5 15.5t-15.5 37.5t15.5 37.5t37.5 15.5zM276 580q22 0 37.5 -15.5t15.5 -37.5t-15.5 -37.5t-37.5 -15.5t-37.5 15.5t-15.5 37.5t15.5 37.5t37.5 15.5z" />
    <glyph glyph-name="dotlessi" unicode="&#x131;" horiz-adv-x="278" 
d="M275 360q-32 -51 -63 -99t-55 -89.5t-38.5 -73.5t-14.5 -51q0 -14 5 -23.5t18 -9.5q20 0 43.5 14.5t48.5 37t50 51t47 56t39.5 52t28.5 39.5l8 -3q-24 -34 -60 -82.5t-81 -94.5q-46 -47 -85 -71.5t-87 -24.5q-41 0 -62 23.5t-21 65.5q0 45 38.5 112.5t97.5 166.5z" />
    <glyph glyph-name="OE" unicode="&#x152;" horiz-adv-x="1000" 
d="M647 175q5 17 17.5 45t34.5 54.5t54 46t75 19.5q30 0 57.5 -5.5t48.5 -19t33.5 -36t12.5 -56.5q0 -57 -38 -103.5t-97 -78.5t-130.5 -49.5t-138.5 -17.5q-44 0 -91.5 13.5t-83.5 48.5q-38 -23 -84 -37.5t-93 -14.5q-45 0 -80 17t-59.5 45.5t-37 67t-12.5 80.5
q0 58 20.5 115.5t55 109.5t80.5 96.5t96.5 77t103 51t99.5 18.5q42 0 69 -22.5t27 -67.5q0 -20 -7.5 -38.5t-14.5 -29.5l-9 7q7 11 13 28t6 32q0 37 -21.5 58t-63.5 21q-35 0 -72.5 -21t-72.5 -56t-66.5 -81t-55 -96.5t-37.5 -102.5t-14 -98q0 -30 5.5 -62.5t20 -58.5
t38.5 -43t61 -17q24 0 50.5 8t46.5 22q-19 18 -31 45t-12 54q0 42 16.5 73t43 54.5t58.5 41.5t63 34q27 14 43.5 35t26 46t14.5 53t9 55q4 26 8.5 47t25.5 40q-24 53 -65 80.5t-97 27.5q-35 0 -68.5 -9.5t-63.5 -26t-56.5 -38.5t-49.5 -47l-8 7q56 59 116.5 92.5t142.5 33.5
q54 0 102 -22t78 -67q38 29 86 49t98 20q30 0 59.5 -5t53 -18t38 -36t14.5 -59q0 -39 -19.5 -66t-49.5 -44t-66.5 -24.5t-69.5 -7.5q-14 0 -31 3t-31 8l5 9q8 -2 19 -4.5t22 -3.5q60 -2 92.5 32t32.5 90q0 19 -3.5 39t-12.5 36.5t-24 27.5t-38 11q-27 0 -47.5 -14t-35.5 -35
t-24 -46.5t-14 -48.5q-17 -81 -34.5 -142t-44.5 -113t-68 -100.5t-104 -104.5q32 -54 76.5 -78t107.5 -24q42 0 77.5 12.5t62 36.5t41.5 59.5t15 80.5q0 43 -23.5 71t-67.5 28q-23 0 -42.5 -10t-35 -26.5t-26.5 -37.5t-18 -44zM476 175q0 -32 11 -59q48 42 79.5 78.5
t52.5 71.5t34.5 69.5t26.5 71.5q-44 -14 -81.5 -32t-64.5 -45t-42.5 -64.5t-15.5 -90.5z" />
    <glyph glyph-name="oe" unicode="&#x153;" horiz-adv-x="722" 
d="M316 360q-24 0 -48.5 -16.5t-47.5 -43t-43 -60t-35 -67.5t-23.5 -66t-8.5 -56q0 -23 10.5 -37t29.5 -14q24 0 48.5 16.5t47.5 43t43 60t35 67.5t23.5 66.5t8.5 55.5t-10.5 37t-29.5 14zM838 257q-23 -33 -51.5 -66.5t-64.5 -68.5q-69 -66 -134 -100t-145 -34
q-75 0 -110 38q-41 -17 -81 -27.5t-78 -10.5q-33 0 -64 7t-55 23t-38.5 42t-14.5 64q0 57 27 103t69.5 78.5t96 49.5t105.5 17q53 0 86 -15t54 -39q41 26 85 40t83 14q48 0 79 -15.5t31 -50.5q0 -23 -16 -42.5t-41.5 -35t-57 -27.5t-62.5 -21.5t-58.5 -16t-44.5 -10.5
q-2 -10 -3 -20t-1 -20q0 -18 4 -35.5t13.5 -30.5t24.5 -21t37 -8q47 0 101 34.5t109 86.5q35 34 61.5 66t44.5 58zM618 332q0 28 -28 28q-22 0 -47 -22.5t-46.5 -54t-37 -64.5t-19.5 -55q42 9 75 27.5t56 41.5t35 49t12 50z" />
    <glyph glyph-name="circumflex" unicode="&#x2c6;" horiz-adv-x="278" 
d="M277 598q3 -19 16.5 -44t28.5 -49t27 -43t12 -26q0 -14 -13 -14q-7 0 -18.5 10.5t-25 26t-27 32.5t-22.5 30q-10 -10 -28.5 -26.5t-39.5 -32t-42 -26.5t-36 -11q-10 0 -10 10q0 9 14 19t36.5 28t49.5 45.5t54 70.5h24z" />
    <glyph glyph-name="ring" unicode="&#x2da;" horiz-adv-x="278" 
d="M127 497q0 25 11.5 46t30.5 36.5t43.5 24t50.5 8.5q14 0 29.5 -3.5t28 -12t20.5 -23t8 -36.5q0 -25 -12 -46t-31 -36.5t-43 -24t-47 -8.5q-35 0 -62 18.5t-27 56.5zM171 467q0 -35 34 -35q21 0 39 14.5t31.5 36t21.5 45t8 41.5q0 17 -11.5 25t-27.5 8q-17 0 -34 -15.5
t-30.5 -37.5t-22 -44.5t-8.5 -37.5z" />
    <glyph glyph-name="tilde" unicode="&#x2dc;" horiz-adv-x="278" 
d="M329 516q17 0 26 7t14 16t8 16t9 7q7 0 8.5 -3.5t1.5 -10.5q0 -6 -3 -20t-11.5 -28t-22.5 -25t-37 -11q-20 0 -41 6.5t-41 14.5t-38.5 14.5t-32.5 6.5q-10 0 -18 -7t-14.5 -16t-12.5 -16t-12 -7q-7 0 -8.5 5t-1.5 9q0 5 4.5 18t13.5 27t23 24.5t34 10.5q17 0 37.5 -5.5
t40.5 -13.5q21 -8 40.5 -13.5t33.5 -5.5z" />
    <glyph glyph-name="u0400" unicode="&#x400;" horiz-adv-x="730" 
d="M492 887q0 17 11 26t27 9q18 0 23 -11t10.5 -28.5t17.5 -39t42 -41.5q23 -15 33 -21.5t10 -12.5q0 -12 -11 -12q-8 0 -34.5 12.5t-55 32t-51 42.5t-22.5 44zM462 483q30 -10 63 -10q31 0 52 11.5t34 29.5t19 39.5t6 42.5t-5 41.5t-15.5 36.5t-27.5 26t-40 10
q-30 0 -51 -15t-36 -44.5t-25.5 -73.5t-19.5 -101q-4 -25 -22.5 -42.5t-44.5 -33.5t-55 -33t-53.5 -41t-40.5 -57t-16 -82q0 -41 13.5 -74t37 -56t54.5 -35t65 -12q54 0 91.5 16.5t60.5 42t33.5 56t10.5 58.5q0 21 -6 41.5t-17.5 36t-29 25t-41.5 9.5q-26 0 -48.5 -12
t-41 -29.5t-32.5 -37t-23 -34.5l-10 4q15 26 37.5 52.5t51 48t61.5 35t67 13.5q72 0 106 -32.5t34 -83.5q0 -46 -33 -89t-86.5 -75t-121 -51.5t-135.5 -19.5q-36 0 -77 8t-76 27.5t-58 51t-23 78.5q0 49 23.5 82t56.5 55.5t68 38t57 30.5q13 9 19 36.5t12 62t14.5 71
t24.5 62.5q23 37 55 62.5t67 41.5t70 23.5t63 7.5t55.5 -6t49.5 -19.5t35.5 -36.5t13.5 -57q0 -37 -19.5 -64t-49 -44.5t-64.5 -25.5t-67 -8q-17 0 -36 3.5t-36 10.5z" />
    <glyph glyph-name="u0401" unicode="&#x401;" horiz-adv-x="704" 
d="M462 483q30 -10 63 -10q31 0 52 11.5t34 29.5t19 39.5t6 42.5t-5 41.5t-15.5 36.5t-27.5 26t-40 10q-30 0 -51 -15t-36 -44.5t-25.5 -73.5t-19.5 -101q-4 -25 -22.5 -42.5t-44.5 -33.5t-55 -33t-53.5 -41t-40.5 -57t-16 -82q0 -41 13.5 -74t37 -56t54.5 -35t65 -12
q54 0 91.5 16.5t60.5 42t33.5 56t10.5 58.5q0 21 -6 41.5t-17.5 36t-29 25t-41.5 9.5q-26 0 -48.5 -12t-41 -29.5t-32.5 -37t-23 -34.5l-10 4q15 26 37.5 52.5t51 48t61.5 35t67 13.5q72 0 106 -32.5t34 -83.5q0 -46 -33 -89t-86.5 -75t-121 -51.5t-135.5 -19.5q-36 0 -77 8
t-76 27.5t-58 51t-23 78.5q0 49 23.5 82t56.5 55.5t68 38t57 30.5q13 9 19 36.5t12 62t14.5 71t24.5 62.5q23 37 55 62.5t67 41.5t70 23.5t63 7.5t55.5 -6t49.5 -19.5t35.5 -36.5t13.5 -57q0 -37 -19.5 -64t-49 -44.5t-64.5 -25.5t-67 -8q-17 0 -36 3.5t-36 10.5zM717 909
q22 0 37.5 -15.5t15.5 -37.5t-15.5 -37.5t-37.5 -15.5t-37.5 15.5t-15.5 37.5t15.5 37.5t37.5 15.5zM521 909q22 0 37.5 -15.5t15.5 -37.5t-15.5 -37.5t-37.5 -15.5t-37.5 15.5t-15.5 37.5t15.5 37.5t37.5 15.5z" />
    <glyph glyph-name="u0402" unicode="&#x402;" horiz-adv-x="949" 
d="M646 33q8 14 22.5 40.5t41.5 81.5q8 17 18.5 39.5t20 45t16 43t6.5 34.5q0 26 -15 39t-41 13q-15 0 -31.5 -6.5t-33.5 -16.5q-17 -11 -33 -23.5t-30 -26.5q-20 -33 -36 -58t-32.5 -46.5t-35.5 -41.5t-43 -42q-64 -59 -143 -87.5t-152 -28.5q-77 0 -123 30.5t-46 84.5
q0 32 19.5 56.5t53.5 24.5q31 0 45.5 -19.5t14.5 -43.5q0 -20 -12 -32t-25 -17q-1 -36 17.5 -54t47.5 -18q49 0 95 22t89 76q30 38 56 80.5t51 88t51.5 92.5t59.5 93l16 22h-87v-6q0 -23 -8 -48t-28 -48q-32 -38 -79 -56t-92 -18q-30 0 -55 10.5t-43 28.5t-28.5 42.5
t-10.5 51.5q0 37 16.5 72t51.5 66.5t88 57.5t127 45q72 19 163.5 29t204.5 10q14 0 34.5 1t41.5 3t40 3.5t30 3.5q42 5 65 7.5t31 2.5q9 0 21 -2t12 -16q0 -8 -8 -13t-22 -5q-11 0 -30.5 3t-38.5 3q-25 0 -50 -10t-47 -25q-26 -18 -57 -48.5t-69 -81.5q-17 -22 -32 -47h228
l-4 -8q-2 -4 -2 -6l-1 -2h-231q-13 -22 -26 -45q-16 -28 -32 -56.5t-30 -52.5q14 14 31.5 25t37.5 20q26 12 51.5 16t54.5 4q22 0 44.5 -6t39.5 -18q16 -12 25.5 -31t9.5 -43q0 -27 -10 -59.5t-26 -65.5q-11 -24 -18.5 -39t-13.5 -25.5t-11 -19.5t-12 -21q22 6 43 12.5
t41.5 15t41.5 20.5t44 29q36 26 68.5 58t60.5 71l10 -4q-29 -38 -60 -70.5t-69 -59.5q-42 -30 -87.5 -51.5t-99.5 -33.5q-40 -68 -89 -126t-97 -99q-75 -63 -153.5 -93t-153.5 -30q-45 0 -77.5 9.5t-53 26t-30 38t-9.5 46.5q0 60 48.5 97t137.5 59q72 17 152 29t177 28z
M370 494h84q-1 5 -2 11q-4 16 -11 30l9 3q11 -17 14 -34l2 -10h101q21 26 43 50q38 41 82 72.5t96 53.5t114 34v2q-26 0 -48 -0.5t-42 -1.5q-32 -1 -77 -4t-96 -10t-103 -18t-98 -27q-107 -38 -156.5 -92.5t-49.5 -114.5q0 -20 3 -38t12 -32t25.5 -22t43.5 -8
q29 0 54.5 11.5t44 30.5t30 43.5t11.5 50.5v4h-94zM641 20q-81 -13 -146.5 -26t-114.5 -31q-69 -25 -104 -60.5t-35 -92.5q0 -45 22.5 -71.5t60.5 -26.5q50 0 96 29t93 85q32 38 63.5 87.5t64.5 106.5z" />
    <glyph glyph-name="u0403" unicode="&#x403;" horiz-adv-x="889" 
d="M1070 612q-44 -12 -81.5 -33.5t-71 -55t-64.5 -80.5t-62 -109q-15 -30 -31 -57t-32 -52q-29 -46 -71.5 -92t-91.5 -78q-59 -38 -123.5 -54.5t-130.5 -16.5q-42 0 -77 9.5t-59.5 26.5t-38.5 40.5t-14 50.5q0 36 22.5 58.5t49.5 22.5q29 0 46.5 -16t17.5 -45q0 -25 -15 -40
t-29 -19q5 -35 29.5 -55.5t69.5 -20.5q48 0 89.5 19t81.5 61q24 25 48.5 59t48.5 75q10 17 24.5 43t24.5 44q17 32 34.5 62t38.5 57.5t46 52.5t57 48q46 33 99.5 56t122.5 41v2q-54 3 -111.5 6.5t-111.5 4.5q-90 1 -163 -3.5t-132 -13.5t-106 -23.5t-85 -32.5
q-36 -17 -59.5 -36.5t-38 -40t-20 -41t-5.5 -39.5q0 -25 10.5 -48.5t30 -41.5t47 -28.5t61.5 -10.5q44 0 85.5 11t79.5 37q39 28 63.5 66t24.5 79q0 16 -3 34t-11 38l11 3q8 -20 11.5 -42.5t3.5 -43.5q0 -112 -105 -187q-34 -24 -74.5 -34.5t-81.5 -10.5q-42 0 -73.5 13.5
t-52.5 37.5t-32 56t-11 70q0 54 33 106t105 97q97 60 243.5 92t351.5 32q14 0 44 -0.5t68 -2t79 -3.5t77 -4q57 0 85.5 -9.5t28.5 -41.5q0 -34 -34 -45.5t-103 -11.5q-15 0 -38 2.5t-50 5.5zM1264 885q0 -21 -22.5 -44t-51 -42.5t-55 -32t-34.5 -12.5q-11 0 -11 12
q0 6 10 12.5t33 21.5q30 20 42 41.5t17.5 39t10.5 28.5t23 11q16 0 27 -9t11 -26z" />
    <glyph glyph-name="u0404" unicode="&#x404;" horiz-adv-x="722" 
d="M603 617q-9 -9 -20 -27t-11 -46q0 -37 23 -60t57 -23q32 0 59 17.5t46.5 44.5t30 59t10.5 60q0 37 -20.5 52.5t-55.5 15.5q-53 0 -108.5 -22.5t-107 -61.5t-97.5 -92q-43 -50 -76 -108h257l-7 -16h-259q-29 -56 -47 -116q-19 -65 -19 -130q0 -32 8.5 -61t24.5 -51
t37.5 -35t47.5 -13q39 0 75.5 18.5t65.5 48.5t46.5 69t17.5 81q0 22 -4.5 42.5t-14 36t-24 25t-35.5 9.5q-40 0 -65 -26.5t-38.5 -61.5t-18.5 -68t-5 -47h-12q0 39 10.5 81t33 77.5t58 58t84.5 22.5q27 0 50 -9t40 -25.5t27 -39t10 -49.5q0 -48 -27.5 -95.5t-73 -84.5
t-104.5 -60t-122 -23q-120 0 -176 58.5t-56 165.5q0 62 28 124.5t74.5 119.5t107 106.5t126.5 86t132 57t123 20.5q30 0 60 -4.5t53 -17t37.5 -35t14.5 -58.5q0 -31 -15.5 -60.5t-42.5 -52t-62.5 -36t-75.5 -13.5q-23 0 -44.5 5.5t-38 17.5t-26 30.5t-9.5 44.5q0 20 8.5 41
t26.5 39z" />
    <glyph glyph-name="u0405" unicode="&#x405;" horiz-adv-x="704" 
d="M833 615q0 38 -18.5 64.5t-59.5 26.5q-38 0 -62 -28.5t-38 -77.5t-19.5 -114.5t-5.5 -140.5q0 -85 -23.5 -152t-69 -113.5t-112 -71t-152.5 -24.5q-47 0 -90 12t-76 35t-53 57t-20 79q0 19 4.5 39t14.5 36.5t26 27t38 10.5q28 0 46.5 -17.5t18.5 -44.5t-15 -45.5
t-43 -20.5q-3 -11 -3.5 -19t-0.5 -17q0 -19 9.5 -40.5t28 -39.5t46.5 -29.5t65 -10.5q52 1 89 18t62.5 45.5t41 66t24 79t11.5 85t3 83.5q0 71 16.5 134.5t52 111t91 75.5t134.5 28q27 0 54.5 -6t50 -19.5t36.5 -35t14 -52.5q0 -32 -16.5 -51.5t-41.5 -30t-54 -14t-54 -3.5
q24 21 37 47t13 58z" />
    <glyph glyph-name="u0406" unicode="&#x406;" horiz-adv-x="722" 
d="M487 503q11 -16 18 -34.5t7 -39.5q0 -39 -20.5 -69.5t-51.5 -51t-67.5 -31.5t-68.5 -11q-30 0 -55 10.5t-43.5 28.5t-29 43t-10.5 55q0 72 44.5 122t114 82.5t153 50.5t162 26.5t141 10t89.5 1.5q49 0 82.5 4t58 9t42.5 9t35 4q18 0 30.5 -5.5t12.5 -19.5
q0 -11 -13.5 -16t-32.5 -5q-30 0 -49.5 3t-31.5 3q-40 0 -81 -24t-82.5 -69t-83.5 -109.5t-83 -146.5q-48 -95 -104.5 -161.5t-119.5 -108t-132 -60.5t-142 -19q-45 0 -84.5 10.5t-68.5 29.5t-46 45.5t-17 58.5q0 35 22 56.5t56 21.5q29 0 42.5 -20t13.5 -45
q0 -19 -11 -32.5t-27 -18.5q5 -47 37 -70.5t83 -23.5q71 0 127 36t100 88.5t77 112.5t59 108q40 74 80.5 127.5t90 93.5t110.5 68.5t142 51.5l-1 2q-70 0 -148.5 -5t-155 -17t-146 -32t-122 -51.5t-84 -75t-31.5 -101.5q0 -42 25.5 -71t67.5 -29q26 0 49.5 11.5t42.5 29.5
t30 40.5t11 43.5q0 40 -22 71z" />
    <glyph glyph-name="u0407" unicode="&#x407;" horiz-adv-x="722" 
d="M487 503q11 -16 18 -34.5t7 -39.5q0 -39 -20.5 -69.5t-51.5 -51t-67.5 -31.5t-68.5 -11q-30 0 -55 10.5t-43.5 28.5t-29 43t-10.5 55q0 72 44.5 122t114 82.5t153 50.5t162 26.5t141 10t89.5 1.5q49 0 82.5 4t58 9t42.5 9t35 4q18 0 30.5 -5.5t12.5 -19.5
q0 -11 -13.5 -16t-32.5 -5q-30 0 -49.5 3t-31.5 3q-40 0 -81 -24t-82.5 -69t-83.5 -109.5t-83 -146.5q-48 -95 -104.5 -161.5t-119.5 -108t-132 -60.5t-142 -19q-45 0 -84.5 10.5t-68.5 29.5t-46 45.5t-17 58.5q0 35 22 56.5t56 21.5q29 0 42.5 -20t13.5 -45
q0 -19 -11 -32.5t-27 -18.5q5 -47 37 -70.5t83 -23.5q71 0 127 36t100 88.5t77 112.5t59 108q40 74 80.5 127.5t90 93.5t110.5 68.5t142 51.5l-1 2q-70 0 -148.5 -5t-155 -17t-146 -32t-122 -51.5t-84 -75t-31.5 -101.5q0 -42 25.5 -71t67.5 -29q26 0 49.5 11.5t42.5 29.5
t30 40.5t11 43.5q0 40 -22 71zM989 909q22 0 37.5 -15.5t15.5 -37.5t-15.5 -37.5t-37.5 -15.5t-37.5 15.5t-15.5 37.5t15.5 37.5t37.5 15.5zM793 909q22 0 37.5 -15.5t15.5 -37.5t-15.5 -37.5t-37.5 -15.5t-37.5 15.5t-15.5 37.5t15.5 37.5t37.5 15.5z" />
    <glyph glyph-name="u0408" unicode="&#x408;" horiz-adv-x="722" 
d="M488 506q9 -14 17.5 -36.5t8.5 -42.5q0 -38 -18.5 -69t-47.5 -52.5t-64.5 -33.5t-70.5 -12q-30 0 -55.5 11.5t-44 31t-29 45.5t-10.5 55q0 53 27.5 94t73.5 71.5t107 51.5t128.5 35.5t137 22.5t132.5 12t116 5t87 1q8 0 22 3t29 6t28.5 6t21.5 3q34 0 34 -18
q0 -12 -11 -18t-30 -6q-17 0 -36.5 3t-38.5 5q-14 -2 -40 -12.5t-58 -33t-67 -59t-67 -89.5q-108 -180 -167.5 -285t-79.5 -139q93 20 166 73.5t133 131.5l9 -4q-22 -30 -52 -62.5t-68.5 -62t-87 -53.5t-107.5 -37q-45 -75 -100 -139t-119 -110.5t-136.5 -72.5t-152.5 -26
q-31 0 -63 7t-57.5 22.5t-41.5 40.5t-16 61q0 41 24 69.5t66.5 47.5t101.5 31.5t128 22.5q74 11 131 18t87 14q30 48 57.5 97.5t55.5 100t58 100t63 95.5q85 115 178.5 175t195.5 80v2q-16 0 -54.5 -0.5t-90.5 -4t-112.5 -10.5t-121.5 -20.5t-118 -34t-100.5 -50.5
t-70 -70.5t-26.5 -93.5q0 -47 28 -72.5t73 -25.5q23 0 44.5 10.5t38 28t26.5 41t10 48.5q0 30 -22 69zM-62 -187q0 -45 28 -73t74 -28q60 0 107.5 32t86 79t70 100.5t59.5 96.5q-37 -6 -74 -11t-73.5 -11t-73.5 -14.5t-74 -22.5q-24 -9 -47 -22.5t-41.5 -32t-30 -42
t-11.5 -51.5z" />
    <glyph glyph-name="u0409" unicode="&#x409;" horiz-adv-x="1212" 
d="M896 648q-55 -31 -101.5 -63.5t-91.5 -71.5t-91.5 -86.5t-101.5 -108.5q-65 -74 -121.5 -134.5t-122.5 -109.5q-56 -44 -110 -63t-106 -19q-32 0 -58 9.5t-44.5 26t-29 38.5t-10.5 46q0 35 20.5 56.5t52.5 21.5q23 0 40 -15t17 -40q0 -20 -11.5 -35.5t-36.5 -17.5
q2 -28 25 -46t68 -18q72 0 175 72q62 44 120.5 109.5t131.5 144.5q43 47 84 88.5t83 78.5t87.5 70t96.5 63q43 25 98 47t112 37l10 -14q-38 -35 -73 -71.5t-65 -70.5t-53 -63t-37 -50q-20 -30 -41.5 -64.5t-39 -71.5t-28.5 -76t-10 -79q1 -33 10.5 -67.5t32.5 -60.5
q17 -18 40 -27t47 -9q21 0 49 8t54 26q25 17 45.5 43.5t35 58.5t22 68.5t7.5 74.5q0 21 -5.5 48.5t-19.5 47.5q-12 17 -28.5 26.5t-39.5 9.5t-39 -8.5t-36 -30.5q-22 -26 -35.5 -62t-20.5 -66l-12 2q5 35 18.5 71.5t36.5 62.5q29 34 65 50.5t77 16.5q26 0 52.5 -10t47.5 -31
q24 -24 31.5 -57.5t7.5 -64.5q0 -21 -7 -50t-22.5 -60.5t-41.5 -63.5t-63 -61q-40 -30 -91.5 -49.5t-116.5 -19.5q-49 0 -92 13t-73 39q-65 56 -65 146q0 31 8 63t21.5 63.5t31 61t35.5 56.5q22 34 49 66.5t53.5 61t51.5 52t43 39.5z" />
    <glyph glyph-name="u040A" unicode="&#x40a;" horiz-adv-x="1293" 
d="M1193 690q-22 0 -50.5 -11.5t-57.5 -34.5q-34 -27 -68 -63t-70 -93q-47 -73 -80 -151t-33 -165q0 -29 6 -59t20.5 -54t39 -39.5t61.5 -15.5q44 0 77 19t62 51q35 39 52.5 95t17.5 113q0 22 -5 48t-18 46q-13 19 -29.5 29t-39.5 10t-42 -10.5t-38 -33.5q-14 -18 -28 -49.5
t-24 -73.5l-12 2q6 38 20 73t35 61q29 35 65.5 51t78.5 16q26 0 50.5 -9t47.5 -32t31 -57t8 -65q0 -33 -11 -67.5t-30.5 -66t-45 -59t-54.5 -48.5q-41 -29 -86.5 -46t-110.5 -17q-52 0 -94.5 14t-72.5 40.5t-46.5 63.5t-16.5 83t14.5 92.5t38.5 89.5v1h-134q-2 -5 -4 -8
q-19 -33 -35.5 -64t-36 -62t-44.5 -62t-61 -64q-64 -59 -143 -87.5t-152 -28.5q-77 0 -123 30.5t-46 84.5q0 32 19.5 56.5t53.5 24.5q31 0 45.5 -19.5t14.5 -43.5q0 -20 -12 -32t-25 -17q-1 -36 17.5 -54t47.5 -18q49 0 95 22t89 76q30 38 56 80.5t51 88t51.5 92.5t59.5 93
q34 48 71.5 88.5t81.5 72t96 53.5t114 34v2q-26 0 -48 -0.5t-42 -1.5q-32 -1 -77 -4t-96 -10t-103 -18t-98 -27q-107 -38 -156.5 -92.5t-49.5 -114.5q0 -20 3 -38t12 -32t25.5 -22t43.5 -8q29 0 54.5 11.5t44 30.5t30 43.5t11.5 50.5q0 16 -4 31.5t-11 29.5l9 3
q11 -17 14.5 -34t3.5 -32q0 -23 -8 -48t-28 -48q-32 -38 -79 -56t-92 -18q-30 0 -55 10.5t-43 28.5t-28.5 42.5t-10.5 51.5q0 37 16.5 72t51.5 66.5t88 57.5t127 45q72 19 163.5 29t204.5 10q14 0 34.5 1t41.5 3t40 3.5t30 3.5q42 5 65 7.5t31 2.5q9 0 21 -2t12 -16
q0 -8 -8 -13t-22 -5q-11 0 -30.5 3t-38.5 3q-25 0 -50 -10t-47 -25q-26 -18 -57 -48.5t-69 -81.5q-11 -15 -26 -38.5t-30.5 -49t-30.5 -50.5q-6 -10 -11 -19h135q20 34 44 65q31 40 63 73q36 37 77.5 70.5t93.5 60.5q47 24 93 38.5t98 14.5q56 0 92.5 -15t36.5 -48
q0 -21 -13 -36t-33 -15q-23 0 -35 11.5t-28 35.5q-19 29 -29.5 40t-31.5 11z" />
    <glyph glyph-name="u040B" unicode="&#x40b;" horiz-adv-x="992" 
d="M594 323q14 14 38.5 29t46.5 23q25 9 47.5 11.5t49.5 2.5q18 0 37 -4.5t35 -13.5q18 -11 32 -29.5t14 -45.5q0 -16 -6 -32t-15 -31.5t-19 -30t-18 -28.5q-13 -21 -28 -46t-15 -53q0 -20 11.5 -36.5t35.5 -16.5q22 0 55 20t66 53q16 16 31.5 33t32 36.5t35 43.5t40.5 56
l10 -6q-42 -61 -76.5 -102t-72.5 -78q-53 -50 -97.5 -68t-89.5 -18q-49 0 -77.5 24.5t-28.5 69.5q0 17 5.5 34t13 33t16 29.5t15.5 24.5q10 16 22 34t18 29q8 14 11.5 26.5t3.5 20.5q0 25 -18 38q-17 12 -41 12q-14 0 -30.5 -4t-33.5 -15q-14 -8 -32.5 -22.5t-33.5 -29.5
q-20 -33 -36 -58t-32.5 -46.5t-35.5 -41.5t-43 -42q-64 -59 -133 -87.5t-142 -28.5q-77 0 -123 30.5t-46 84.5q0 32 19.5 56.5t53.5 24.5q31 0 45.5 -19.5t14.5 -43.5q0 -20 -12 -32t-25 -17q-1 -36 18 -54t48 -18q42 0 81 22t82 76q35 44 64 93.5t58 102.5q25 45 53.5 93
t58.5 87h-87v-6q0 -23 -8 -48t-28 -48q-32 -38 -79 -56t-92 -18q-30 0 -55 10.5t-43 28.5t-28.5 42.5t-10.5 51.5q0 37 16.5 72t51.5 66.5t88 57.5t127 45q72 19 163.5 29t204.5 10q14 0 34.5 1t41.5 3t40 3.5t30 3.5q42 5 65 7.5t31 2.5q9 0 21 -2t12 -16q0 -8 -8 -13
t-22 -5q-11 0 -30.5 3t-38.5 3q-25 0 -50 -10t-47 -25q-26 -18 -57 -48.5t-69 -81.5q-18 -24 -32 -47h228l-4 -8q-2 -4 -2 -6l-1 -2h-231q-23 -38 -46 -79t-44 -76h1zM367 494h84q-3 19 -13 41l9 3q13 -21 16 -44h101q64 81 143.5 135t191.5 75v2q-26 0 -48 -0.5t-42 -1.5
q-32 -1 -77 -4t-96 -10t-103 -18t-98 -27q-107 -38 -156.5 -92.5t-49.5 -114.5q0 -20 3 -38t12 -32t25.5 -22t43.5 -8q29 0 54.5 11.5t44 30.5t30 43.5t11.5 50.5v4h-94z" />
    <glyph glyph-name="u040C" unicode="&#x40c;" horiz-adv-x="1000" 
d="M476 543q10 -12 18 -30t8 -45q0 -28 -14.5 -57.5t-41.5 -53t-65 -38.5t-84 -15q-59 0 -96 34.5t-37 94.5q0 50 26.5 89t72 68.5t104.5 50t124 34t132 21.5t127 12t109.5 5t79.5 1q13 0 29.5 3t33 7t31.5 7t25 3q30 0 30 -18q0 -9 -14.5 -12.5t-29.5 -3.5q-12 0 -28 1
t-34 1h-1q-11 0 -34.5 -7t-53.5 -26t-64.5 -51.5t-67.5 -82.5q-35 -52 -67 -112.5t-67.5 -121t-77 -116.5t-95.5 -99t-122.5 -68.5t-158.5 -25.5q-35 0 -64.5 8.5t-51 23.5t-33.5 36.5t-12 47.5q0 32 18 54.5t53 22.5q23 0 42 -13.5t19 -38.5q0 -19 -8 -33.5t-27 -19.5
q0 -2 -0.5 -4t-0.5 -6q0 -31 20.5 -49t53.5 -17q59 1 104 33t86.5 87.5t84 132t94.5 166.5q40 69 88.5 118t100 81.5t102 51t94.5 26.5v2q-189 -1 -317 -26t-206.5 -64t-112.5 -88t-34 -97q0 -39 25 -63t63 -24q28 0 53 12t43.5 30.5t29 42t10.5 45.5q0 38 -23 69zM1116 257
q-32 -45 -67 -88.5t-73 -81.5q-47 -46 -93.5 -70.5t-107.5 -24.5q-47 0 -74 23.5t-27 70.5q0 29 14 60.5t30.5 62.5t30 59.5t13.5 50.5q0 28 -17 40.5t-46 12.5q-6 0 -10.5 1t-4.5 5q0 6 11 6q41 0 73.5 6.5t63 25t62.5 51.5t71 86q36 48 74 80.5t76 52t76 28t72 8.5
q46 0 77.5 -19.5t31.5 -58.5q0 -22 -11 -39t-28 -27.5t-37.5 -16t-39.5 -5.5q11 23 19.5 49t8.5 50q0 55 -34 55q-21 0 -39 -18t-37 -46.5t-41 -63t-50 -67.5q-33 -38 -66 -62.5t-73 -40t-89.5 -24t-114.5 -14.5v-2q23 -12 44 -25t37.5 -30.5t26.5 -39.5t10 -51
q0 -21 -7.5 -44t-16.5 -45.5t-16.5 -43t-7.5 -35.5q0 -17 8 -26.5t25 -9.5q28 0 64 23.5t77 66.5q34 35 65.5 76t57.5 76zM1275 885q0 -21 -22.5 -44t-51 -42.5t-55 -32t-34.5 -12.5q-11 0 -11 12q0 6 10 12.5t33 21.5q30 20 42 41.5t17.5 39t10.5 28.5t23 11q16 0 27 -9
t11 -26z" />
    <glyph glyph-name="u040D" unicode="&#x40d;" horiz-adv-x="944" 
d="M1066 692q-16 -25 -50 -76t-75.5 -114t-85 -133t-79.5 -133.5t-59 -114t-23 -76.5q0 -43 36 -43q15 0 35.5 7t44 20t48 31t47.5 40q24 23 46 46.5t41.5 45.5t35.5 41t26 32l7 -7q-35 -42 -77 -91.5t-90 -92t-101.5 -70.5t-111.5 -28q-50 0 -76.5 27.5t-26.5 72.5
q0 26 8.5 52t21.5 49l-2 2q-30 -34 -63.5 -67.5t-71.5 -60t-80.5 -43t-90.5 -16.5q-42 0 -65 23t-23 68q0 39 21 85.5t52 96t68 101t68 100.5t52 94t21 82q0 30 -18 47t-48 17q-44 0 -84 -21t-71 -55t-49 -75.5t-18 -82.5q0 -34 12.5 -59t51.5 -25q19 0 35.5 9t30.5 23
t24.5 30t17.5 31l9 -2q-3 -7 -5.5 -13t-7.5 -14q-23 -38 -55 -64t-83 -26q-46 0 -68 28t-22 70q0 55 30 103t76 83t101.5 55.5t106.5 20.5q68 0 109 -28t41 -88q0 -30 -21 -74.5t-52 -96t-68 -106t-68 -104t-52 -91t-21 -66.5q0 -21 9.5 -33.5t27.5 -12.5q31 0 82.5 32
t116.5 99q21 22 51 61.5t64 89t69.5 104t68 107t59 97.5t42.5 74zM710 887q0 17 11 26t27 9q18 0 23 -11t10.5 -28.5t17.5 -39t42 -41.5q23 -15 33 -21.5t10 -12.5q0 -12 -11 -12q-8 0 -34.5 12.5t-55 32t-51 42.5t-22.5 44z" />
    <glyph glyph-name="u040E" unicode="&#x40e;" horiz-adv-x="852" 
d="M1027 871q-10 -17 -28.5 -39.5t-41.5 -40.5q-38 -27 -74 -36t-80 -9q-63 0 -98 17t-35 49q0 29 30.5 47.5t79.5 18.5q7 0 29 -1.5t41 -6.5l-2 -9q-4 1 -12 1.5t-13 0.5q-26 0 -40.5 -17t-14.5 -37q0 -18 14.5 -31.5t49.5 -13.5q64 0 114 36q25 18 42.5 38.5t29.5 38.5z
M1088 686q-53 -75 -109.5 -163.5t-116.5 -183.5t-123 -193.5t-128 -194.5q-46 -69 -101.5 -118.5t-114.5 -81t-118 -46.5t-113 -15q-49 0 -91 9t-73 27t-48.5 45.5t-17.5 65.5q0 31 14.5 55.5t37.5 40.5t51 24.5t55 8.5q28 0 55 -6t53 -15l-2 -9q-11 4 -23.5 7t-26.5 3
q-19 0 -36.5 -9.5t-30 -26t-20 -37.5t-7.5 -45q0 -61 31.5 -93.5t78.5 -32.5q67 0 124 40t112 106.5t111 154t120 181.5l-2 2q-30 -34 -63.5 -68.5t-72.5 -63t-83.5 -46.5t-96.5 -18q-46 0 -67.5 24.5t-21.5 62.5q0 37 21.5 83t54 97t70.5 103.5t70.5 102.5t54 95t21.5 80
q0 27 -17.5 47.5t-56.5 20.5q-30 0 -68 -18t-71.5 -50t-56 -76.5t-22.5 -97.5q0 -34 13.5 -56t42.5 -22q42 0 69 27.5t46 64.5l8 -3q-7 -15 -19.5 -34.5t-31 -37.5t-42.5 -30.5t-54 -12.5q-90 0 -90 94q0 50 27.5 98t72 85.5t101 61t113.5 23.5q31 0 58 -6.5t47 -20.5
t31.5 -36.5t11.5 -55.5q0 -29 -12.5 -61t-30.5 -63.5t-38.5 -61.5t-37.5 -56q-10 -15 -26 -38t-34 -50.5t-37 -57.5t-34 -58.5t-24.5 -54t-9.5 -44.5q0 -38 37 -38q30 0 71 23t86.5 64.5t92 98t88.5 123.5l218 351z" />
    <glyph glyph-name="u040F" unicode="&#x40f;" horiz-adv-x="944" 
d="M1066 692q-60 -91 -113 -170.5t-94 -145.5q-83 -134 -124 -215.5t-41 -116.5q0 -42 40 -42q25 0 70.5 23.5t101.5 75.5q15 13 33 32t37.5 41t39.5 45.5t38 46.5l7 -8q-16 -19 -35 -41.5t-38.5 -45.5t-38.5 -44t-37 -37q-73 -65 -128 -89.5t-101 -24.5q-52 0 -78.5 27
t-26.5 74q0 20 7 45t23 55l-2 2q-86 -101 -163 -144.5t-139 -43.5q-41 0 -66.5 23t-25.5 64q0 32 11 65t32 71t51 82t67 98q34 50 57 87.5t37.5 66.5t20.5 51t6 40q0 67 -69 67q-33 0 -72 -17t-72 -50q-37 -37 -56 -81.5t-19 -89.5q0 -38 15 -59t46 -21q17 0 34 7t35 25
q23 23 42 61l9 -2q-12 -29 -29.5 -51.5t-35.5 -36.5q-20 -17 -40.5 -23t-43.5 -6q-46 0 -69 25.5t-23 69.5q0 45 22 93t79 92q46 38 104.5 59t114.5 21q67 0 105.5 -28.5t38.5 -82.5q0 -26 -13.5 -60t-36.5 -74.5t-53 -87t-63 -97.5q-29 -45 -51 -79t-36.5 -60.5
t-21.5 -47.5t-7 -40q0 -20 11 -31.5t29 -11.5q25 0 70.5 26.5t107.5 87.5q42 42 87 103.5t93 134.5q48 72 96 150.5t96 161.5zM548 40q-11 -12 -18 -21.5t-14 -24.5q-6 -15 -8 -40.5t-1 -44.5q1 -30 0 -55t-16 -47q-16 -23 -44.5 -39.5t-57.5 -26.5l-66 -23l-3 13l36 14
q18 7 30.5 19t17.5 18q14 20 14 47q0 15 -1 25.5t-1 22.5v33t8 35q9 19 24 33.5t35 30.5q17 14 34 24.5t25 15.5z" />
    <glyph glyph-name="u0410" unicode="&#x410;" horiz-adv-x="944" 
d="M1116 714q-46 -45 -93.5 -99t-92 -112t-83.5 -118.5t-68 -119t-46 -112.5t-17 -100q0 -27 11 -38t24 -11q35 0 74 26t78 65t76 84t67 83l7 -7q-34 -43 -67.5 -83.5t-72.5 -80.5q-20 -21 -42.5 -40.5t-48 -34t-54.5 -23.5t-63 -9q-53 0 -84 25t-31 77q0 30 6.5 59t17 57
t23.5 55.5t26 52.5h-134q-46 -49 -98 -105t-110 -103.5t-122 -78.5t-134 -31q-75 0 -116 33.5t-41 86.5q0 13 4 26.5t13 25t22.5 19t32.5 7.5q20 0 39 -13t19 -45q0 -24 -15.5 -37t-32.5 -13q2 -32 29 -48t67 -16q59 0 120 31t118 77.5t108.5 100t91.5 98.5q20 22 51.5 56
t73 73.5t92 81t108 79t122 67.5t134.5 46zM669 322q51 91 120.5 172t146.5 153l-2 2q-55 -26 -109.5 -65t-105 -83.5t-96.5 -91t-85 -87.5h131z" />
    <glyph glyph-name="u0411" unicode="&#x411;" horiz-adv-x="1034" 
d="M927 612q-48 -11 -83.5 -32.5t-65.5 -50.5q-36 -35 -67.5 -85t-66.5 -115q28 22 63 33t71 11q25 0 45.5 -1.5t38 -6t33 -12.5t31.5 -20q26 -21 39 -51t13 -62q0 -44 -18 -82t-64 -76q-42 -35 -101.5 -56.5t-122.5 -21.5q-67 0 -99.5 28.5t-32.5 66.5q0 32 19.5 53.5
t56.5 21.5q41 0 64 -30q-49 -40 -49 -81q0 -21 13 -32t36 -11q25 0 52.5 16.5t50.5 44.5q15 18 26 40t19 45t12 46t4 44q0 22 -5 43.5t-16.5 38.5t-29.5 27.5t-44 10.5q-33 0 -62.5 -13t-53.5 -35q-20 -37 -39.5 -70.5t-42.5 -63.5t-50.5 -57t-63.5 -52q-59 -41 -125 -57
t-132 -16q-45 0 -77 9.5t-52 26t-29.5 38t-9.5 44.5q0 33 20.5 54.5t48.5 21.5q30 0 48.5 -15.5t18.5 -42.5q0 -42 -41 -56q4 -30 20.5 -49t54.5 -19q45 0 82.5 17.5t72.5 53.5t70.5 90.5t74.5 128.5q17 33 35 63t39.5 58t47 53.5t57.5 48.5q47 33 100.5 56.5t123.5 40.5
l-1 2q-54 3 -118.5 7t-118.5 4q-80 0 -136 -2.5t-99.5 -9.5t-80 -19.5t-75.5 -32.5q-32 -16 -53.5 -36.5t-35.5 -42t-20 -44t-6 -41.5t7 -38t21.5 -34.5t37.5 -25t55 -9.5q54 0 89 17.5t52 34.5q27 26 38.5 59t11.5 59q0 15 -3 32.5t-11 38.5l11 3q15 -39 15 -82
q0 -34 -10 -69.5t-37 -68.5q-9 -11 -22.5 -23.5t-32.5 -24t-43.5 -19t-53.5 -7.5q-27 0 -52 9.5t-44.5 29t-31 48t-11.5 66.5q0 54 31 108.5t106 105.5q47 32 101 53.5t117.5 35t136.5 19t158 5.5q25 0 60.5 -1t71.5 -2.5t68.5 -3t52.5 -2.5q28 -1 49.5 -3t35.5 -7.5
t21.5 -15t7.5 -26.5q0 -34 -32 -45.5t-101 -11.5q-15 0 -33.5 1.5t-50.5 6.5z" />
    <glyph glyph-name="u0412" unicode="&#x412;" horiz-adv-x="1000" 
d="M1029 720q-39 2 -77.5 -5t-70.5 -32q50 -24 82.5 -61t32.5 -97q0 -45 -23.5 -76t-58.5 -51t-75.5 -30t-74.5 -12v-2q91 -2 139.5 -38t48.5 -105q0 -50 -28 -91.5t-72.5 -71.5t-99.5 -47t-110 -17q-21 0 -44 5t-41.5 16.5t-30.5 29.5t-12 44q0 34 20.5 54.5t54.5 20.5
q22 0 39 -9t26 -20q-17 -15 -32.5 -37t-15.5 -47q0 -20 12.5 -30.5t33.5 -10.5q31 0 60.5 20.5t52.5 52.5t37 72t14 79q0 38 -12.5 63t-33.5 39t-47 18t-53 -1l4 9q94 15 148 66.5t54 134.5q0 28 -8.5 51.5t-28.5 43.5q-60 -60 -103 -132.5t-82.5 -145.5t-80 -141
t-95 -120.5t-129 -84.5t-181.5 -32q-33 0 -63.5 6.5t-54.5 20.5t-38 36.5t-14 55.5q0 29 18.5 52t52.5 23q29 0 47 -16t18 -44q0 -39 -41 -54q4 -37 24.5 -52.5t52.5 -15.5q51 0 91.5 23t75 62t65.5 90t62 107.5t64 114.5t72.5 110.5t87 96t107.5 71.5q-23 11 -64 21
t-103 10q-88 0 -167 -27.5t-137.5 -76t-93 -114t-34.5 -141.5q0 -25 6.5 -47t19 -38.5t32.5 -26t47 -9.5q37 0 64 21t45 52.5t27 69t9 70.5q0 29 -10 62t-24 60l10 4q14 -29 25 -57.5t11 -73.5q0 -48 -14.5 -92.5t-43 -78.5t-70 -54.5t-96.5 -20.5q-35 0 -63.5 12.5
t-48.5 34.5t-31 51t-11 63q0 56 24 105.5t65 90.5t95.5 73t115.5 54.5t125.5 34t124.5 11.5q62 0 118 -6.5t91 -16.5q20 8 41 14t44 10q47 9 105 9v-12z" />
    <glyph glyph-name="u0413" unicode="&#x413;" horiz-adv-x="889" 
d="M1070 612q-44 -12 -81.5 -33.5t-71 -55t-64.5 -80.5t-62 -109q-15 -30 -31 -57t-32 -52q-29 -46 -71.5 -92t-91.5 -78q-59 -38 -123.5 -54.5t-130.5 -16.5q-42 0 -77 9.5t-59.5 26.5t-38.5 40.5t-14 50.5q0 36 22.5 58.5t49.5 22.5q29 0 46.5 -16t17.5 -45q0 -25 -15 -40
t-29 -19q5 -35 29.5 -55.5t69.5 -20.5q48 0 89.5 19t81.5 61q24 25 48.5 59t48.5 75q10 17 24.5 43t24.5 44q17 32 34.5 62t38.5 57.5t46 52.5t57 48q46 33 99.5 56t122.5 41v2q-54 3 -111.5 6.5t-111.5 4.5q-90 1 -163 -3.5t-132 -13.5t-106 -23.5t-85 -32.5
q-36 -17 -59.5 -36.5t-38 -40t-20 -41t-5.5 -39.5q0 -25 10.5 -48.5t30 -41.5t47 -28.5t61.5 -10.5q44 0 85.5 11t79.5 37q39 28 63.5 66t24.5 79q0 16 -3 34t-11 38l11 3q8 -20 11.5 -42.5t3.5 -43.5q0 -112 -105 -187q-34 -24 -74.5 -34.5t-81.5 -10.5q-42 0 -73.5 13.5
t-52.5 37.5t-32 56t-11 70q0 54 33 106t105 97q97 60 243.5 92t351.5 32q14 0 44 -0.5t68 -2t79 -3.5t77 -4q57 0 85.5 -9.5t28.5 -41.5q0 -34 -34 -45.5t-103 -11.5q-15 0 -38 2.5t-50 5.5z" />
    <glyph glyph-name="u0414" unicode="&#x414;" horiz-adv-x="1000" 
d="M1052 722q-57 -4 -110 -24.5t-92 -64.5q27 -21 51 -49t42 -62t28.5 -72.5t10.5 -82.5q0 -76 -23.5 -134.5t-64 -101t-95 -71t-117 -45.5t-130 -24t-133.5 -7q-60 0 -103.5 5t-60.5 7q-27 -4 -62 -8t-70 -4q-45 0 -69.5 9t-24.5 27q0 10 10 17t34 7q29 0 78 -10t109 -22
q39 6 71.5 28t62.5 57t58.5 82t58.5 104q32 59 61.5 113t62 101t70.5 86t86 68q-37 26 -90.5 42.5t-125.5 16.5q-65 0 -129.5 -28t-116 -77t-83.5 -115.5t-32 -144.5q0 -25 5 -48.5t16.5 -41.5t31 -29t48.5 -11q39 0 69.5 20.5t51.5 52t31.5 69t10.5 71.5q0 30 -6 65t-20 69
l10 4q14 -33 21 -68.5t7 -63.5q0 -58 -17.5 -104t-48.5 -78t-73 -49.5t-92 -17.5q-37 0 -67 14t-51 38t-32 55.5t-11 65.5q0 56 20.5 104.5t56 89t82.5 72.5t100.5 53.5t110.5 33t111 11.5q68 0 130 -17.5t101 -43.5q56 33 117 50t125 23v-12zM290 5q28 -5 67.5 -7t74.5 -2
q74 0 135.5 21.5t109.5 57.5t83.5 84t59 100t35 106t11.5 102q0 38 -6.5 76t-29.5 69q-41 -61 -73 -122.5t-62.5 -120t-64 -112.5t-80 -101t-109 -85t-151.5 -64v-2z" />
    <glyph glyph-name="u0415" unicode="&#x415;" horiz-adv-x="704" 
d="M462 483q30 -10 63 -10q31 0 52 11.5t34 29.5t19 39.5t6 42.5t-5 41.5t-15.5 36.5t-27.5 26t-40 10q-30 0 -51 -15t-36 -44.5t-25.5 -73.5t-19.5 -101q-4 -25 -22.5 -42.5t-44.5 -33.5t-55 -33t-53.5 -41t-40.5 -57t-16 -82q0 -41 13.5 -74t37 -56t54.5 -35t65 -12
q54 0 91.5 16.5t60.5 42t33.5 56t10.5 58.5q0 21 -6 41.5t-17.5 36t-29 25t-41.5 9.5q-26 0 -48.5 -12t-41 -29.5t-32.5 -37t-23 -34.5l-10 4q15 26 37.5 52.5t51 48t61.5 35t67 13.5q72 0 106 -32.5t34 -83.5q0 -46 -33 -89t-86.5 -75t-121 -51.5t-135.5 -19.5q-36 0 -77 8
t-76 27.5t-58 51t-23 78.5q0 49 23.5 82t56.5 55.5t68 38t57 30.5q13 9 19 36.5t12 62t14.5 71t24.5 62.5q23 37 55 62.5t67 41.5t70 23.5t63 7.5t55.5 -6t49.5 -19.5t35.5 -36.5t13.5 -57q0 -37 -19.5 -64t-49 -44.5t-64.5 -25.5t-67 -8q-17 0 -36 3.5t-36 10.5z" />
    <glyph glyph-name="u0416" unicode="&#x416;" horiz-adv-x="1331" 
d="M1498 612q7 10 11.5 19t4.5 20q0 19 -13 31t-36 12q-29 0 -61.5 -15.5t-65 -39.5t-61 -52t-48.5 -52q-37 -45 -67.5 -98.5t-53 -108.5t-35 -108t-12.5 -95q0 -51 17.5 -81t49.5 -30q30 0 75 22t99 73q33 31 68.5 73.5t69.5 90.5l7 -7q-35 -49 -69.5 -92t-69.5 -75
q-63 -59 -123.5 -87t-114.5 -28q-64 0 -97.5 38t-33.5 110q0 38 11.5 75.5t29.5 73.5t41.5 69t47.5 63l-3 3q-18 -18 -38.5 -41.5t-41 -48t-40 -47.5t-35.5 -40q-42 -46 -87.5 -87t-85.5 -73t-69 -54.5t-38 -30.5l-11 5q23 28 42.5 55t36.5 59q23 43 38 86t35 90
q10 25 20.5 47t22.5 44t26 45.5t32 52.5q-34 -41 -67.5 -78t-79.5 -80q-21 -20 -53 -48t-70.5 -59.5t-80.5 -63.5t-83 -59q-46 -30 -84.5 -50.5t-73 -32.5t-66 -17.5t-64.5 -5.5q-63 0 -99 29t-36 74q0 33 17.5 55t53.5 22q26 0 42.5 -16.5t16.5 -39.5q0 -19 -10 -32.5
t-25 -18.5q1 -24 18.5 -40.5t52.5 -16.5q42 0 100.5 24.5t124.5 88.5q59 57 101.5 118.5t75.5 133.5q26 57 37.5 106.5t11.5 95.5q0 66 -29.5 100.5t-81.5 34.5q-48 0 -90 -22.5t-71 -57.5q-29 -36 -46 -80.5t-17 -96.5q0 -61 28.5 -97t73.5 -36q25 0 50 12.5t44.5 36
t32.5 57t15 75.5h12q-1 -45 -18 -86.5t-46 -73t-67.5 -50.5t-83.5 -19q-28 0 -52 11t-41.5 30.5t-27.5 46t-10 57.5q0 61 30 116.5t81 99.5q55 48 124 72.5t132 24.5q91 0 133.5 -43.5t42.5 -122.5q0 -42 -15.5 -93t-42.5 -97q-27 -45 -56.5 -84t-72.5 -81l2 -2q38 30 74 61
t79 70q51 46 94 95t78 98q15 25 34.5 56.5t45.5 60.5q17 20 36.5 35t38 25.5t34 16t24.5 5.5q10 0 16.5 -7.5t6.5 -13.5q0 -8 -5.5 -17t-26.5 -20q-17 -9 -33.5 -16t-23.5 -15q-23 -25 -46.5 -81t-57.5 -132q-14 -32 -29.5 -64.5t-34.5 -68.5q-18 -34 -37.5 -63.5t-38 -53.5
t-34.5 -42.5t-27 -30.5l1 -1q50 38 92.5 77.5t77.5 77.5q40 42 77 87t78 90q30 32 56.5 60t54.5 53t59 48.5t69 47.5q52 33 110 55t125 22q49 0 75 -17t26 -49q0 -27 -20 -45.5t-47 -18.5q-16 0 -34 6.5t-35 21.5z" />
    <glyph glyph-name="u0417" unicode="&#x417;" horiz-adv-x="730" 
d="M420 363h15q47 0 90.5 16.5t75.5 45.5q26 23 44 60.5t17 81.5q-1 35 -14.5 61t-33.5 44q-22 20 -51 28t-59 6q-33 -2 -67 -15.5t-60 -35.5q-30 -26 -49 -62.5t-19 -78.5q0 -35 19.5 -61.5t58.5 -26.5q24 0 45.5 7t44.5 28q16 15 29.5 42t15.5 60l11 -1q-1 -34 -15 -63.5
t-34 -47.5q-26 -23 -55.5 -34t-60.5 -11q-26 0 -49 4t-44 18t-32.5 36.5t-11.5 46.5q0 39 20.5 74t54.5 62q56 44 118.5 59.5t119.5 15.5q38 0 82.5 -6t76.5 -22q35 -18 59 -47t24 -78q0 -46 -25 -83.5t-64 -62.5q-40 -26 -83.5 -39t-83.5 -19v-4q25 -2 56 -9t55 -21
t38 -37.5t14 -57.5t-12.5 -64t-33.5 -56t-49 -46.5t-59 -35.5q-55 -26 -116 -38t-127 -12q-35 0 -78.5 7.5t-81.5 27.5q-34 18 -57.5 45.5t-23.5 69.5q0 23 9.5 43.5t24.5 34.5q32 30 78 30q38 0 62 -22t38 -56l-8 -3q-13 21 -36 21q-28 0 -45 -22t-17 -49t11 -47.5
t29 -34.5q20 -15 45.5 -22.5t52.5 -7.5q51 0 100.5 21.5t84.5 59.5q33 35 51 76t18 83q0 57 -30 87q-12 12 -30 19t-43 7q-20 0 -36 -6z" />
    <glyph glyph-name="u0418" unicode="&#x418;" horiz-adv-x="944" 
d="M1066 692q-16 -25 -50 -76t-75.5 -114t-85 -133t-79.5 -133.5t-59 -114t-23 -76.5q0 -43 36 -43q15 0 35.5 7t44 20t48 31t47.5 40q24 23 46 46.5t41.5 45.5t35.5 41t26 32l7 -7q-35 -42 -77 -91.5t-90 -92t-101.5 -70.5t-111.5 -28q-50 0 -76.5 27.5t-26.5 72.5
q0 26 8.5 52t21.5 49l-2 2q-30 -34 -63.5 -67.5t-71.5 -60t-80.5 -43t-90.5 -16.5q-42 0 -65 23t-23 68q0 39 21 85.5t52 96t68 101t68 100.5t52 94t21 82q0 30 -18 47t-48 17q-44 0 -84 -21t-71 -55t-49 -75.5t-18 -82.5q0 -34 12.5 -59t51.5 -25q19 0 35.5 9t30.5 23
t24.5 30t17.5 31l9 -2q-3 -7 -5.5 -13t-7.5 -14q-23 -38 -55 -64t-83 -26q-46 0 -68 28t-22 70q0 55 30 103t76 83t101.5 55.5t106.5 20.5q68 0 109 -28t41 -88q0 -30 -21 -74.5t-52 -96t-68 -106t-68 -104t-52 -91t-21 -66.5q0 -21 9.5 -33.5t27.5 -12.5q31 0 82.5 32
t116.5 99q21 22 51 61.5t64 89t69.5 104t68 107t59 97.5t42.5 74z" />
    <glyph glyph-name="u0419" unicode="&#x419;" horiz-adv-x="944" 
d="M1066 692q-60 -91 -113 -170.5t-94 -145.5q-83 -134 -124 -215.5t-41 -116.5q0 -42 40 -42q25 0 70.5 23.5t101.5 75.5q15 13 33 32t37.5 41t39.5 45.5t38 46.5l7 -8q-16 -19 -35 -41.5t-38.5 -45.5t-38.5 -44t-37 -37q-73 -65 -128 -89.5t-101 -24.5q-52 0 -78.5 27
t-26.5 74q0 20 7 45t23 55l-2 2q-86 -101 -163 -144.5t-139 -43.5q-41 0 -66.5 23t-25.5 64q0 32 11 65t32 71t51 82t67 98q34 50 57 87.5t37.5 66.5t20.5 51t6 40q0 67 -69 67q-33 0 -72 -17t-72 -50q-37 -37 -56 -81.5t-19 -89.5q0 -38 15 -59t46 -21q17 0 34 7t35 25
q23 23 42 61l9 -2q-12 -29 -29.5 -51.5t-35.5 -36.5q-20 -17 -40.5 -23t-43.5 -6q-46 0 -69 25.5t-23 69.5q0 45 22 93t79 92q46 38 104.5 59t114.5 21q67 0 105.5 -28.5t38.5 -82.5q0 -26 -13.5 -60t-36.5 -74.5t-53 -87t-63 -97.5q-29 -45 -51 -79t-36.5 -60.5
t-21.5 -47.5t-7 -40q0 -20 11 -31.5t29 -11.5q25 0 70.5 26.5t107.5 87.5q42 42 87 103.5t93 134.5q48 72 96 150.5t96 161.5zM987 871q-10 -17 -28.5 -39.5t-41.5 -40.5q-38 -27 -74 -36t-80 -9q-63 0 -98 17t-35 49q0 29 30.5 47.5t79.5 18.5q7 0 29 -1.5t41 -6.5l-2 -9
q-4 1 -12 1.5t-13 0.5q-26 0 -40.5 -17t-14.5 -37q0 -18 14.5 -31.5t49.5 -13.5q64 0 114 36q25 18 42.5 38.5t29.5 38.5z" />
    <glyph glyph-name="u041A" unicode="&#x41a;" horiz-adv-x="1000" 
d="M476 543q10 -12 18 -30t8 -45q0 -28 -14.5 -57.5t-41.5 -53t-65 -38.5t-84 -15q-59 0 -96 34.5t-37 94.5q0 50 26.5 89t72 68.5t104.5 50t124 34t132 21.5t127 12t109.5 5t79.5 1q13 0 29.5 3t33 7t31.5 7t25 3q30 0 30 -18q0 -9 -14.5 -12.5t-29.5 -3.5q-12 0 -28 1
t-34 1h-1q-11 0 -34.5 -7t-53.5 -26t-64.5 -51.5t-67.5 -82.5q-35 -52 -67 -112.5t-67.5 -121t-77 -116.5t-95.5 -99t-122.5 -68.5t-158.5 -25.5q-35 0 -64.5 8.5t-51 23.5t-33.5 36.5t-12 47.5q0 32 18 54.5t53 22.5q23 0 42 -13.5t19 -38.5q0 -19 -8 -33.5t-27 -19.5
q0 -2 -0.5 -4t-0.5 -6q0 -31 20.5 -49t53.5 -17q59 1 104 33t86.5 87.5t84 132t94.5 166.5q40 69 88.5 118t100 81.5t102 51t94.5 26.5v2q-189 -1 -317 -26t-206.5 -64t-112.5 -88t-34 -97q0 -39 25 -63t63 -24q28 0 53 12t43.5 30.5t29 42t10.5 45.5q0 38 -23 69zM1116 257
q-32 -45 -67 -88.5t-73 -81.5q-47 -46 -93.5 -70.5t-107.5 -24.5q-47 0 -74 23.5t-27 70.5q0 29 14 60.5t30.5 62.5t30 59.5t13.5 50.5q0 28 -17 40.5t-46 12.5q-6 0 -10.5 1t-4.5 5q0 6 11 6q41 0 73.5 6.5t63 25t62.5 51.5t71 86q36 48 74 80.5t76 52t76 28t72 8.5
q46 0 77.5 -19.5t31.5 -58.5q0 -22 -11 -39t-28 -27.5t-37.5 -16t-39.5 -5.5q11 23 19.5 49t8.5 50q0 55 -34 55q-21 0 -39 -18t-37 -46.5t-41 -63t-50 -67.5q-33 -38 -66 -62.5t-73 -40t-89.5 -24t-114.5 -14.5v-2q23 -12 44 -25t37.5 -30.5t26.5 -39.5t10 -51
q0 -21 -7.5 -44t-16.5 -45.5t-16.5 -43t-7.5 -35.5q0 -17 8 -26.5t25 -9.5q28 0 64 23.5t77 66.5q34 35 65.5 76t57.5 76z" />
    <glyph glyph-name="u041B" unicode="&#x41b;" horiz-adv-x="928" 
d="M919 650q-55 -27 -104.5 -61t-97 -75t-95 -89t-99.5 -104q-67 -72 -125 -133.5t-124 -109.5q-116 -85 -219 -86q-33 0 -60.5 9.5t-46.5 25.5t-29.5 37.5t-10.5 45.5q0 37 20.5 58.5t52.5 21.5q23 0 40 -14.5t17 -43.5q0 -20 -13 -34.5t-35 -15.5q1 -23 22.5 -43.5
t66.5 -20.5q35 0 81.5 17.5t100.5 55.5q69 48 131.5 113t131.5 140q49 54 109 112t131 111.5t152.5 96t172.5 64.5l11 -14q-82 -83 -145.5 -160.5t-111.5 -149.5q-74 -111 -108.5 -199t-34.5 -146q0 -55 37 -55q12 0 27.5 4.5t36.5 17.5t47.5 35t60.5 58q26 27 56 62.5
t65 80.5l7 -7q-68 -89 -120 -144q-41 -43 -73.5 -68t-60.5 -38t-53 -17t-50 -4q-48 0 -77 26t-29 78q0 40 18.5 99t57.5 131q30 55 65 102.5t70.5 88.5t70 75.5t64.5 62.5z" />
    <glyph glyph-name="u041C" unicode="&#x41c;" horiz-adv-x="1000" 
d="M380 -3q30 51 51.5 111t44 123.5t50 127.5t67.5 124.5t97.5 114.5t140.5 96l-2 2q-82 -31 -149 -82t-119.5 -108t-91 -111t-64.5 -91q-49 -70 -92.5 -127.5t-88 -98.5t-93.5 -63.5t-111 -22.5q-28 0 -53 8t-44.5 23.5t-31 38t-11.5 52.5t19 53t50 23q26 0 43.5 -16
t17.5 -44q0 -21 -12 -36.5t-33 -17.5q4 -34 23 -49t50 -15q56 0 106 29t98.5 79t98.5 117.5t105 144.5q44 62 91.5 116t102 98.5t117.5 79t138 56.5l8 -12q-58 -29 -95.5 -72.5t-65 -96t-49.5 -111.5t-48 -121t-60.5 -123.5t-88.5 -119.5l2 -2q38 34 71 67t70 75.5t81.5 99
t103.5 135.5q44 59 92.5 108.5t103.5 85.5t117 56.5t132 20.5q37 0 51 -5t14 -17q0 -6 -8.5 -11t-22.5 -5q-17 0 -28 2l-22 4q-7 2 -19.5 4t-23.5 2q-17 0 -39 -16t-45 -46.5t-46.5 -74t-44.5 -97.5q-33 -87 -64.5 -156.5t-71.5 -124.5t-94 -96.5t-131 -72.5v-2h2
q56 0 114 9.5t108 32.5q53 24 104 73.5t105 140.5l9 -3q-44 -75 -87 -124t-93 -79q-37 -22 -76.5 -34.5t-77 -18t-69 -6.5t-51.5 -1q-9 0 -17.5 -1.5t-18 -3t-21.5 -2.5t-30 -1q-31 0 -31 16q0 18 26 18q9 0 20 -2t22 -5t21 -5t17 -2q22 0 42 23t40.5 62.5t42.5 91.5t49 109
t60 116t74.5 112.5t93.5 98.5t116 73l-2 2q-52 -13 -99.5 -40t-91 -63.5t-84 -82.5t-78.5 -98t-87 -115t-104 -123t-113.5 -109.5t-116.5 -74.5z" />
    <glyph glyph-name="u041D" unicode="&#x41d;" horiz-adv-x="1000" 
d="M615 348q-87 -177 -207.5 -266.5t-269.5 -89.5q-27 0 -55.5 6.5t-52.5 20t-39 35t-15 50.5q0 33 19.5 58.5t55.5 25.5q28 0 43 -19t15 -45q0 -17 -11 -29.5t-26 -18.5q0 -33 15.5 -52.5t50.5 -19.5q58 0 102 26.5t80.5 70t68.5 101t66.5 118.5t74.5 122.5t92.5 114
t120.5 91.5t159 56v2q-42 0 -108 -2.5t-140.5 -12t-149.5 -27.5t-135.5 -49t-98.5 -76.5t-38 -110.5q0 -37 18.5 -63.5t62.5 -26.5q29 0 55 11t45.5 30t31 43t11.5 49q0 19 -4.5 36t-10.5 28l9 3q8 -11 13 -29.5t5 -38.5q0 -37 -17.5 -67.5t-47 -53t-67 -35t-76.5 -12.5
q-28 0 -53 10t-43 27t-29 40t-11 49q-1 68 45.5 121.5t129 90t196.5 55.5t247 19q53 0 97.5 3.5t79.5 7.5t60.5 7.5t38.5 3.5q22 0 27 -6.5t5 -12.5t-7.5 -11.5t-25.5 -5.5q-11 0 -28 3t-37 3q-35 0 -70 -18.5t-67.5 -48.5t-62.5 -68t-55 -76t-44 -72.5t-30 -58.5h134
q45 86 105.5 150.5t125 107t129 63.5t117.5 21q16 0 38.5 -1.5t43 -8t35 -19.5t14.5 -35t-13.5 -36t-34.5 -14q-24 0 -37.5 15.5t-25 33.5t-24 33.5t-33.5 15.5q-43 0 -89 -32t-89 -83t-81 -115.5t-66.5 -130t-45 -126t-16.5 -103.5q0 -16 1 -30.5t5 -25.5t11.5 -17.5
t20.5 -6.5q22 0 47.5 15t52 38.5t51.5 52.5t46.5 56t38 49.5t25.5 33.5l8 -4q-18 -23 -39.5 -52.5t-46.5 -60t-53.5 -60.5t-59 -53t-63.5 -37t-68 -14q-30 0 -50.5 11t-33 29t-18 42t-5.5 50q0 29 6.5 59t16.5 60t22 58.5t24 54.5h-134z" />
    <glyph glyph-name="u041E" unicode="&#x41e;" horiz-adv-x="778" 
d="M888 254q-36 -30 -81.5 -47.5t-102.5 -17.5q-28 0 -50 7q-34 -40 -75.5 -78.5t-89.5 -68t-101.5 -47.5t-111.5 -18q-46 0 -81 15.5t-58 43t-35 65t-12 80.5q0 85 41.5 168t108 151t148.5 113t163 54q22 19 49 33.5t69 14.5q27 0 50 -12.5t39.5 -35t26 -54.5t9.5 -71
q0 -44 -10 -90t-28 -90.5t-42 -85.5t-52 -75q12 -3 23.5 -5t22.5 -2q35 0 60.5 6t46 15t37.5 20t33 21zM230 168q0 -28 7 -55.5t22 -49.5t38 -35.5t54 -13.5q40 0 77 19.5t69 50t58.5 66.5t45.5 69q-63 35 -103 88t-40 135q0 71 23.5 124.5t58.5 91.5l-2 2q-56 -12 -111 -59
t-99 -115.5t-71 -151.5t-27 -166zM508 468q0 -83 25.5 -146.5t72.5 -90.5q37 84 58.5 165t21.5 173q0 57 -18 92t-48 35q-14 0 -27.5 -6.5t-24.5 -15.5q38 -2 60.5 -25t22.5 -61q0 -26 -7.5 -45.5t-18.5 -42.5l-11 4q12 26 18.5 45.5t6.5 35.5q0 34 -21 55.5t-58 21.5
q-29 -36 -40.5 -85.5t-11.5 -108.5z" />
    <glyph glyph-name="u041F" unicode="&#x41f;" horiz-adv-x="1002" 
d="M908 613q-42 -14 -78 -37t-68.5 -57.5t-63 -80.5t-61.5 -105q-22 -41 -43.5 -78t-47 -70t-55.5 -62.5t-69 -54.5q-29 -19 -54.5 -33.5t-51 -24t-52.5 -14t-60 -4.5q-180 0 -183 114q-1 35 21 58.5t51 23.5q30 0 45.5 -18.5t15.5 -42.5q0 -22 -11.5 -32.5t-25.5 -19.5
q4 -38 26.5 -54.5t54.5 -16.5q37 0 69.5 17t65.5 52.5t67.5 90t75.5 130.5q18 34 35.5 64.5t37 58.5t43.5 52.5t56 47.5q47 33 108.5 56.5t121.5 40.5v2q-54 4 -117 7.5t-117 3.5q-68 0 -122.5 -4t-98.5 -12.5t-79 -21t-65 -28.5q-51 -29 -74 -67t-23 -73q0 -49 35 -79
q31 -28 79 -28q36 0 67 15.5t52 41.5q14 19 22.5 42t8.5 49q0 16 -3 33.5t-11 37.5l11 3q7 -18 11 -39t4 -43q0 -25 -5.5 -51.5t-20.5 -52.5q-22 -37 -57 -61.5t-80 -24.5q-29 0 -51 10t-39 27q-38 41 -38 104q0 27 6.5 54t22 54t41 52.5t63.5 49.5q49 32 107.5 52.5
t124.5 33.5q54 11 113.5 16t121.5 5q66 0 118 -3.5t93 -3.5l134 -3q57 0 83.5 -11t26.5 -38q0 -29 -24.5 -45.5t-93.5 -16.5q-8 0 -31.5 1.5t-53.5 3t-60.5 3.5t-50.5 4zM1128 261q-33 -44 -60.5 -80.5t-53.5 -65.5q-61 -68 -114 -99.5t-102 -31.5q-51 0 -76 35t-25 101
q0 37 13 78.5t32 81t40 73t38 53.5q31 38 74 76.5t95 65.5q15 8 36.5 14.5t32.5 6.5q8 0 12.5 -4t4.5 -8q0 -5 -3.5 -10.5t-14.5 -7.5t-25 -3.5t-28 -3.5q-20 -10 -44.5 -39.5t-49.5 -74.5q-26 -47 -43.5 -91t-27.5 -84t-14 -75t-4 -63q0 -41 9.5 -63t31.5 -22q26 0 62.5 26
t81.5 76q26 29 54 64.5t60 78.5z" />
    <glyph glyph-name="u0420" unicode="&#x420;" horiz-adv-x="944" 
d="M1079 740q-26 -6 -50.5 -13t-47.5 -21q28 -11 52.5 -28t42.5 -39t28.5 -49t10.5 -59q0 -51 -20.5 -88.5t-54 -62.5t-75 -37.5t-83.5 -12.5q-19 0 -38 4.5t-34.5 13.5t-25.5 22.5t-10 31.5q0 21 15.5 34.5t38.5 13.5q25 0 41 -16q-14 -10 -21.5 -25t-7.5 -32
q0 -14 7.5 -22.5t21.5 -8.5q28 0 51.5 25t41 60t27.5 74t10 66q0 36 -15 64.5t-39 45.5q-63 -52 -105.5 -113.5t-78 -125.5t-69.5 -127t-81 -119t-112 -101.5t-163 -74.5v-2q21 -3 47 -5.5t53 -4.5t52 -3t43 -1q73 0 143.5 12t136.5 41.5t127 80.5t114 129l9 -5
q-49 -70 -99 -122.5t-105.5 -87t-120.5 -51.5t-144 -17q-46 0 -91 3.5t-83 8t-65.5 8.5t-38.5 6q-38 -8 -77.5 -13t-87.5 -5q-54 0 -84.5 12t-30.5 29q0 25 35 25q24 0 56 -4t65 -9.5t63.5 -11.5t52.5 -9q40 14 71.5 39.5t60 62.5t57 84.5t61.5 105.5t70.5 116.5t80.5 111
t93.5 94t110.5 65.5q-27 13 -65.5 19t-73.5 6q-86 0 -172 -28t-155 -78t-112 -119.5t-43 -153.5q0 -20 4.5 -40t15 -35.5t27 -25.5t39.5 -10q39 0 67 21t46 52t26.5 65.5t8.5 61.5q0 30 -3.5 49.5t-8.5 36.5l11 1q4 -16 8.5 -35.5t4.5 -51.5q0 -39 -13 -83t-39 -81
t-66.5 -61.5t-95.5 -24.5q-66 0 -107 39.5t-41 105.5t30 121.5t79 101t112.5 80t130.5 57.5t132.5 35t118.5 12q59 0 99 -7t71 -17q5 2 18 7t31 10t39 9t41 4z" />
    <glyph glyph-name="u0421" unicode="&#x421;" horiz-adv-x="722" 
d="M603 617q-9 -9 -20 -27t-11 -46q0 -37 23 -60t57 -23q32 0 59 17.5t46.5 44.5t30 59t10.5 60q0 37 -20.5 52.5t-55.5 15.5q-53 0 -108.5 -22.5t-107 -61.5t-97 -91.5t-79 -113.5t-53 -126.5t-19.5 -130.5q0 -32 8.5 -61t24.5 -51t37.5 -35t47.5 -13q39 0 75.5 18.5
t65.5 48.5t46.5 69t17.5 81q0 22 -4.5 42.5t-14 36t-24 25t-35.5 9.5q-40 0 -65 -26.5t-38.5 -61.5t-18.5 -68t-5 -47h-12q0 39 10.5 81t33 77.5t58 58t84.5 22.5q27 0 50 -9t40 -25.5t27 -39t10 -49.5q0 -48 -27.5 -95.5t-73 -84.5t-104.5 -60t-122 -23q-120 0 -176 58.5
t-56 165.5q0 62 28 124.5t74.5 119.5t107 106.5t126.5 86t132 57t123 20.5q30 0 60 -4.5t53 -17t37.5 -35t14.5 -58.5q0 -31 -15.5 -60.5t-42.5 -52t-62.5 -36t-75.5 -13.5q-23 0 -44.5 5.5t-38 17.5t-26 30.5t-9.5 44.5q0 20 8.5 41t26.5 39z" />
    <glyph glyph-name="u0422" unicode="&#x422;" horiz-adv-x="1160" 
d="M524 -6q23 21 50 54.5t51 71.5q35 54 55.5 106t43.5 96q28 55 54.5 90.5t51.5 59.5t50 40.5t51 31.5q12 8 34 17t35 14l2 -10q-11 -5 -25 -14.5t-31 -26.5q-33 -35 -73 -136q-17 -42 -32 -69.5t-27 -50.5q-10 -18 -24 -39t-30 -41.5t-32.5 -39.5t-31.5 -32
q-35 -31 -78.5 -66t-85.5 -64zM916 616q-78 -23 -147 -90.5t-133 -192.5q-42 -83 -92 -149.5t-119 -113.5q-29 -20 -55.5 -34.5t-53.5 -24t-55 -14.5t-61 -5q-180 0 -180 118q0 18 6.5 32t16 24.5t22 16t24.5 5.5q30 0 47 -17t17 -44q0 -22 -13.5 -34t-23.5 -19
q3 -22 10.5 -35.5t19.5 -21t26.5 -10.5t30.5 -3q66 0 131 73t145 223q17 32 34 62t36.5 57t43.5 51.5t56 47.5q47 33 109 57t125 42v2q-54 4 -108 6.5t-108 2.5q-88 0 -148 -4t-102.5 -11.5t-73.5 -20t-61 -28.5q-55 -30 -80 -70t-25 -75q0 -24 9.5 -43.5t25.5 -33t37.5 -21
t45.5 -7.5q26 0 55.5 10.5t52.5 33.5q20 20 31 46t11 58q0 16 -3 33.5t-11 37.5l10 3q16 -36 16 -82q0 -29 -7 -59t-27 -58q-23 -34 -56.5 -53.5t-71.5 -19.5q-29 0 -53 11t-42 30.5t-28 45t-10 54.5q0 54 31 108t109 103q50 31 108 50.5t124 32.5q27 5 60.5 9.5t69 7.5
t70.5 4.5t66 1.5q66 0 118 -3.5t92 -3.5l230 -7q56 0 78 -10t22 -40q0 -32 -34 -44.5t-103 -12.5q-8 0 -41 2.5t-76.5 5.5t-90 5t-79.5 2zM1275 261q-33 -44 -60.5 -80.5t-53.5 -65.5q-61 -68 -114 -99.5t-102 -31.5q-51 0 -73 35t-22 101q0 37 12 78.5t30 81t38 73t37 53.5
q31 38 74 76.5t95 65.5q15 8 34.5 14.5t30.5 6.5q8 0 12.5 -4t4.5 -8q0 -5 -3.5 -10.5t-14.5 -7.5t-23 -3.5t-26 -3.5q-20 -10 -44.5 -39.5t-49.5 -74.5q-26 -47 -43.5 -91t-27.5 -84t-14 -75t-4 -63q0 -41 9.5 -63t31.5 -22q26 0 62.5 26t81.5 76q26 29 54 64.5t60 78.5z
" />
    <glyph glyph-name="u0423" unicode="&#x423;" horiz-adv-x="852" 
d="M1088 686q-53 -75 -109.5 -163.5t-116.5 -183.5t-123 -193.5t-128 -194.5q-46 -69 -101.5 -118.5t-114.5 -81t-118 -46.5t-113 -15q-49 0 -91 9t-73 27t-48.5 45.5t-17.5 65.5q0 31 14.5 55.5t37.5 40.5t51 24.5t55 8.5q28 0 55 -6t53 -15l-2 -9q-11 4 -23.5 7t-26.5 3
q-19 0 -36.5 -9.5t-30 -26t-20 -37.5t-7.5 -45q0 -61 31.5 -93.5t78.5 -32.5q67 0 124 40t112 106.5t111 154t120 181.5l-2 2q-30 -34 -63.5 -68.5t-72.5 -63t-83.5 -46.5t-96.5 -18q-46 0 -67.5 24.5t-21.5 62.5q0 37 21.5 83t54 97t70.5 103.5t70.5 102.5t54 95t21.5 80
q0 27 -17.5 47.5t-56.5 20.5q-30 0 -68 -18t-71.5 -50t-56 -76.5t-22.5 -97.5q0 -34 13.5 -56t42.5 -22q42 0 69 27.5t46 64.5l8 -3q-7 -15 -19.5 -34.5t-31 -37.5t-42.5 -30.5t-54 -12.5q-90 0 -90 94q0 50 27.5 98t72 85.5t101 61t113.5 23.5q31 0 58 -6.5t47 -20.5
t31.5 -36.5t11.5 -55.5q0 -29 -12.5 -61t-30.5 -63.5t-38.5 -61.5t-37.5 -56q-10 -15 -26 -38t-34 -50.5t-37 -57.5t-34 -58.5t-24.5 -54t-9.5 -44.5q0 -38 37 -38q30 0 71 23t86.5 64.5t92 98t88.5 123.5l218 351z" />
    <glyph glyph-name="u0424" unicode="&#x424;" horiz-adv-x="1112" 
d="M790 124q-21 -18 -34 -40.5t-13 -39.5q0 -43 38 -43q18 0 35 9t33 23.5t30 33t25 37.5q29 51 41.5 106.5t12.5 115.5q0 13 -2 30t-8.5 32t-18.5 25.5t-32 10.5q-24 0 -45 -10t-40 -25t-36 -34q-13 -15 -27 -29q-21 -38 -38 -68q-18 -32 -33 -59.5t-31 -57.5
q-29 -52 -52.5 -93.5t-45 -75t-43.5 -61.5t-46 -54q-75 -80 -169.5 -123.5t-185.5 -43.5q-115 0 -175.5 39t-60.5 109q0 25 11.5 48.5t33 41t51.5 28t67 10.5q17 0 34 -3t31.5 -7t24.5 -7t13 -4l-2 -9q-15 6 -27.5 8t-20.5 2q-20 0 -37.5 -9.5t-30.5 -25.5t-20.5 -37.5
t-7.5 -45.5q0 -55 28 -90.5t81 -35.5q22 0 47.5 5.5t54 20.5t61 42t67.5 70t60.5 81t44 71t32.5 60q9 16 16 30q-43 -52 -95 -75q-54 -23 -103 -23q-61 0 -96.5 34.5t-35.5 98.5q0 42 22.5 95.5t67.5 104.5q20 24 47 47.5t58 42t64.5 30t67.5 11.5q61 0 87.5 -19.5
t26.5 -48.5q0 -22 -9.5 -40t-26 -30.5t-38 -19.5t-45.5 -7q-29 0 -49 7t-22 8l2 9q4 -2 16 -6.5t29 -4.5q42 0 59 25t17 57q0 19 -11 37.5t-37 18.5q-17 0 -40 -7.5t-46 -28.5q-22 -18 -39.5 -43.5t-36.5 -58.5q-12 -21 -21 -46t-15 -49.5t-9 -47.5t-3 -41q0 -49 17 -74.5
t47 -25.5q26 0 51 10.5t47 27t41 36.5t34 38l70 123q45 79 85 139t82 101q66 64 117.5 97.5t73.5 49.5l-1 3q-18 -6 -37 -15t-39 -17.5t-41 -15t-42 -6.5q-42 0 -78.5 9t-81.5 30q-35 17 -60.5 26t-55.5 9q-17 0 -32.5 -7t-27.5 -18.5t-19 -27t-7 -33.5q0 -13 4 -26.5
t13.5 -25t24.5 -18.5t37 -7q34 0 58.5 15.5t47.5 52.5l9 -4q-23 -42 -51.5 -61t-66.5 -19q-23 0 -39.5 9t-28 22.5t-17 30.5t-5.5 32q0 29 13.5 56t37.5 49q26 23 55.5 34t56.5 11q38 0 77 -10.5t81 -27.5q20 -8 36 -15.5t32 -13t32.5 -8.5t36.5 -3q30 0 59.5 4.5t70.5 18.5
q21 8 44.5 16t44.5 8q10 0 14.5 -4.5t4.5 -9.5q0 -6 -3.5 -12t-14.5 -8q-9 -1 -21 -0.5t-24 0.5h-23q-10 0 -16 -2q-56 -26 -95 -79q-12 -15 -23.5 -34.5t-22.5 -39t-21 -38.5t-19 -34q-20 -34 -37 -63q33 38 72 57q49 24 112 24q34 0 58 -10t39.5 -28t23 -42t7.5 -52
q0 -48 -20.5 -106t-62.5 -107q-45 -52 -103 -85.5t-127 -33.5q-26 0 -47.5 7.5t-36.5 20.5t-23.5 30.5t-8.5 36.5q0 29 20 50t53 21q16 0 29 -5t33 -21z" />
    <glyph glyph-name="u0425" unicode="&#x425;" horiz-adv-x="926" 
d="M554 493q0 -44 -16.5 -85.5t-45.5 -73.5t-68 -51t-85 -19q-31 0 -55 12t-41 32t-26 46.5t-9 55.5q0 60 30.5 116.5t81.5 100t118.5 69.5t141.5 26q51 0 85.5 -15.5t55 -43t29.5 -64.5t9 -80q35 35 76 70t87.5 62.5t98.5 45t109 17.5q20 0 38.5 -2.5t33.5 -10t24 -21
t9 -34.5q0 -29 -21.5 -45.5t-48.5 -16.5q-17 0 -35.5 8t-30.5 20q5 7 10.5 17.5t5.5 21.5q0 20 -13.5 31.5t-36.5 11.5q-36 0 -81 -25t-91.5 -67t-91.5 -97.5t-79.5 -117.5t-56 -126.5t-21.5 -123.5q0 -56 14.5 -91.5t56.5 -35.5q32 0 65 15.5t65.5 39.5t62 54t54.5 59.5
t44 54.5t29 40l7 -7q-24 -31 -59.5 -79t-84 -93t-110 -77.5t-136.5 -32.5q-36 0 -60.5 13.5t-39.5 35.5t-21.5 50.5t-6.5 58.5q0 11 1.5 21.5t3.5 21.5h-2q-35 -39 -76.5 -75t-88.5 -64t-98.5 -45t-106.5 -17q-65 0 -103 27t-38 79q0 32 18.5 53t51.5 21q24 0 42 -15t18 -41
q0 -17 -10 -31.5t-26 -19.5q2 -23 19 -40t52 -17q56 0 111.5 28.5t106.5 75.5t95 107t76 123t50.5 124.5t18.5 110.5q0 27 -6.5 51t-20 42t-35.5 29t-53 11q-49 0 -90.5 -22t-71.5 -57.5t-47 -81t-17 -92.5q0 -24 5.5 -48.5t18 -44t32.5 -32t48 -12.5q32 0 58 17.5t44 44.5
t28 59t10 60h12z" />
    <glyph glyph-name="u0426" unicode="&#x426;" horiz-adv-x="944" 
d="M1066 692q-60 -91 -113 -170.5t-94 -145.5q-83 -134 -124 -215.5t-41 -116.5q0 -42 38 -42q25 0 71.5 23.5t102.5 75.5q15 13 33 32t37.5 41t39.5 45.5t38 46.5l7 -8q-16 -19 -35 -41.5t-38.5 -45.5t-38.5 -44t-37 -37q-35 -31 -65 -52t-57 -35q-4 -5 -7 -10.5t-5 -10.5
q-6 -17 -6.5 -35t0.5 -38q1 -30 -1 -55.5t-16 -48.5t-43.5 -39t-58.5 -26l-59 -22l-3 9l32 14q14 5 28 15.5t21 22.5q5 8 8 18.5t3 24.5t-2 26.5t-2 23.5q0 19 7 35.5t25 36.5q8 9 23 21.5t28 23.5l-1 2q-42 -15 -78 -15q-52 0 -78.5 27t-26.5 74q0 20 7 45t23 55l-2 2
q-86 -101 -163 -144.5t-139 -43.5q-41 0 -66.5 23t-25.5 64q0 32 11 65t32 71t51 82t67 98q34 50 57 87.5t37.5 66.5t20.5 51t6 40q0 67 -69 67q-33 0 -72 -17t-72 -50q-37 -37 -56 -81.5t-19 -89.5q0 -38 15 -59t46 -21q17 0 34 7t35 25q23 23 42 61l9 -2
q-12 -29 -29.5 -51.5t-35.5 -36.5q-20 -17 -40.5 -23t-43.5 -6q-46 0 -69 25.5t-23 69.5q0 45 22 93t79 92q46 38 104.5 59t114.5 21q67 0 105.5 -28.5t38.5 -82.5q0 -26 -13.5 -60t-36.5 -74.5t-53 -87t-63 -97.5q-29 -45 -51 -79t-36.5 -60.5t-21.5 -47.5t-7 -40
q0 -20 11 -31.5t29 -11.5q25 0 70.5 26.5t107.5 87.5q42 42 87 103.5t93 134.5q48 72 96 150.5t96 161.5z" />
    <glyph glyph-name="u0427" unicode="&#x427;" horiz-adv-x="919" 
d="M1041 692q-87 -129 -156 -236.5t-117 -190t-73.5 -138t-25.5 -81.5q0 -44 40 -44q25 0 71 24t103 78q33 31 70 72t75 90l8 -8q-42 -51 -77.5 -92t-67.5 -71q-71 -68 -128.5 -93.5t-108.5 -25.5t-76 28.5t-25 74.5q0 10 2.5 25t13 40.5t31.5 64t58 97.5l63 99l-2 1
q-80 -97 -155 -143t-138 -46q-52 0 -75 26.5t-23 63.5q0 38 18.5 76.5t51.5 91.5q26 42 40.5 70t21 46.5t8 29t1.5 17.5q0 34 -17 51t-48 17q-32 0 -64.5 -13t-60.5 -36q-35 -29 -59 -70t-24 -79q0 -35 15.5 -55t44.5 -20q30 0 59.5 22.5t52.5 70.5l9 -2q-17 -36 -35.5 -59
t-38 -35.5t-38.5 -17.5t-35 -5q-49 0 -71.5 25t-22.5 67q0 31 22 73.5t78 83.5q55 40 105 53t101 13q66 0 104.5 -28.5t38.5 -82.5q0 -21 -10 -48.5t-22.5 -52.5t-24 -45t-15.5 -26q-19 -33 -32.5 -55.5t-21.5 -39t-12 -29t-4 -24.5q0 -20 10 -31.5t28 -11.5q32 0 79.5 31.5
t101.5 82.5q20 19 42 46t43.5 55.5t40.5 56t33 49.5q32 50 49 78.5t22 38.5z" />
    <glyph glyph-name="u0428" unicode="&#x428;" horiz-adv-x="1273" 
d="M1395 692q-116 -171 -195 -297q-177 -281 -177 -350q0 -43 38 -43q13 0 33 6.5t44.5 20t52 34t55.5 48.5q30 29 65 68.5t72 85.5l7 -7q-40 -48 -73.5 -88t-65.5 -70q-71 -68 -128.5 -96t-108.5 -28t-79 25.5t-28 71.5q0 20 5.5 45t24.5 59l-2 2q-82 -97 -158 -142
t-138 -45q-41 0 -63.5 20.5t-22.5 60.5q0 26 11.5 52.5t24.5 52.5l-3 2q-39 -46 -73.5 -79t-66.5 -56q-41 -29 -76.5 -41t-70.5 -12q-40 0 -63.5 23.5t-23.5 63.5q0 32 13 68.5t35 76t49.5 80.5t56.5 81q61 85 94.5 149t33.5 105q0 67 -71 67q-33 0 -74 -18.5t-73 -54.5
q-33 -37 -51.5 -75t-18.5 -82q0 -14 2 -29.5t8 -28.5t18 -21.5t32 -8.5q38 0 70 32q11 11 22 26t20 35l9 -2q-11 -26 -26.5 -47t-32.5 -36q-23 -22 -47 -28t-47 -6q-44 0 -66 27.5t-22 70.5q0 48 25.5 97t85.5 93q51 37 103.5 54.5t104.5 17.5q66 0 105.5 -29t39.5 -84
q0 -26 -13 -59.5t-36 -73.5t-53.5 -86.5t-64.5 -98.5q-24 -36 -44.5 -69t-36.5 -62.5t-25 -54t-9 -42.5q0 -41 37 -41q24 0 62.5 26.5t100.5 86.5q58 57 114 142.5t125 196.5q30 49 61 101.5t65 110.5l148 6q-59 -88 -109.5 -165.5t-91.5 -141.5q-23 -35 -49 -80t-55 -96
q-28 -50 -48.5 -87t-20.5 -64q0 -20 7 -27.5t25 -8.5q7 0 22.5 4.5t38 17t52 35t65.5 57.5q48 48 99 122.5t114 169.5q41 62 78 124.5t80 133.5z" />
    <glyph glyph-name="u0429" unicode="&#x429;" horiz-adv-x="1273" 
d="M1395 692q-116 -171 -195 -297q-177 -281 -177 -350q0 -43 38 -43q13 0 33 6.5t44.5 20t52 34t55.5 48.5q30 29 65 68.5t72 85.5l7 -7q-40 -48 -73.5 -88t-65.5 -70q-37 -35 -70 -59t-61 -38q-2 -3 -6 -9.5t-6 -11.5q-6 -17 -6.5 -35t0.5 -38q1 -30 -1 -55.5t-16 -48.5
t-43.5 -39t-58.5 -26l-59 -22l-3 9l32 14q14 5 28 15.5t21 22.5q5 8 8 18.5t3 24.5t-2 26.5t-2 23.5q0 19 7 35.5t25 36.5q8 9 23 21.5t28 23.5l-1 2q-41 -15 -77 -15q-51 0 -79 25.5t-28 71.5q0 20 5.5 45t24.5 59l-2 2q-82 -97 -158 -142t-138 -45q-41 0 -63.5 20.5
t-22.5 60.5q0 26 11.5 52.5t24.5 52.5l-3 2q-39 -46 -73.5 -79t-66.5 -56q-41 -29 -76.5 -41t-70.5 -12q-40 0 -63.5 23.5t-23.5 63.5q0 32 13 68.5t35 76t49.5 80.5t56.5 81q61 85 94.5 149t33.5 105q0 67 -71 67q-33 0 -74 -18.5t-73 -54.5q-33 -37 -51.5 -75t-18.5 -82
q0 -14 2 -29.5t8 -28.5t18 -21.5t32 -8.5q38 0 70 32q11 11 22 26t20 35l9 -2q-11 -26 -26.5 -47t-32.5 -36q-23 -22 -47 -28t-47 -6q-44 0 -66 27.5t-22 70.5q0 48 25.5 97t85.5 93q51 37 103.5 54.5t104.5 17.5q66 0 105.5 -29t39.5 -84q0 -26 -13 -59.5t-36 -73.5
t-53.5 -86.5t-64.5 -98.5q-24 -36 -44.5 -69t-36.5 -62.5t-25 -54t-9 -42.5q0 -41 37 -41q24 0 62.5 26.5t100.5 86.5q58 57 114 142.5t125 196.5q30 49 61 101.5t65 110.5l148 6q-59 -88 -109.5 -165.5t-91.5 -141.5q-23 -35 -49 -80t-55 -96q-28 -50 -48.5 -87t-20.5 -64
q0 -20 7 -27.5t25 -8.5q7 0 22.5 4.5t38 17t52 35t65.5 57.5q48 48 99 122.5t114 169.5q41 62 78 124.5t80 133.5z" />
    <glyph glyph-name="u042A" unicode="&#x42a;" horiz-adv-x="867" 
d="M391 484q-24 -33 -58.5 -54t-77.5 -21q-48 0 -76.5 29t-28.5 74q0 37 17.5 72.5t61.5 70.5q30 24 61 37.5t69 13.5q15 0 27.5 -1.5t27 -5t32.5 -9.5t42 -15q39 -14 76 -27.5t75 -13.5q33 0 64.5 10t46.5 24q13 12 20 21.5t15 18.5q8 8 14 11t11 3t11 -3.5t6 -13.5t-4 -16
t-20 -14q-13 -6 -26 -13.5t-23 -14.5q-8 -6 -22.5 -16.5t-32 -23.5t-35 -27t-31.5 -26q-15 -14 -37 -34t-45 -43.5t-45.5 -49t-39.5 -50.5q-41 -60 -54 -114.5t-13 -99.5q0 -27 5.5 -55t19 -51t36 -38t55.5 -15q54 0 95.5 31.5t70.5 74.5q24 37 35 76.5t11 82.5
q0 19 -4.5 41t-14.5 41t-27 32t-42 13q-22 0 -39 -9.5t-36 -31.5q-22 -24 -35 -60.5t-18 -68.5l-11 2q5 42 18.5 77t34.5 61q25 30 57 48t77 18q59 0 100 -43q20 -21 28.5 -52t8.5 -63q0 -21 -7.5 -49t-24 -59t-42.5 -61.5t-63 -57.5q-40 -29 -86 -46t-109 -17
q-41 0 -83 10.5t-76 33.5q-35 25 -54.5 63t-19.5 88q0 67 37.5 122.5t98.5 109.5q32 28 72.5 58t82.5 58t82 53.5t73 45.5l-2 4q-66 -35 -111.5 -46t-77.5 -11q-16 0 -29.5 1t-28.5 3.5t-32 7t-39 11.5q-23 7 -39.5 12t-30 8t-26 4.5t-26.5 1.5q-23 0 -44 -11t-35 -29
q-11 -15 -16.5 -32.5t-5.5 -34.5q0 -39 25 -64.5t73 -25.5q35 0 66.5 15t56.5 48z" />
    <glyph glyph-name="u042B" unicode="&#x42b;" horiz-adv-x="1097" 
d="M1197 278q-28 -45 -57.5 -87.5t-56.5 -74.5q-18 -22 -39.5 -43.5t-46.5 -39t-53.5 -28.5t-61.5 -11q-27 0 -46.5 12t-33.5 30q-14 19 -19.5 43.5t-5.5 50.5q0 32 12 69t28 69l-2 1q-14 -17 -29.5 -32t-36.5 -29q-36 -22 -79 -32q-23 -45 -55.5 -81t-72 -60.5t-86 -37.5
t-95.5 -13q-47 0 -87.5 10t-72.5 31q-39 26 -61 67.5t-22 92.5q0 48 15 93t39 87t54 80t61 71q21 23 47 45t54 42t57.5 38t57.5 32q48 26 99 37.5t107 11.5q112 0 112 -68q0 -18 -13 -31.5t-33 -13.5q-22 0 -34.5 10t-30.5 36q-16 22 -27.5 34.5t-31.5 12.5q-30 0 -64 -15.5
t-68 -41.5q-56 -44 -101 -95.5t-83 -120.5q-34 -61 -55.5 -124t-21.5 -132q0 -33 7.5 -66t25.5 -57q15 -21 38.5 -33.5t56.5 -12.5q37 0 69 14t57.5 37.5t44 53.5t28.5 63q-34 -2 -68 7.5t-61 28.5q-29 20 -43 48.5t-14 53.5q0 28 11.5 53t32.5 47q22 21 46.5 31t43.5 10
q26 0 51.5 -6t52.5 -28q31 -25 45 -61t14 -76q0 -18 -5 -43t-14 -42q19 4 38.5 11t36.5 20q23 17 45 40.5t37 47.5q15 23 40 57.5t57 71.5t67 68.5t71 51.5q15 8 34 14t39 6q8 0 12 -5t4 -10t-4 -10.5t-15 -7.5t-24.5 0t-27.5 -2q-21 -11 -46 -43.5t-49 -74.5
q-51 -91 -70 -174.5t-19 -140.5q0 -11 2 -24.5t7.5 -25.5t15 -20t24.5 -8q16 0 33.5 10t34 23.5t31 28.5t23.5 26q26 29 54.5 68.5t60.5 88.5zM509 424q-16 0 -26.5 -6.5t-20.5 -18.5q-11 -14 -15.5 -33.5t-4.5 -37.5q0 -26 10 -52.5t30 -46.5t47 -30.5t58 -12.5
q6 20 8.5 47t2.5 50q0 21 -5 47t-16 47q-11 19 -28 33t-40 14z" />
    <glyph glyph-name="u042C" unicode="&#x42c;" horiz-adv-x="731" 
d="M650 702q-31 0 -64.5 -15.5t-65.5 -41.5q-35 -27 -74.5 -67t-75.5 -90q-47 -65 -79.5 -146.5t-32.5 -169.5q0 -29 5.5 -59t20 -54t38.5 -39.5t61 -15.5q44 0 79.5 19t64.5 51q35 39 52.5 95t17.5 113q0 22 -5 48t-18 46q-13 19 -29.5 29t-39.5 10t-42 -10.5t-38 -33.5
q-14 -18 -28 -49.5t-24 -73.5l-12 2q6 38 20 73t35 61q29 35 65.5 51t78.5 16q26 0 50.5 -9t47.5 -32t31 -57t8 -65q0 -33 -11 -67.5t-30.5 -66t-45 -59t-54.5 -48.5q-42 -29 -89 -46t-113 -17q-52 0 -95.5 13.5t-74.5 39t-48.5 62.5t-17.5 83t15 92.5t39.5 90t55.5 83
t63 72.5q43 45 97.5 83.5t110.5 67.5q96 51 208 51q56 0 85 -17t29 -50q0 -21 -13.5 -33.5t-33.5 -12.5q-23 0 -35.5 12t-29.5 35t-27.5 34.5t-31.5 11.5z" />
    <glyph glyph-name="u042D" unicode="&#x42d;" horiz-adv-x="731" 
d="M583 302q19 49 31 99t12 110q0 34 -6.5 71.5t-25.5 67.5q-14 23 -38 38t-57 15q-41 0 -79.5 -17t-70.5 -56t-45.5 -79t-13.5 -69q0 -20 5 -39.5t17 -33.5q11 -11 25.5 -18t33.5 -7q63 0 100 43q29 33 44 93l13 -2q-13 -62 -46 -99q-23 -28 -55.5 -44.5t-74.5 -16.5
q-59 0 -97 29q-20 16 -31.5 40t-11.5 55q0 33 20.5 74.5t58.5 76.5q45 42 102.5 65t123.5 23q45 0 87.5 -10.5t74.5 -33.5q36 -25 61.5 -70.5t25.5 -104.5q0 -62 -21 -123.5t-57 -118.5q-33 -53 -79 -102.5t-101.5 -88t-118.5 -62t-131 -23.5q-39 0 -81.5 7t-80.5 30
q-37 22 -51.5 52t-14.5 56q0 22 9 42t24.5 35t36 23.5t43.5 8.5q34 0 60.5 -22.5t40.5 -56.5l-7 -3q-7 10 -17.5 15.5t-21.5 5.5q-28 0 -44.5 -21.5t-16.5 -49.5q0 -20 7.5 -40t26.5 -37q21 -19 45 -24t41 -5q58 0 107 24.5t88.5 64.5t70.5 91.5t55 105.5h-288l8 16h285z
" />
    <glyph glyph-name="u042E" unicode="&#x42e;" horiz-adv-x="1373" 
d="M1257 208q25 -7 52 -7q47 0 86 15t85 47l3 -9q-36 -31 -82.5 -48t-95.5 -17q-14 0 -26.5 1t-29.5 6q-93 -107 -188.5 -159.5t-188.5 -52.5q-83 0 -130 53.5t-47 150.5q0 82 35 164h-113q-75 -152 -174 -241q-67 -60 -142.5 -89.5t-153.5 -29.5q-85 0 -128 32.5t-43 81.5
q0 35 21 58.5t53 23.5q27 0 43 -17.5t16 -45.5q0 -21 -11 -31t-26 -19q1 -27 9 -41.5t19.5 -21t26 -7t28.5 -0.5q41 0 89.5 28t93.5 90q28 39 51 78t45 79.5t46 82t54 86.5q35 53 83 102.5t103 83.5q82 50 182 69v2q-25 -1 -44 -1q-17 -1 -32 -1h-20q-41 -1 -89 -5
t-97.5 -11.5t-96.5 -18.5t-86 -25q-108 -39 -156.5 -93.5t-48.5 -113.5q0 -20 3.5 -38t13 -31.5t25.5 -21.5t41 -8q28 0 53.5 11t44.5 29.5t30.5 42.5t12.5 49q1 17 -3.5 34t-10.5 31l8 3q10 -14 14 -31t4 -32q0 -23 -7 -48t-28 -49q-32 -37 -77 -56.5t-90 -19.5
q-34 0 -60.5 10.5t-44.5 28.5t-27.5 42t-9.5 51q0 69 56.5 129t182.5 101q40 13 81.5 22t89 15t103.5 9t126 4q49 1 95.5 5t68.5 7q42 5 63.5 7.5t35.5 2.5q11 0 17.5 -5t6.5 -13q0 -4 -5 -11t-28 -7q-12 0 -27 3t-41 3q-24 0 -47.5 -9.5t-45 -24.5t-40.5 -32.5t-33 -32.5
q-38 -42 -77.5 -100t-80.5 -139h113q4 10 10 20q53 100 161 184q54 42 114 68t123 34q28 23 54.5 35.5t61.5 12.5q28 0 51.5 -12.5t40.5 -35t26.5 -54.5t8.5 -72q-2 -85 -34 -170.5t-98 -169.5zM1196 219q-70 39 -106.5 93.5t-36.5 138.5q0 52 19 104.5t63 102.5l-2 2
q-51 -10 -94.5 -44.5t-88.5 -91.5q-29 -37 -51.5 -81t-37.5 -89.5t-22.5 -89t-7.5 -79.5q0 -86 30.5 -128.5t88.5 -42.5q26 0 56 12t62.5 37t65 64t62.5 92zM1201 231q38 86 59 169t21 156q0 64 -16 102t-53 38q-12 0 -25 -7t-24 -15q38 -2 60.5 -25.5t22.5 -61.5
q0 -23 -7.5 -43.5t-18.5 -43.5l-11 4q9 20 17 41t8 39q0 39 -23 59t-56 19q-29 -37 -40.5 -84t-11.5 -108q0 -81 22 -143t76 -96z" />
    <glyph glyph-name="u042F" unicode="&#x42f;" horiz-adv-x="877" 
d="M535 89q0 31 9.5 66t23.5 68.5t30 63.5t30 50q-44 -12 -71 -14t-51 -3q-17 -20 -31 -39.5t-29 -39t-32.5 -41t-40.5 -45.5q-44 -47 -81.5 -77.5t-72.5 -48.5t-68.5 -26.5t-68.5 -9.5q-29 -2 -57.5 6t-49.5 24q-24 18 -34.5 40t-10.5 51q0 12 4.5 25.5t13.5 25t22.5 18.5
t31.5 7q9 0 19 -2.5t19 -9.5t14.5 -18t5.5 -28q0 -18 -12.5 -33.5t-35.5 -16.5q1 -9 4 -19.5t18 -23.5q14 -12 37 -16.5t38 -4.5q65 0 124 38.5t122 104.5q29 29 63.5 72t67.5 87q-26 0 -59 6t-59 20q-29 17 -45.5 43.5t-16.5 62.5q0 30 14 61t43.5 60t75.5 54.5t110 44.5
q58 18 117 27.5t119 14.5t121 7t124 5l7 -16q-17 -14 -42 -38t-56 -59t-66 -80t-71 -100q-68 -105 -104.5 -194.5t-36.5 -173.5q0 -28 11.5 -41.5t29.5 -13.5q21 0 60 23t102 88q26 27 56 61.5t65 79.5l7 -7q-35 -46 -65 -81.5t-56 -63.5q-39 -42 -70.5 -66.5t-58 -37.5
t-50 -17.5t-45.5 -4.5q-51 -1 -81.5 27.5t-30.5 77.5zM634 353q10 18 25.5 40t33.5 47t38.5 50t41.5 49q20 22 43.5 46.5t47.5 47t46 41.5t40 30l-1 2q-36 0 -80 -2.5t-88.5 -8.5t-85.5 -14.5t-71 -18.5q-56 -20 -94.5 -45.5t-62.5 -53.5t-34.5 -57.5t-10.5 -56.5
q0 -53 33 -84q31 -28 82 -28q34 0 55 4t42 12z" />
    <glyph glyph-name="u0430" unicode="&#x430;" horiz-adv-x="556" 
d="M562 360q-11 -16 -28.5 -41t-37.5 -54t-40 -60.5t-36.5 -61.5t-27 -56t-10.5 -44q0 -29 23 -29q21 0 49.5 20t62.5 53.5t71 78.5t75 95l6 -4q-40 -51 -78 -99.5t-75.5 -86t-75 -60.5t-76.5 -23q-34 0 -52 11t-26.5 27.5t-10 34.5t-1.5 32l-3 2q-16 -19 -34.5 -38
t-40.5 -34.5t-46 -25t-51 -9.5q-48 0 -72.5 28.5t-24.5 91.5q0 44 22 90.5t62.5 85t96.5 63.5t123 25q39 0 59.5 -19.5t26.5 -48.5h2l26 52zM165 32q21 0 54 27t65 69t55 91.5t23 94.5q0 23 -13.5 34.5t-30.5 11.5q-21 0 -42.5 -14t-42 -37.5t-39 -53t-32.5 -60t-22 -60.5
t-8 -53q0 -17 6.5 -33.5t26.5 -16.5z" />
    <glyph glyph-name="u0431" unicode="&#x431;" horiz-adv-x="538" 
d="M496 546q-10 -98 -17 -169.5t-9 -99.5q-2 -26 -6.5 -52.5t-15 -54t-29.5 -55.5q-7 -11 -16 -22q32 12 61 25q30 14 63 36q29 20 60 48t57 63l6 -7q-26 -33 -58 -64t-63 -51q-23 -16 -47.5 -28t-44.5 -20t-33 -12t-13 -3q-10 -10 -20 -19q-33 -29 -85 -51t-118 -22
q-35 0 -67 9.5t-55 27.5q-21 17 -32.5 41.5t-11.5 58.5q0 48 21 90t60 78q42 38 101 58.5t113 20.5q29 0 54.5 -4.5t47.5 -18.5q17 -10 32 -25t23 -36h2l29 299q3 22 11 43.5t25 38.5q16 15 34.5 21t34.5 6q34 0 92 -19q26 -8 50 -14.5t44 -6.5q17 0 29.5 5t29.5 24
q8 9 14 19.5t8 17.5l11 -3q-14 -35 -27.5 -57t-26.5 -41q-19 -28 -39.5 -40.5t-46.5 -12.5q-25 0 -47 6.5t-51 16.5q-25 8 -42.5 13t-34.5 5q-12 0 -23 -4t-18 -12q-8 -9 -11 -21t-5 -26zM356 302q0 27 -12 41.5t-32 14.5q-23 0 -54 -21.5t-60 -63.5q-45 -65 -66.5 -124
t-21.5 -96q0 -29 12 -41t25 -12q28 0 53.5 17.5t47.5 43.5t39.5 56t29.5 55q22 46 30.5 78t8.5 52z" />
    <glyph glyph-name="u0432" unicode="&#x432;" 
d="M178 439q31 54 81.5 104t108.5 85q54 33 102.5 50.5t86.5 17.5q15 0 32 -2t32 -8t24.5 -17.5t9.5 -31.5q0 -27 -18.5 -56.5t-59.5 -59.5q-20 -15 -40 -27.5t-42.5 -26.5t-48.5 -30t-59 -37q-32 -20 -69 -45.5t-85 -57.5l-62 -105q-21 -36 -33 -60.5t-19 -41t-9 -26.5
t-2 -17q0 -22 10 -33.5t27 -11.5q35 0 73.5 24t82.5 93q17 26 34 61t31 85q-4 11 -5 21.5t-1 16.5q0 27 18.5 48t47.5 21q26 0 45 -19t19 -59q0 -13 -2 -26t-5 -26q16 -16 32 -22.5t36 -7.5q29 -1 49.5 13t43.5 40l6 -8q-24 -32 -49 -44.5t-51 -12.5q-17 0 -34 6.5t-35 22.5
q-37 -106 -130 -174q-59 -42 -111.5 -54.5t-94.5 -12.5q-60 0 -96.5 34t-36.5 91q0 39 19.5 78t47.5 86zM248 322q44 29 75 50t58 41q31 23 56.5 46t54.5 61q33 41 45 72t12 57q0 32 -21 32q-13 0 -30.5 -9t-37.5 -28q-15 -14 -28.5 -31.5t-26 -35.5t-23 -35.5t-18.5 -30.5z
" />
    <glyph glyph-name="u0433" unicode="&#x433;" horiz-adv-x="415" 
d="M105 258q11 17 24 35.5t25 30.5q20 22 43 35t58 13q17 0 37.5 -1t42.5 -11q21 -9 33.5 -26t12.5 -40t-12 -40.5t-29.5 -31.5t-38 -26.5t-38.5 -24.5q-14 -9 -28.5 -20t-26.5 -24t-20 -28t-8 -32q0 -21 13 -37t39 -16q53 0 110 46q26 21 51 47t47.5 54t42.5 55t36 50
l10 -5q-13 -20 -32 -46.5t-42.5 -55t-50 -56.5t-55.5 -52q-35 -29 -76.5 -46t-79.5 -17q-20 0 -42.5 2.5t-42.5 13.5q-17 9 -29.5 26.5t-12.5 39.5q0 21 8 38t22 31q20 20 45 36t44 29q15 10 31 21t28.5 23.5t20.5 28t8 35.5q0 18 -10.5 30.5t-30.5 12.5t-36 -8.5t-33 -27.5
q-11 -12 -24 -30t-24 -34z" />
    <glyph glyph-name="u0434" unicode="&#x434;" horiz-adv-x="535" 
d="M153 1q23 0 51.5 19.5t60.5 61.5q24 32 40 63.5t26 60t14.5 53t4.5 42.5q0 55 -39 55q-20 0 -46.5 -18.5t-55.5 -56.5q-24 -30 -42 -62t-30.5 -62t-19 -56t-6.5 -45q0 -29 11.5 -42t30.5 -13zM366 363q0 54 -10 105t-37 94q-35 57 -84.5 80t-109.5 23q-78 0 -140 -37
l-5 8q49 31 97 45.5t102 14.5q81 0 137 -24t98 -69q19 -20 33 -46t23.5 -54.5t14 -57.5t4.5 -55q0 -45 -8 -96t-23 -90q-16 -41 -40 -78.5t-57 -66.5l1 -1q42 15 79 35t72 46t69 58t70 71l7 -7q-36 -41 -72 -75t-75 -61.5t-83 -49t-96 -37.5q-44 -28 -89 -39t-90 -11
q-31 0 -65.5 12.5t-57.5 39.5q-28 33 -28 80q0 45 17 88t65 86q21 19 46.5 33.5t53.5 24.5t56 15t54 5q25 0 42.5 -6t28.5 -20v17z" />
    <glyph glyph-name="u0435" unicode="&#x435;" horiz-adv-x="426" 
d="M544 257q-23 -33 -51.5 -66.5t-64.5 -68.5q-69 -66 -134 -100t-145 -34q-69 0 -105 32t-36 93q0 53 30 100t75.5 82t99 56t101.5 21t79 -15.5t31 -50.5t-34 -61t-80.5 -44.5t-93.5 -30t-74 -17.5q-2 -10 -3 -20t-1 -20q0 -18 4 -35.5t13.5 -30.5t25 -21t38.5 -8
q47 0 101 34.5t109 86.5q35 34 61.5 66t44.5 58zM324 332q0 28 -28 28q-22 0 -47.5 -22.5t-47 -54t-37.5 -64.5t-20 -55q42 9 75.5 27.5t57 41.5t35.5 49t12 50z" />
    <glyph glyph-name="u0436" unicode="&#x436;" horiz-adv-x="928" 
d="M655 360q-13 -21 -32.5 -50t-42.5 -63.5t-47 -72.5t-46 -77l3 -1q20 26 44.5 50.5t50.5 48.5q28 26 71.5 62.5t98.5 69.5q24 15 43.5 24t36 13.5t30 6t27.5 1.5q38 0 58.5 -16t19.5 -46q0 -17 -7 -30t-17.5 -21.5t-23 -13t-24.5 -4.5q-8 0 -17 1t-20 6q11 22 16 41.5
t5 35.5q0 33 -20 33q-15 0 -37.5 -12.5t-51.5 -45.5q-45 -51 -69.5 -105.5t-24.5 -101.5q0 -30 18.5 -50.5t50.5 -20.5q37 0 79 24.5t93 78.5q26 27 54 59.5t60 78.5l8 -4q-33 -45 -60 -78.5t-56 -65.5q-36 -38 -66.5 -62.5t-59.5 -38.5t-57 -20t-58 -6q-51 0 -79 21
q-15 12 -23.5 29t-8.5 39q0 38 28 86q14 24 35.5 48t48.5 50l-3 2q-34 -26 -66 -55.5t-64 -61.5q-21 -21 -40 -44t-33.5 -43t-24.5 -34.5t-13 -18.5l-136 -7l150 255l-2 2q-25 -30 -43.5 -47.5t-39.5 -37.5q-42 -40 -85.5 -75.5t-80.5 -57.5q-41 -24 -76 -37t-75 -13
q-45 0 -75.5 25.5t-30.5 67.5q0 35 20 58t52 23q21 0 35.5 -13.5t14.5 -34.5q0 -22 -13 -34t-30 -12h-9t-10 2q-2 -5 -3 -11.5t-1 -12.5q0 -21 13 -33.5t36 -12.5q65 0 136 89q43 53 61 100t18 84q0 23 -10.5 42t-36.5 19q-15 0 -29 -6.5t-27 -17.5q-11 -10 -24 -25t-23 -29
l-9 7q15 23 34.5 43t36.5 33q20 15 41.5 24t45.5 9q20 0 40 -6.5t35 -20.5q30 -27 30 -71q0 -22 -9 -44.5t-23 -44.5t-31.5 -41.5t-33.5 -35.5l2 -2l30 26q13 11 28 24.5t28 26.5q39 37 76.5 76t73.5 95z" />
    <glyph glyph-name="u0437" unicode="&#x437;" horiz-adv-x="497" 
d="M-170 -86q-39 0 -62.5 -27.5t-23.5 -69.5q0 -26 7.5 -49.5t21.5 -40.5t34.5 -27t47.5 -10q48 0 104.5 34t122.5 108q20 22 39.5 51.5t34.5 60.5t24.5 60.5t9.5 52.5q0 14 -1 20.5t-3 10.5q-17 -5 -30.5 -8t-22.5 -3q-6 0 -12 3t-6 10q0 8 8.5 15t22.5 7q11 0 27 -3.5
t28 -4.5q23 15 42.5 33t33.5 39q28 42 28 93q0 30 -17 52q-9 11 -21.5 17.5t-28.5 6.5t-32.5 -5t-34.5 -20q-12 -9 -28 -28t-28 -38l-11 6q13 22 32.5 44.5t45.5 38.5q30 17 56 23.5t48 6.5q18 0 38.5 -3.5t39.5 -11.5q24 -11 41 -32t17 -53q0 -27 -14.5 -56.5t-52.5 -57.5
q-32 -23 -67.5 -38.5t-67.5 -21.5v-3q12 -3 26.5 -8t27 -13.5t21 -21t8.5 -30.5q0 -13 -1.5 -22t-6.5 -22q44 13 86.5 41t85.5 66q21 18 38.5 37.5t34 42t34 48t37.5 56.5l9 -5q-38 -61 -71.5 -105t-74.5 -83q-45 -42 -90 -70t-95 -43q-27 -53 -64.5 -101.5t-91.5 -87.5
q-33 -25 -71 -43.5t-76.5 -31t-76.5 -18.5t-72 -6q-15 0 -34 1.5t-40 5.5t-42.5 12t-40.5 21q-25 17 -40.5 43t-15.5 58q0 26 11.5 46.5t31.5 34.5q23 17 53 23.5t72 6.5q12 0 33.5 -1.5t35.5 -3.5l-1 -9h-30z" />
    <glyph glyph-name="u0438" unicode="&#x438;" 
d="M265 368l-35 -54q-48 -72 -77 -117.5t-45 -74t-21 -44t-5 -27.5q0 -13 7.5 -21t19.5 -8q20 0 51.5 22.5t69 65.5t79.5 105t83 141l145 4q-9 -15 -25.5 -40t-37 -54.5t-42 -62.5t-39 -63.5t-28.5 -57t-11 -43.5q0 -14 6 -19.5t16 -5.5q17 0 39.5 14t48 36.5t52 50.5t50 56
t43.5 53t32 41l9 -8q-17 -20 -39 -47.5t-47.5 -57.5t-54 -59.5t-58.5 -52.5t-60.5 -37.5t-60.5 -14.5q-22 0 -38 7t-26 19t-15 27.5t-5 31.5q0 12 3 24t6 20l-2 2q-22 -25 -45 -48.5t-48 -42t-51 -29.5t-53 -11q-42 0 -62 24.5t-20 62.5q0 20 9 45.5t23 53.5t31.5 57
t33.5 54.5t29.5 46t20.5 32.5z" />
    <glyph glyph-name="u0439" unicode="&#x439;" horiz-adv-x="538" 
d="M148 189q-24 -38 -37.5 -62t-20 -39.5t-7.5 -23.5t-1 -14q0 -12 8 -20t17 -8q21 0 56 23.5t77 77.5q28 35 57 75.5t52 80.5l43 77l146 4l-96 -143q-19 -28 -32.5 -50.5t-23.5 -40.5q-20 -35 -26 -54.5t-6 -32.5q0 -11 4.5 -18t15.5 -7q21 0 57 25t87 79q54 57 123 147
l9 -8q-35 -43 -65.5 -80.5t-59.5 -67.5q-56 -59 -103.5 -90t-90.5 -31q-38 0 -61.5 23.5t-23.5 61.5q0 11 2 21.5t7 23.5l-2 2q-60 -73 -108.5 -102.5t-90.5 -29.5q-38 0 -59 23.5t-21 61.5q0 32 15.5 69t41.5 80l90 142l144 4zM562 562q-14 -20 -28 -37.5t-34 -34.5
q-32 -26 -69 -37.5t-77 -11.5q-26 0 -51 4.5t-44 15.5q-14 8 -23.5 20.5t-9.5 28.5q0 13 8.5 26.5t24.5 21.5q19 11 44 14t45 3q10 0 27 -2t28 -6l-2 -9q-5 1 -10.5 1.5t-10.5 0.5q-24 0 -40 -14q-17 -15 -17 -39t18 -36t43 -12q23 0 52 9.5t52 28.5q18 15 35 34.5t29 38.5z
" />
    <glyph glyph-name="u043A" unicode="&#x43a;" horiz-adv-x="538" 
d="M265 360q-34 -54 -66.5 -106.5t-62.5 -97.5l2 -2q32 40 57 70t52 57q51 51 88 71t69 20q16 0 30.5 -3t25.5 -12q11 -8 17 -20.5t6 -31.5q0 -17 -8.5 -32.5t-22.5 -25.5q-25 -19 -63 -19q-8 0 -15.5 1t-12.5 3q-7 2 -12 5q8 14 11.5 29.5t3.5 29.5t-5 24t-19 10
q-13 0 -33 -12.5t-54 -45.5q-40 -41 -91 -106.5t-104 -159.5l-138 -7l205 355zM282 188q-3 -1 -13 -4.5t-19 -5.5q-8 -2 -14 -2.5t-13 -0.5q-5 0 -10 3t-5 8v6t4 7q10 8 23 8q24 0 52 -5t51 -18q21 -11 37 -28t16 -41q0 -10 -4 -23t-9 -23q-4 -9 -7 -17.5t-3 -18.5
q0 -9 5 -14t12 -5q22 0 57.5 25t81.5 75q28 29 56.5 65t62.5 84l9 -4q-33 -48 -62.5 -84.5t-57.5 -66.5q-30 -32 -54.5 -54.5t-49 -37t-51.5 -21t-60 -6.5q-38 0 -61.5 19t-23.5 54q0 21 9 38t18 32q7 11 15 23.5t8 32.5z" />
    <glyph glyph-name="u043B" unicode="&#x43b;" horiz-adv-x="491" 
d="M-86 87q0 27 18 50t53 23q25 0 38.5 -14.5t13.5 -31.5q0 -20 -10.5 -33.5t-27.5 -14.5h-10.5t-10.5 2q-6 -8 -6 -20q0 -23 13 -33.5t33 -10.5q35 0 62.5 17.5t46.5 34.5q15 14 37.5 41t47 59t47.5 66t39 62q5 10 13 23.5t15 26.5l16 30l144 4l-132 -218
q-21 -35 -33.5 -63.5t-12.5 -47.5q0 -11 5.5 -18t17.5 -7q20 0 54.5 25t84.5 78q55 58 125 149l8 -9q-35 -46 -66.5 -83.5t-59.5 -67.5q-57 -60 -102.5 -89t-90.5 -29q-34 0 -56 19.5t-22 57.5q0 11 4 31t18 49l-4 1q-25 -35 -53.5 -67t-49.5 -48q-58 -43 -105 -43
q-52 0 -77 28.5t-25 70.5z" />
    <glyph glyph-name="u043C" unicode="&#x43c;" horiz-adv-x="749" 
d="M-86 87q0 27 18.5 50t52.5 23q26 0 39 -14t13 -31q0 -20 -10 -34t-27 -15h-11t-11 2q-6 -8 -6 -19q0 -8 2.5 -17t8.5 -15q13 -13 31 -13q35 0 60.5 17.5t45.5 37.5q34 33 75 86t83 122q8 12 17 29t17 32l20 36l144 4q-27 -46 -52 -86q-21 -35 -41.5 -68.5t-30.5 -49.5
q-21 -35 -37.5 -69.5t-16.5 -53.5q0 -11 4.5 -19t18.5 -8q15 0 35 13t40 30q29 26 65 72.5t78 113.5q11 17 21.5 36.5t20.5 36.5l22 40l145 4q-4 -8 -19.5 -30.5t-34 -50.5t-37.5 -56t-31 -47q-11 -17 -21.5 -36t-19.5 -38t-14.5 -35t-5.5 -27q0 -15 6.5 -20.5t16.5 -5.5
q43 0 137 100q55 58 127 151l9 -7q-72 -93 -128 -152q-57 -60 -103.5 -89t-90.5 -29q-35 0 -54.5 23t-19.5 61q0 21 9 45l-2 2q-39 -52 -88 -92q-21 -16 -49.5 -27.5t-58.5 -11.5q-18 0 -34 5t-30 22q-16 19 -16 53q0 5 2 15t5 21t7 22t8 19l-4 1q-11 -15 -24 -31
t-26.5 -31.5t-26.5 -29t-23 -21.5q-54 -45 -101 -45q-18 0 -37 6t-33 19q-15 14 -22 33.5t-7 40.5z" />
    <glyph glyph-name="u043D" unicode="&#x43d;" horiz-adv-x="534" 
d="M646 257q-23 -28 -39.5 -48.5t-30.5 -37.5t-27.5 -32t-28.5 -31q-61 -66 -107 -93t-84 -27q-41 0 -65 23.5t-24 58.5q0 19 7 39.5t17.5 40.5t22.5 39h-125q-14 -22 -27 -45q-22 -36 -42 -71.5t-34 -66.5l-136 -6l207 354l142 6q-5 -9 -19 -30t-33 -50t-41 -64l-7 -11h125
q7 10 13 20q10 16 21.5 36t22.5 38.5t19.5 33.5t12.5 23l147 4q-5 -8 -16.5 -25t-25.5 -38t-28.5 -42.5t-26.5 -39.5q-10 -15 -24.5 -38t-28 -47.5t-23.5 -46.5t-10 -34q0 -27 23 -27q22 0 60 24.5t78 68.5q14 15 27.5 30t28.5 32.5t32 38.5t38 49z" />
    <glyph glyph-name="u043E" unicode="&#x43e;" 
d="M653 257q-4 -4 -13 -13.5t-22.5 -19t-30.5 -17t-37 -7.5q-26 0 -46.5 12.5t-37.5 33.5h-2q0 -52 -24.5 -99t-65 -82.5t-92.5 -56t-108 -20.5q-33 0 -64 7t-55 23t-38.5 42t-14.5 64q0 57 27 103t69.5 78.5t96 49.5t105.5 17q43 0 71 -12t47.5 -29.5t33 -38.5t27 -38.5
t30 -29.5t41.5 -12q23 0 47.5 13.5t47.5 39.5zM316 360q-24 0 -48.5 -16.5t-47.5 -43t-43 -60t-35 -67.5t-23.5 -66t-8.5 -56q0 -23 10.5 -37t29.5 -14q24 0 48.5 16.5t47.5 43t43 60t35 67.5t23.5 66.5t8.5 55.5t-10.5 37t-29.5 14z" />
    <glyph glyph-name="u043F" unicode="&#x43f;" 
d="M-77 0l207 354l142 6q-72 -100 -138 -204l2 -2q26 33 58 71t67.5 70.5t73 54.5t74.5 22q38 0 63.5 -19.5t25.5 -59.5q0 -33 -20.5 -68t-45.5 -68.5t-45.5 -64t-20.5 -53.5q0 -10 5.5 -17.5t17.5 -7.5q22 0 50 20.5t58 50.5q23 23 46 49.5t43 51t36 45t25 32.5l9 -5
q-34 -45 -72.5 -93t-77.5 -88q-41 -42 -79.5 -65.5t-78.5 -23.5q-45 0 -67.5 26.5t-22.5 68.5q0 36 19.5 68.5t43.5 61t43.5 52.5t19.5 45q0 28 -27 28q-18 0 -44 -18.5t-56 -48.5t-61 -67t-58.5 -74t-48 -70t-30.5 -54z" />
    <glyph glyph-name="u0440" unicode="&#x440;" 
d="M396 562l-250 -373l2 -2q21 27 46 59t55 60t64 47t72 19q22 0 40 -9t31 -24t20.5 -34.5t7.5 -40.5q0 -51 -21.5 -90.5t-48.5 -67.5v-2q71 20 127.5 61.5t102.5 100.5l8 -5q-47 -66 -112 -110.5t-139 -61.5q-24 -21 -53.5 -39t-59.5 -32t-58.5 -22t-51.5 -8q-10 0 -20.5 1
t-19.5 5t-14.5 11.5t-5.5 19.5q0 20 18.5 32.5t45 20t55 11t48.5 4.5q9 14 20.5 33t22.5 41.5t18.5 49t7.5 54.5q0 7 -1 16t-5 17.5t-12 14t-21 5.5q-24 0 -54.5 -29t-62 -70.5t-60.5 -86.5t-52 -78q-63 -92 -117 -188t-108 -190l-143 -6q137 217 268.5 435t266.5 441z
M166 21q0 -8 3.5 -14.5t14.5 -6.5q13 0 25.5 8.5t24 21t22.5 26.5t21 25q-22 -1 -42 -6t-35.5 -12.5t-24.5 -18t-9 -23.5z" />
    <glyph glyph-name="u0441" unicode="&#x441;" horiz-adv-x="426" 
d="M544 259q-39 -50 -79.5 -97.5t-93.5 -90.5q-48 -39 -100.5 -61t-119.5 -22q-27 0 -53 7t-46 21t-32 36t-12 52q0 59 30 108t76.5 84.5t102 55.5t106.5 20q48 0 78 -16.5t30 -49.5q0 -21 -9 -36.5t-24.5 -26t-35.5 -15.5t-42 -5h-8q2 11 2.5 24.5t0.5 33.5q0 35 -6 53
t-25 18q-21 0 -46 -24t-47.5 -59.5t-37.5 -77t-15 -76.5q0 -43 21.5 -70t64.5 -27q45 0 94 31t101 82q34 33 65.5 71.5t51.5 63.5z" />
    <glyph glyph-name="u0442" unicode="&#x442;" horiz-adv-x="796" 
d="M193 0q6 10 21.5 34.5t35 56t41 66.5t39 66.5t29 55.5t11.5 34q0 25 -26 25q-16 0 -40.5 -18t-53.5 -47.5t-60 -66t-58.5 -73.5t-49.5 -70.5t-34 -56.5l-135 -6q48 89 105 179.5t103 176.5l144 4l-133 -195l2 -2q21 26 49 62t62.5 68.5t75 55.5t84.5 23q35 0 57 -18.5
t22 -54.5q0 -22 -5 -37.5t-14 -32.5l2 -2l40.5 45t48.5 47.5t55 37.5t60 15q35 0 59 -19.5t24 -56.5q0 -35 -21 -71.5t-46 -70.5t-46 -63.5t-21 -50.5q0 -11 6.5 -18.5t19.5 -7.5q20 0 43.5 14.5t48 37t49 51t46.5 56t40 51t29 37.5l7 -6q-26 -34 -62 -82t-77 -91
q-38 -41 -79 -67.5t-88 -26.5q-22 0 -38.5 7.5t-26.5 20t-15 27.5t-5 30q0 36 20 71.5t44 67t44 57.5t20 43q0 13 -7.5 19.5t-17.5 6.5q-16 0 -40 -18.5t-52.5 -47.5t-58.5 -66t-56.5 -74t-48 -70t-33.5 -56z" />
    </font>
</defs>
</svg>
